<?xml version="1.0" standalone="no"?>
<!DOCTYPE svg PUBLIC "-//W3C//DTD SVG 1.1//EN" "http://www.w3.org/Graphics/SVG/1.1/DTD/svg11.dtd" >
<svg xmlns="http://www.w3.org/2000/svg" xmlns:xlink="http://www.w3.org/1999/xlink" version="1.1">
<metadata></metadata>
<defs>
<font id="authentic_ratatouilleregular" horiz-adv-x="755" >
<font-face units-per-em="2048" ascent="1638" descent="-410" />
<missing-glyph horiz-adv-x="366" />
<glyph horiz-adv-x="0" />
<glyph horiz-adv-x="682" />
<glyph unicode=" "  horiz-adv-x="366" />
<glyph unicode="&#x09;" horiz-adv-x="366" />
<glyph unicode="&#xa0;" horiz-adv-x="366" />
<glyph unicode="!" horiz-adv-x="739" d="M96 49q19 63 43 156q102 -38 219 -25q-30 -98 -45 -137q-13 -33 -65.5 -41t-100.5 7t-51 40zM150 262q55 186 148.5 568.5t104.5 488.5q8 52 73 83.5t116 13.5q47 -16 45 -68q-13 -155 -114 -552.5t-156 -539.5q-13 -33 -65.5 -41t-100.5 7t-51 40z" />
<glyph unicode="#" horiz-adv-x="614" d="M97 1179q-3 25 13.5 46.5t41.5 17.5q8 0 32 -4q3 7 9.5 21.5t9.5 21.5q-20 4 -25 4q-23 5 -26 30t13.5 46.5t41.5 17.5q5 -1 35 -6q2 6 7.5 20t8.5 21q12 19 34.5 18.5t41 -22t10.5 -45.5q-4 -4 -4 -10q30 -5 35 -6q2 4 14 34q13 21 35.5 20.5t40.5 -22t10 -45.5 q0 -1 -1 -4t-1 -4q25 -5 29 -6q28 -8 18.5 -40.5t-42.5 -45.5q-14 -5 -29 -4q-4 2 -13 2q-3 -7 -9 -21.5t-9 -21.5q5 -1 15.5 -3t15.5 -3q28 -8 17.5 -40.5t-42.5 -45.5q-14 -5 -29 -4q-3 1 -9 2t-9 2q-15 -35 -17 -41q-13 -18 -32.5 -15t-35 26t-11.5 48q-6 1 -18.5 4 t-18.5 4q-15 -35 -17 -39q-13 -17 -31.5 -13.5t-34.5 25.5t-14 46q-16 4 -24 4q-23 5 -26 30zM285 1221q13 -5 32 -9q3 7 9.5 21.5t9.5 21.5q-3 1 -10 2.5t-13.5 2.5t-11.5 2q-6 -21 -16 -41z" />
<glyph unicode="$" horiz-adv-x="919" d="M106 311q-22 43 22 111q36 55 76 67q30 8 42 -20q43 -94 88 -150q12 39 36 114.5t31 98.5q-142 180 -168 250q-22 58 -13 118t42.5 105t84 76.5t112 33.5t125.5 -23q26 23 61 29.5t60 -9.5t20 -53q-4 -29 -12 -64q89 -104 116 -256q5 -26 -10.5 -48.5t-42 -32.5t-55 -12 t-51 12.5t-27.5 41.5q-1 5 -3 15.5t-3 15.5q-24 -79 -51 -162q199 -265 194 -370q-12 -81 -73.5 -141.5t-135.5 -57.5q-77 -6 -172 41v-4q-12 -26 -50 -30t-72 10t-35 34q2 5 26 74q-110 87 -162 186zM405 841q8 -39 37 -81q1 -1 9.5 -13t13.5 -18q55 183 61 203 q-53 34 -93 4q-41 -29 -28 -95zM463 207q43 -21 63 -23q58 -12 73.5 23t-24.5 98q-28 40 -53 74q-15 -48 -59 -172z" />
<glyph unicode="&#x26;" horiz-adv-x="1222" d="M207.5 415.5q8.5 92.5 41 176t85.5 152.5t117 102q-32 61 -40 132.5t6 138.5t47 128t79.5 103.5t108.5 63t128 9.5q72 -12 134.5 -69t84.5 -129q17 -58 -43 -120q-47 -49 -94 -54q-37 -4 -43 30q-8 52 -39 84.5t-61 42.5q-63 20 -101.5 -45.5t-25 -152t79.5 -119.5 q12 -7 34.5 -15t26.5 -8q23 -8 28 -37t-5.5 -63.5t-27.5 -67t-38.5 -52t-36.5 -13.5q-26 13 -67 16q-85 11 -147 -99t-46 -227t119 -124q59 -4 96 45t58 133q-26 0 -78 -10q-37 -9 -46 31q-10 46 23 95q36 53 97 58q41 6 71 -2t45 -23t37 -28t47 -16.5t76 10.5q64 20 80 -28 q15 -44 -17 -98q-34 -59 -92 -65q-18 -2 -43 2q-24 -77 -62 -138t-92 -104.5t-122 -56t-152 7.5q-89 24 -146 87.5t-75 143.5t-9.5 172.5z" />
<glyph unicode="'" horiz-adv-x="565" d="M209 1128q-9 12 0.5 24.5t28.5 16.5q18 5 32 12.5t31 24.5t30 49t19 76q7 81 56 98q38 14 69 -21q41 -45 16 -121q-3 -10 -8 -21q-25 -49 -58.5 -82t-67.5 -47t-60 -19t-51 -4q-28 2 -37 14z" />
<glyph unicode="(" horiz-adv-x="659" d="M98 292.5q-4 164.5 16 340t77.5 350t148.5 309.5q26 39 99 49q74 11 104 -21q25 -29 -6 -81q-86 -129 -141.5 -293.5t-74.5 -326.5t-10 -316t47 -276q16 -49 -33 -89.5t-112.5 -32t-83.5 78.5q-27 144 -31 308.5z" />
<glyph unicode=")" horiz-adv-x="542" d="M12 -73q-26 28 6 81q86 129 141.5 293.5t74.5 326.5t10 316.5t-47 276.5q-16 49 33 89.5t112.5 32t83.5 -78.5q27 -144 31 -308.5t-16 -340t-77.5 -350.5t-148.5 -310q-26 -39 -99 -49q-74 -11 -104 21z" />
<glyph unicode="*" horiz-adv-x="542" d="M99.5 1235q-7.5 23 4 46t35.5 24h21q-4 4 -12 11.5t-11 10.5q-16 16 -4.5 37.5t34 28t42.5 -6.5l16 -16v33q0 22 22.5 29.5t45.5 -4t24 -35.5v-23l23 23q16 17 37.5 5.5t27.5 -34t-8 -43.5q-10 -10 -14 -16h39q28 -2 24 -34q-3 -34 -33 -51q-11 -7 -24 -8h-6 q5 -5 14 -13.5t13 -12.5q19 -24 -9 -44q-30 -23 -64 -8q-8 3 -15 9q-4 4 -5 4v-39q-4 -27 -35 -23q-34 4 -50 35q-6 11 -7 23v4q-5 -4 -28 -27q-22 -18 -42 9q-22 29 -9 62q3 10 10 17l4 4h-31q-22 0 -29.5 23z" />
<glyph unicode="+" horiz-adv-x="679" d="M100 208q-5 52 16 104t54 53q25 2 80 2q10 98 10 104q11 28 58 29t98.5 -26t48.5 -60q0 -15 -4 -47q69 0 96 -2q27 -10 28 -56t-28 -98.5t-65 -54.5q-6 0 -24.5 -1t-29.5 -1q0 -2 -14 -109q-6 -40 -58 -44t-101 23t-48 64q0 2 3 27t5 41h-90q-30 0 -35 52z" />
<glyph unicode="," horiz-adv-x="503" d="M114 -196q-9 20 15 40q28 24 52.5 73.5t27.5 115.5q-4 79 45 101q39 18 76 -12q47 -40 32 -119q-1 -3 -2 -7q-16 -44 -38.5 -78.5t-40.5 -53t-45.5 -34t-39 -20.5t-36.5 -13q-37 -13 -46 7z" />
<glyph unicode="-" horiz-adv-x="776" d="M96 220q-5 52 16 104t54 53q119 6 387 0q27 -10 27.5 -56t-28.5 -98.5t-65 -54.5q-29 -2 -172 -0.5t-184 0.5q-30 0 -35 52z" />
<glyph unicode="." horiz-adv-x="518" d="M203 102q0 101 92 101q49 0 77.5 -29t28.5 -72q0 -46 -27.5 -76t-78.5 -26q-24 3 -36.5 6t-27.5 13t-21.5 30.5t-6.5 52.5z" />
<glyph unicode="/" horiz-adv-x="800" d="M98 -47q64 195 199 675.5t149 585.5q8 50 68.5 79.5t117.5 15.5t54 -72q-17 -153 -162 -652.5t-205 -641.5q-13 -33 -67 -40t-103 9t-51 41z" />
<glyph unicode="0" horiz-adv-x="925" d="M2 350.5q-6 102.5 7 216.5t41 231.5t75 225.5t105 194t135 141.5t161 63.5q56 6 149 -30t111 -78q31 -76 41.5 -194.5t0.5 -254t-47.5 -276.5t-95.5 -260t-151 -208t-206 -118q-68 -19 -169 39.5t-126 130.5q-25 74 -31 176.5zM219 342.5q8 -83.5 39 -121.5 q78 14 150.5 94t120 194.5t74.5 236.5t18.5 233t-52.5 172q-64 -5 -124 -65t-103.5 -150t-75 -199t-43.5 -210t-4 -184.5z" />
<glyph unicode="1" horiz-adv-x="825" d="M4 1020q410 256 535 371q26 25 76.5 28.5t87.5 -12t30 -39.5q-5 -23 -56.5 -296.5t-106.5 -588t-58 -374.5q-4 -52 -68 -86q-62 -34 -114 -19q-44 14 -45 62q1 106 50.5 401.5t108.5 579.5q-167 -145 -268 -197q-31 -16 -79 18.5t-77.5 83t-15.5 68.5z" />
<glyph unicode="2" horiz-adv-x="903" d="M-1 44.5q-1 44.5 13 96.5t35 68q13 10 56.5 42t57.5 43t52.5 41.5t54.5 46.5t49 47.5t50.5 55t45.5 60t46.5 70.5t40.5 78t41 91q38 95 44.5 193.5t-26 167t-98.5 69.5q-44 1 -74 -38.5t-36.5 -96t12.5 -121.5t63 -108q41 -47 -3 -116q-35 -53 -87 -74q-51 -19 -74 16 q-38 59 -63.5 124.5t-36 128t-9 125t16.5 116.5t39.5 101.5t61 80.5t81 53.5t99.5 19.5t116 -20q85 -29 138 -103t69 -173t-3 -219.5t-69 -239.5t-138 -237t-202 -208q95 7 267 39q44 8 45 -44q1 -61 -45 -143q-38 -69 -66 -69q-63 0 -164 -1.5t-221.5 -3.5t-161.5 -3 q-16 0 -17 44.5z" />
<glyph unicode="3" horiz-adv-x="890" d="M0.5 392q3.5 73 22.5 143q13 35 53 42t80 -7.5t68 -43t20 -57.5q-12 -45 -16 -88t0.5 -84t26.5 -68t60 -32q57 -8 101.5 17.5t67 71t31 102t0.5 108.5t-33 91.5t-62 49.5q-31 8 -74 8q-18 0 -31.5 25t-17.5 61t-1.5 71.5t19 60.5t43.5 24l15 -1q15 -1 28.5 -1.5t28.5 0.5 q82 7 131 90q43 73 29 143q-12 66 -73 73l-7 1q-34 2 -79 -17t-75 -63q-25 -37 -73 0q-47 35 -67 96q-20 65 17 101q75 69 148.5 92t155.5 20q72 -3 126.5 -40.5t82.5 -95t36.5 -129.5t-5.5 -142.5t-51 -137t-93 -110.5q50 -53 77 -132.5t28 -164.5t-26.5 -170.5t-77 -152 t-133 -107.5t-186.5 -39q-85 2 -149 36t-99.5 89t-52.5 124.5t-13.5 142.5z" />
<glyph unicode="4" horiz-adv-x="919" d="M1 635q-3 45 22 80q492 585 630 690q30 18 68 17t71 -16t35 -32q-47 -180 -155 -698h12q30 1 55 -19.5t36 -50t11.5 -60t-18.5 -54t-53 -27.5q-15 -1 -43 -3t-43 -3q-57 -281 -62 -350q-5 -53 -68 -87q-61 -33 -109 -17q-41 16 -42 63q3 102 62 393q-189 15 -342 47 q-23 4 -43.5 43t-23.5 84zM258 690q25 -2 97 -6t98 -6q4 17 28.5 135.5t36.5 171.5q-32 -39 -124.5 -139.5t-135.5 -155.5z" />
<glyph unicode="5" horiz-adv-x="940" d="M6 416q7 34 32.5 55t57 22.5t60.5 -8t45 -37.5t8 -65q-19 -90 6 -140t76 -65q81 -24 142 46t99 206q19 73 12.5 126.5t-32.5 88.5t-60.5 51.5t-70 16t-62.5 -18.5q-40 -27 -86 -29t-81 16t-54.5 52t-11.5 74q24 108 81 285.5t97 273.5q11 31 33 43t63 8q269 -23 443 2 q45 7 45 -45q1 -60 -45 -143q-30 -53 -53 -62q-32 -12 -90.5 -10.5t-114.5 9t-113 20.5q-17 -47 -49.5 -151t-40.5 -128q76 23 152.5 6t138.5 -76.5t86 -166t-6 -262.5q-48 -230 -182 -337.5t-320 -58.5q-108 30 -168.5 145t-36.5 257z" />
<glyph unicode="6" horiz-adv-x="839" d="M2 432q11 111 46 240.5t92 263.5t144.5 256.5t190.5 200.5q71 54 147 9q53 -32 69.5 -85.5t-23.5 -75.5q-237 -139 -338 -377q106 18 187.5 -6t128 -78.5t69.5 -123.5t22 -146q-2 -93 -32.5 -185t-83 -167t-133.5 -119.5t-175 -38.5q-161 10 -244.5 127t-66.5 305z M212.5 378q-0.5 -56 19.5 -100.5t59 -58.5q43 -14 85.5 -1.5t74 48t56.5 81t33.5 97.5t5 98t-28.5 82t-68 50q-50 16 -95.5 -6t-75.5 -68.5t-47.5 -106t-18 -115.5z" />
<glyph unicode="7" d="M-0.5 1367.5q3.5 51.5 27.5 59.5q124 -24 248 -25.5t198.5 9.5t132.5 16.5t75.5 -9.5t2.5 -64q-58 -191 -154 -561q12 2 41 2q29 -2 46 -24t19 -53.5t-4.5 -63.5t-25 -58t-43.5 -33q-38 -8 -96 -4q-96 -375 -107 -459q-8 -52 -71 -83q-61 -29 -108 -10q-40 16 -38 65 q11 124 111 508q-35 6 -68 14q-34 8 -51 57.5t-11.5 97.5t28.5 56h159q14 51 53.5 193t53.5 196q-167 -39 -350 8q-34 8 -53 61t-15.5 104.5z" />
<glyph unicode="8" horiz-adv-x="876" d="M0 358.5q-1 87.5 23 170t73 156t115 116.5q-35 52 -47 122.5t-3 142.5t41.5 141t81.5 120.5t122.5 78t158.5 15.5q79 -11 131.5 -67t67 -136.5t4 -167t-54 -167.5t-109.5 -129q43 -57 61.5 -141t12.5 -172.5t-38 -174t-83.5 -149.5t-131.5 -96t-175 -15q-83 14 -141 67 t-83 125.5t-26 160zM180.5 334.5q0.5 -45.5 22 -81.5t61.5 -50q60 -21 110 16t74 105.5t32 143t-13 135t-64 73.5q-30 9 -63.5 -8.5t-61.5 -54t-52.5 -83.5t-35 -98.5t-10 -97zM363 1067q-14 -62 1 -125t60 -88q75 0 127 84t46 172t-73 98q-60 9 -103.5 -35t-57.5 -106z" />
<glyph unicode="9" horiz-adv-x="774" d="M18 1063q43 172 158 272q145 127 336 72q212 -63 199 -385q-6 -112 -37.5 -245.5t-84.5 -273t-139 -267.5t-188 -205q-72 -54 -141 -14q-48 27 -60 76q-13 50 27 73q74 42 125.5 85.5t106 121.5t100.5 190q-87 -32 -182 -6q-149 39 -208 189q-55 143 -12 317zM191 882 q4 -46 28.5 -82t67.5 -50t83.5 0.5t68.5 50t50 82t29 98t4 97t-23 80t-53 46.5q-44 14 -86 1.5t-74 -47.5t-56.5 -80.5t-33.5 -97.5t-5 -98z" />
<glyph unicode=":" horiz-adv-x="514" d="M161.5 85.5q-2.5 15.5 2.5 33.5q16 99 106 86q49 -9 72.5 -42t15.5 -75q-7 -45 -39 -71t-81 -13q-13 4 -20 6.5t-18.5 7t-16 9.5t-12 14t-7.5 19t-2.5 25.5zM202 334q2 16 3 39q16 97 106 84q49 -7 72.5 -40.5t15.5 -76.5q-7 -45 -39 -70.5t-81 -11.5q-15 4 -23.5 6.5 t-20.5 8.5t-16.5 13t-11.5 19.5t-5 28.5z" />
<glyph unicode=";" horiz-adv-x="514" d="M98.5 -196.5q-9.5 20.5 14.5 40.5q28 26 51 75t24 114q-5 79 44 103q40 19 77 -11q49 -40 34 -121q-1 -2 -1 -4q-16 -45 -37.5 -79.5t-39.5 -54t-44.5 -35.5t-39.5 -21t-36 -13q-37 -14 -46.5 6.5zM201 354q16 99 106 86q49 -7 72.5 -40t17.5 -76q-7 -45 -39 -71t-82 -13 q-31 9 -45.5 16.5t-25 31.5t-4.5 66z" />
<glyph unicode="=" horiz-adv-x="770" d="M98 52q-5 52 16 104.5t54 54.5q155 5 387 0q27 -10 27.5 -56t-28.5 -99t-65 -56q-32 -1 -172 0.5t-184 -0.5q-30 0 -35 52zM176 386q-5 52 16 104t54 53q119 6 387 0q27 -10 27.5 -56t-28.5 -98.5t-65 -54.5q-29 -2 -172 -0.5t-184 0.5q-30 0 -35 52z" />
<glyph unicode="?" horiz-adv-x="978" d="M100 900q-17 145 70 289q82 136 212 196q163 75 327 -9q79 -41 123.5 -111.5t48 -154.5t-24 -172.5t-93.5 -173t-159 -146.5q-66 -44 -111.5 -123t-62 -150t-14.5 -128q1 -23 -45 -26.5t-93 15t-49 50.5q35 335 324 549q72 56 110.5 128t28.5 140.5t-74 106.5 q-43 26 -90 28t-85.5 -17t-72 -49.5t-52 -72t-25 -83t9 -83.5t51.5 -72q26 -22 34.5 -52.5t0 -56.5t-25.5 -48t-43 -26.5t-52 7.5q-149 82 -168 245zM178 51q14 46 37 158q29 -16 63.5 -26.5t73 -14t66.5 9.5q-22 -97 -37 -137q-13 -33 -62.5 -40t-94 9t-46.5 41z" />
<glyph unicode="@" horiz-adv-x="1433" d="M219 554.5q36 179.5 137 315.5q68 91 176 151.5t225 79.5t238 -14t209 -118q96 -92 124 -237t-10 -297.5t-128 -282.5q-132 -184 -281 -144q-41 10 -70 48t-36 79q-52 -83 -111.5 -114.5t-136.5 -16.5q-81 16 -118.5 97.5t-6.5 224.5q15 101 74 305q26 83 73.5 135 t99 66.5t101.5 8t88 -34t52 -65.5q3 11 12 40.5t12 39.5q6 17 30.5 22t52.5 1t54 -13q42 -14 73 -40.5t30 -61.5q-106 -291 -138 -391q-31 -102 -3 -128q17 -16 49 11l2 2q56 59 92.5 150.5t46 186t-14 185.5t-79.5 146q-72 71 -175.5 96t-204 6t-191 -76.5t-140.5 -142.5 q-51 -89 -78.5 -194t-28.5 -212t37.5 -210t116.5 -178q125 -118 312 -124.5t325 109.5q26 22 57.5 10.5t38.5 -38t-16 -50.5q-111 -95 -255.5 -128t-289 4.5t-250.5 138.5q-123 117 -167.5 295t-8.5 357.5zM668 338q-29 -92 3 -123q25 -24 64 10q34 31 58 92q31 91 65 205 q13 51 -10 83t-59.5 18t-57.5 -76q-12 -37 -35.5 -116.5t-27.5 -92.5z" />
<glyph unicode="A" horiz-adv-x="997" d="M1 1169q-1 14 -1 28q0 35 8 73q12 52 39 78q279 93 650 93q62 0 126 -3q37 -2 67.5 -7t66 -18t57.5 -33q24 -20 36 -56q8 -23 8 -51q0 -15 -3 -32q-51 -240 -316 -1208q-12 -23 -46 -29q-15 -3 -29 -3q-20 0 -40 5q-35 8 -62.5 25t-26.5 35q33 148 120 505 q-70 -2 -217 -2q-130 -488 -143 -538q-15 -29 -67 -30h-4q-49 -1 -91 19q-44 20 -43 46q15 67 123 503h-61q-33 7 -48 57q-10 33 -10 65q0 17 2 33q8 48 31 54q70 6 141 8q53 208 99 388q-95 -13 -342 -72q-19 18 -24 67zM498 793q97 0 215 4q18 72 46 177.5t38 147.5 q5 23 -4 38.5t-29.5 22.5t-42.5 10.5t-50 1.5t-43.5 -3.5t-31.5 -3.5q-20 -89 -98 -395z" />
<glyph unicode="B" horiz-adv-x="1079" d="M2 130q-2 11 -1 20q0 26 10 52q13 36 43 60q23 19 48 19q7 0 15 -2q181 710 227 882q-41 -6 -192 -37q-19 18 -27 66q-4 22 -4 45q-1 27 5 55q10 52 36 76q193 44 350 62q105 12 200 12q47 0 92 -3q135 -9 211.5 -65t78.5 -158v-9q0 -176 -112 -335q-116 -163 -280 -235 q49 -15 91 -36t81 -52.5t61 -70.5q21 -38 31 -88q3 -17 4 -35q0 -34 -12 -72q-33 -116 -155.5 -192t-316.5 -88q-24 -1 -48 -1q-177 0 -399 76q-31 16 -37 54zM328 223q84 -9 159 -9h44q95 4 161 36q69 34 68 91q0 48 -56 83q-58 36 -137 50q-70 13 -145 13h-21 q-40 -147 -73 -264zM473 760q135 10 263 125q102 92 135 190q11 33 11 58q0 49 -42 70q-12 6 -27 9q-4 3 -46 0t-68 -5.5t-68 -7.5t-47 -5q-4 -21 -111 -434z" />
<glyph unicode="C" horiz-adv-x="1026" d="M4 557q44 442 270 682q82 88 172 136q90 49 167 55q29 2 55 2q44 0 81 -7q59 -11 101 -36q38 -25 80.5 -114t40.5 -140q-13 -97 -70.5 -197.5t-140.5 -175.5q-29 -20 -60 -20q-18 0 -37 7q-51 19 -84 67q-19 28 -19 48q0 15 11 27q148 155 148 221q0 17 -10 29 q-19 20 -46 24.5t-59 -7t-66.5 -35t-70.5 -62t-69 -86t-64 -109t-55 -129.5q-35 -105 -47 -191q-6 -45 -6 -82q0 -34 4 -62q10 -58 38 -95t66 -47q17 -5 35 -5q24 -1 51 7q48 14 97.5 51t101 103t94.5 153q14 30 44 36t61.5 -8.5t59 -36.5t41.5 -48t5 -43 q-62 -121 -140 -217t-168 -161t-184 -83q-33 -7 -67 -7q-61 0 -123 22q-119 46 -188 201q-54 122 -54 257q0 38 4 76z" />
<glyph unicode="D" horiz-adv-x="1081" d="M2 104q-2 13 -2 26q0 26 8 52q12 40 41 66q22 21 46 22q7 0 14 -2q81 315 237 895q-55 -6 -213 -39q-23 22 -23 83q0 17 2 37q8 92 48 132q221 62 414 62q48 0 94 -4q88 -7 160 -43.5t126 -108.5t78 -174q16 -68 16 -157q0 -45 -4 -93q-12 -148 -67 -323 q-24 -79 -50 -142.5t-67.5 -131.5t-91 -115.5t-121.5 -85.5q-71 -38 -157 -52q-49 -8 -108 -8q-44 0 -93 4q-115 10 -250 51q-31 11 -37 49zM322 227q40 -7 77 -7q111 0 203 62q122 84 186 293q64 206 64 342q0 19 -1 35q-10 144 -81 202q-51 42 -131 42q-30 0 -64 -6 q-22 -103 -108.5 -432t-144.5 -531z" />
<glyph unicode="E" horiz-adv-x="958" d="M1 156q5 50 28 59q13 1 41 4t43 4q38 151 75 291q-6 -1 -18.5 -2t-19.5 -2q-24 3 -30 53q-1 12 -1 25q0 40 13 80q17 54 50 67q52 6 66 8q23 86 61.5 235t42.5 165q-121 -29 -190 -49q-18 -6 -29 29q-10 31 -10 66q0 32 8 68q16 70 55 89q66 21 130.5 37.5t117.5 27.5 t111 18t98 11q41 4 91 4h44h34q28 0 71 -3t57.5 -4.5t51.5 -6.5t40 -5q19 -15 22 -53q1 -10 1 -21q0 -27 -6 -54q-8 -37 -23.5 -68t-30.5 -35q-8 -1 -67 -1q-30 1 -72 1h-11q-122 0 -237 -12q-7 -27 -45.5 -169.5t-62.5 -228.5q150 21 219 27h4q51 0 51 -57q0 -60 -48 -125 q-43 -59 -89 -66q-26 -3 -96 -11t-111 -13q-82 -287 -84 -295q319 24 336 26h5q50 0 91 -58q34 -48 34 -92q0 -10 -2 -20q-9 -45 -56 -53q-396 -36 -688 -47q-34 6 -52 56q-14 39 -14 79q0 10 1 21z" />
<glyph unicode="F" horiz-adv-x="735" d="M0 70q1 5 117 448q-6 -1 -18.5 -2t-18.5 -2q-24 2 -29 52q-1 11 -1 23q0 39 14 81q18 54 49 67q49 5 65 8q94 349 107 396q-49 -10 -189 -47q-17 -6 -27 26q-8 28 -8.5 61t8.5 72q17 70 54 90q64 20 127.5 35.5t116 26t108 17t95.5 10.5q41 4 89 4h43h33q28 0 69.5 -4 t57 -6t49.5 -6t39 -5q18 -16 21 -53q1 -10 1 -19q0 -27 -6 -55q-8 -37 -23.5 -67.5t-29.5 -34.5h-28h-107q-16 0 -32 1q-106 0 -211 -9q-70 -254 -111 -394q122 18 215 25h4q50 0 50 -56q0 -59 -48 -124q-43 -59 -88 -64q-161 -18 -203 -22q-118 -417 -149 -512 q-13 -23 -48 -29q-13 -2 -26 -2q-21 0 -43 6q-34 9 -61.5 27.5t-26.5 36.5z" />
<glyph unicode="G" horiz-adv-x="1085" d="M2 557q44 447 268 684q66 71 139 116t135 62t122.5 17t103.5 -12t76 -31q38 -25 81.5 -114t41.5 -140q-13 -96 -70 -197t-139 -178q-29 -19 -60 -19q-19 0 -38 7q-52 19 -84 67q-19 27 -19 47q0 15 12 27q146 158 146 222q0 19 -12 30q-35 31 -79 33q-4 1 -8 1 q-41 0 -84 -26q-47 -28 -93 -79t-88.5 -131.5t-73.5 -178.5q-53 -165 -53 -281q0 -78 24 -135q38 -91 123 -91h4q99 2 205 120q14 16 28 33q-99 -12 -202 -21q-26 -4 -29 39v13q0 54 28 113q23 48 52 56q280 31 450 37q49 0 73 -29q20 -25 20 -50q0 -6 -1 -11 q-4 -26 -26.5 -114t-53 -200t-40.5 -151q-20 -76 -83 -90q-14 -3 -26 -3q-33 0 -57 21q-23 19 -17 43q3 17 13.5 58t15.5 69q-114 -119 -239 -166q-62 -24 -124 -24q-61 0 -120 23q-119 44 -189 200q-56 126 -56 265q0 34 3 69z" />
<glyph unicode="H" horiz-adv-x="1107" d="M2 1216q-2 14 -2 29q0 46 24 93q24 46 56 57q162 36 288 36q36 0 69 -3q149 -14 228 -70q65 -46 65 -108q0 -13 -3 -27q-4 -15 -48.5 -178t-74.5 -277q37 1 111 2t106 2q120 463 137 535q15 48 85 74q39 15 70 15q26 0 48 -10q32 -14 32 -48q0 -6 -1 -13 q-71 -258 -193.5 -726.5t-152.5 -567.5q-16 -29 -68 -31h-7q-47 0 -87 18q-44 20 -43 43q17 79 125 496q-148 -4 -221 -4q-110 -396 -139 -520q-16 -28 -68 -29h-5q-49 0 -91 19q-43 20 -43 42q0 5 127 488q-13 0 -31.5 1t-24.5 1q-42 0 -62 47q-13 30 -13 62q0 16 4 34 q11 50 47 58q13 1 59.5 4t75.5 4q16 60 36.5 137.5t31 118.5t14.5 53q5 22 5.5 39t-4 30.5t-13 23.5t-23.5 17t-33.5 10.5t-45 4.5t-55.5 -0.5t-67.5 -6t-79 -10.5t-92.5 -14q-5 -1 -9 -1q-36 0 -44 50z" />
<glyph unicode="I" horiz-adv-x="974" d="M0 155q6 50 29 58q13 1 111.5 12.5t113.5 12.5q9 36 61.5 236t111 421.5t67.5 255.5q-8 -2 -147 -29.5t-183 -36.5h-3q-23 1 -33 53q-4 22 -4 44q0 37 10 76q16 64 54 77q280 98 597 98q110 0 225 -12q29 -2 32 -52v-15q0 -43 -14 -87q-17 -52 -37 -59 q-19 -3 -126.5 -11.5t-139.5 -12.5q-194 -708 -262 -932q205 12 274 18h8q57 0 99 -57q32 -44 32 -86q0 -11 -2 -22q-10 -47 -63 -54q-98 -10 -385 -30.5t-363 -20.5q-34 6 -51 56q-13 37 -13 75q0 12 1 24z" />
<glyph unicode="J" horiz-adv-x="780" d="M-238 -348.5q-17 27.5 9 49.5q117 47 231 144.5t203 224.5q174 250 313 1007q3 15 3 28q0 59 -58 70q-12 2 -30 2q-68 0 -220 -34q-23 -5 -73 -16q-64 -15 -99 -23h-4q-21 0 -33 52q-5 23 -5 48q0 36 11 77q18 69 68 93q196 56 373 58h12q169 0 271 -56q93 -49 93 -137 q0 -13 -2 -27q-10 -70 -48.5 -227t-95 -354.5t-135.5 -389.5t-153 -288q-119 -153 -296 -255q-156 -91 -255 -91q-14 0 -26 2q-37 15 -54 42.5z" />
<glyph unicode="K" horiz-adv-x="993" d="M-2 66q11 46 136.5 527t133.5 517q7 26 7 45q-1 21 -9 33q-16 24 -64 24h-12q-45 0 -112 -6q-20 12 -24 64q-1 10 -1 20q0 42 14 82q17 50 50 60q51 5 96 5q133 0 219 -45q101 -53 100 -138q0 -13 -2 -27q-15 -63 -96 -365q121 111 211.5 274t93.5 246q2 27 52 27 q9 0 20 -1q80 -6 141 -47q47 -32 47 -67q0 -10 -4 -20q-77 -215 -227 -391t-332 -271q108 -251 235 -397.5t257 -206.5q16 -7 16 -22q0 -18 -23 -46q-42 -50 -105 -76q-39 -16 -62 -7q-111 53 -242.5 224.5t-200.5 338.5q-93 -334 -106 -389q-12 -23 -47 -29q-14 -2 -29 -2 q-21 0 -41 4q-36 8 -63.5 26t-26.5 36z" />
<glyph unicode="L" horiz-adv-x="1056" d="M1 154q5 50 28 57q10 2 54.5 7.5t47.5 6.5q31 129 142.5 561.5t146.5 546.5q21 67 94 90q28 9 52 9q34 0 63 -17q38 -24 38 -66q0 -12 -3 -26q-22 -85 -72.5 -266.5t-96.5 -340.5t-92 -316t-47 -162q26 3 410 38h9q56 0 98 -55q32 -43 32 -84q0 -10 -2 -20 q-9 -47 -63 -54q-83 -10 -389 -35t-385 -26q-34 6 -52 54q-14 38 -14 76q0 11 1 22z" />
<glyph unicode="M" horiz-adv-x="1052" d="M0 66q23 94 336 1288q15 49 85 74q39 14 70 14q26 0 47 -9q33 -16 31 -53q17 -297 43 -514q56 81 128 192t126 196t60 94q30 46 102 61q24 5 43 5q40 0 61 -22q18 -19 13 -51q-33 -143 -184.5 -693.5t-174.5 -616.5q-12 -21 -46 -27q-14 -2 -29 -3q-20 0 -40 5 q-34 8 -61 25t-26 35q73 287 164 632q-88 -129 -150 -194q-19 -21 -52 -16.5t-65.5 20t-54 38.5t-16.5 40q6 10 22 30q-7 38 -24 146q-183 -673 -205 -731q-13 -21 -47 -27q-14 -2 -28 -3l-40 5q-34 8 -61.5 25t-26.5 35z" />
<glyph unicode="N" horiz-adv-x="1003" d="M0 68q31 133 332 1282q10 40 60 66q46 25 94 25h7q51 -2 66 -34q2 -9 19.5 -150t43 -347.5t42.5 -331.5q32 123 78.5 304.5t76 295t39.5 149.5q14 48 82 76q39 16 72 16q24 0 45 -9q34 -14 34 -49q0 -7 -1 -15q-32 -144 -180.5 -697t-170.5 -618q-13 -23 -57 -29l-22 -2 q-32 0 -66 12q-44 16 -59 45q-1 5 -4.5 16t-6 22t-4.5 22q-43 183 -106 669q-160 -606 -209 -751q-19 -32 -70 -33h-5q-48 0 -88 20q-42 22 -42 46z" />
<glyph unicode="O" horiz-adv-x="913" d="M0 386v34q0 108 19 226q22 136 71.5 273t116.5 246.5t162 183t200 83.5q8 1 18 1q57 0 144 -32q102 -37 121 -78q34 -77 45 -196q6 -60 5.5 -123.5t-5.5 -131.5q-11 -136 -52 -278t-104 -262t-163.5 -209.5t-223.5 -118.5q-16 -4 -35 -4q-36 0 -81 15q-69 23 -127.5 68 t-75.5 91q-31 86 -35 212zM214 322q10 -96 48 -148q78 12 151.5 77.5t128 158.5t93.5 207t53 222q8 57 8 111q0 48 -6 93q-13 96 -57 151q-76 -5 -148 -68t-124 -158t-90 -212q-39 -118 -53 -228q-8 -64 -8 -123q0 -43 4 -83z" />
<glyph unicode="P" horiz-adv-x="921" d="M1 1148q-1 14 -1 29q0 35 8 73q12 52 39 77q183 59 383 86q164 22 290 22q28 0 54 -1q144 -6 207 -35q46 -21 62 -139q6 -46 6 -86q0 -63 -15 -113q-36 -125 -95 -232.5t-127.5 -182.5t-145 -129.5t-148 -82t-135.5 -31.5q-71 -256 -109 -372q-12 -23 -47 -29 q-13 -2 -27 -2l-43 6q-35 8 -62.5 26t-26.5 36q22 93 82.5 329t122.5 473.5t73 280.5q-10 -2 -137.5 -30t-183.5 -40q-19 17 -24 67zM440 623q108 20 230 168q106 129 151 261q19 56 19 92q0 47 -31 63q-13 7 -33 7q-15 0 -52 -5.5t-83 -13t-57 -9.5q-15 -73 -144 -563z" />
<glyph unicode="Q" horiz-adv-x="935" d="M0 386v34q0 110 19 226q22 136 71.5 273t116.5 246.5t162 183t200 83.5q8 1 18 1q56 0 144 -32q102 -37 121 -78q48 -109 52 -288v-27q0 -168 -44 -358q-49 -206 -145 -361q12 -16 36 -50t37 -51q18 -24 18 -52q0 -29 -20 -62q-32 -51 -83 -66q-13 -4 -25 -4 q-35 0 -57 33q-6 9 -24.5 36t-27.5 42q-103 -86 -215 -111q-16 -4 -35 -4q-36 0 -81 15q-69 23 -127.5 68t-75.5 91q-31 86 -35 212zM224 313q7 -94 38 -139q99 17 187 115q-101 151 -121 188q-6 25 15 53t52.5 45.5t62.5 25.5t44 -7q13 -19 38.5 -56t37.5 -55 q66 131 100 268q29 113 29 214q0 22 -1 44q-8 121 -63 189q-76 -5 -147 -70t-122 -163t-88.5 -217t-53.5 -230q-10 -76 -10 -145q0 -31 2 -60z" />
<glyph unicode="R" horiz-adv-x="1038" d="M2 1156q-1 13 -1 27q0 35 9 73q13 52 39 77q182 58 384 85q170 23 301 23q24 0 47 -1q146 -5 210 -33q45 -21 61 -138q6 -45 7 -84q0 -64 -17 -114q-63 -221 -191.5 -374t-279.5 -226q97 -174 184.5 -265t209.5 -151q16 -7 16 -22q0 -18 -24 -46q-42 -50 -103 -75 q-26 -11 -45 -11q-10 0 -18 3q-114 54 -222.5 192.5t-185.5 306.5q-47 -175 -113 -370q-12 -23 -47 -29q-14 -2 -29 -2q-22 0 -42 4q-36 8 -63 26t-26 36q22 93 83.5 329t127 481.5t74.5 278.5q-28 -6 -321 -67q-20 18 -25 66zM446 635q108 20 230 167q107 129 152 260 q20 56 20 93q0 46 -31 62q-14 6 -33 6q-16 -1 -54 -6.5t-84 -13t-58 -9.5q-21 -104 -142 -559z" />
<glyph unicode="S" horiz-adv-x="974" d="M4 487q-4 12 -4 25q0 45 52 102q57 63 119 82q16 5 28 5q33 0 41 -33q47 -182 118 -280.5t144 -125.5q27 -10 47 -10q31 0 44 24q7 14 7 35q0 37 -25 95q-28 61 -84.5 158t-104 175.5t-89.5 164t-53 138.5q-6 31 -6 61q0 36 8 72q16 66 54 117t94.5 88t119.5 51 q32 7 65 7t69 -7q70 -14 132 -59q64 -47 110 -112t68.5 -134.5t32.5 -124.5t13 -110v-5q0 -54 -60 -84q-40 -20 -81 -20q-22 0 -45 6q-64 17 -66 76q-6 221 -94 309q-38 38 -77 38q-15 0 -30 -5q-49 -18 -60 -80q-2 -13 -2 -27q0 -49 27 -106q22 -46 91.5 -174t118 -223 t84.5 -207q27 -83 27 -139q0 -20 -3 -37q-30 -101 -120 -165q-68 -49 -139 -49q-22 0 -45 5q-75 4 -161 54t-158 121.5t-128 154t-79 153.5z" />
<glyph unicode="T" horiz-adv-x="569" d="M1 1163q-1 12 -1 23q0 38 10 78q13 52 39 77q80 25 163.5 42.5t151.5 27t144 13.5q76 6 126 6q6 0 12 -1q46 0 104 -3q65 -4 94 -6.5t78.5 -8.5t54.5 -6q18 -17 21 -53q1 -10 1 -20q-1 -27 -7 -54q-8 -37 -23.5 -67t-30.5 -35q-19 -1 -56 -1q-42 -1 -108 1q-57 2 -94 2 q-44 0 -64 -2q-16 -76 -84 -324.5t-148.5 -534t-80.5 -286.5q-13 -23 -48 -29q-13 -2 -27 -2l-43 6q-35 9 -62.5 26.5t-26.5 35.5q62 248 291 1097q-33 -4 -100 -16.5t-148.5 -29.5t-115.5 -23q-18 18 -22 67z" />
<glyph unicode="U" horiz-adv-x="999" d="M0 1271q-1 11 0 22q0 41 12 81q16 50 49 58q53 6 100 7q130 1 216 -47q102 -55 102 -142q0 -13 -2 -27q-4 -19 -227 -740q-22 -73 -22 -131q0 -66 29 -113q36 -57 100 -57q9 0 18 1q93 11 174 126q52 74 88 180q31 112 83.5 308.5t92.5 344t55 199.5q17 62 84 89 q31 13 57 13q24 0 44 -11q29 -15 29 -47q0 -10 -3 -21q1 -1 -57.5 -245.5t-140 -564t-129.5 -474.5q-18 -60 -72 -76q-20 -6 -38 -6q-31 0 -59 18q-39 24 -39 65q0 6 1 11q-26 -33 -68 -56q-43 -22 -91 -30q-31 -5 -63 -5q-17 -1 -37 1q-52 4 -100 25t-88.5 56.5t-65 90 t-30.5 126.5q-1 15 -1 31q0 60 17 132q37 157 112.5 397.5t78.5 251.5q5 25 5 43q0 23 -8 36q-14 23 -60 23q-2 0 -5 1q-45 0 -116 -9q-21 13 -25 65z" />
<glyph unicode="V" horiz-adv-x="745" d="M2 828q-4 50 -4 98q0 200 63 385q32 86 107 109q22 7 42 7q37 0 66 -23q34 -26 34 -66q0 -17 -6 -36q-2 -6 -5 -12q-35 -79 -58 -190.5t-29 -243.5q-1 -24 -2 -47q0 -110 25 -229q30 -144 97 -261q103 358 268 1053q14 56 78 62q10 1 20 1q54 0 99 -31q44 -30 44 -68 q0 -9 -3 -19q-64 -255 -194.5 -705t-190.5 -567q-25 -45 -87 -45h-8q-68 3 -106 49q-89 103 -160 314t-90 465z" />
<glyph unicode="W" horiz-adv-x="1085" d="M2 123q33 164 172 690t164 598q12 22 52 27q15 2 30 2q26 0 52 -6q42 -8 74.5 -25t31.5 -35q-9 -38 -100 -339.5t-130 -450.5q11 21 79.5 150.5t92.5 185.5q10 24 41 32.5t63 2.5t58.5 -25t30.5 -43q5 -26 5 -175.5t1 -183.5q31 114 90.5 335t94.5 350.5t42 150.5 q14 40 72 46q12 1 25 2q45 0 83 -19q42 -20 42 -48q0 -5 -1 -10q-48 -200 -172 -676t-157 -573q-16 -46 -74 -70q-37 -15 -72 -15q-21 -1 -41 5q-55 14 -61 70q-36 398 -41 540q-204 -413 -303 -567q-28 -45 -94 -49q-7 0 -15 -1q-57 0 -99 32q-38 28 -39 69q0 11 3 23z" />
<glyph unicode="X" horiz-adv-x="909" d="M6 115q66 156 377 655q-111 441 -129 563q-4 26 20 50.5t56.5 35.5t63.5 13.5t42 -15.5q22 -102 99 -403q196 305 264 391q19 25 55.5 23t71.5 -17.5t59.5 -40.5t20.5 -45q-99 -146 -392 -618q130 -476 158 -545q7 -17 7 -34q0 -37 -31 -75q-40 -50 -88 -53h-5 q-41 0 -61 43q-48 111 -129 416q-180 -298 -225 -393q-26 -53 -100 -63q-16 -2 -30 -2q-50 0 -84 27q-27 21 -27 52q0 16 7 35z" />
<glyph unicode="Y" horiz-adv-x="907" d="M10 729q110 432 185 621q19 48 95 69q34 9 62 9q35 0 62 -14q30 -16 30 -47q0 -9 -2 -19q-83 -292 -180 -586q-15 -53 -15 -97q0 -43 15 -77q28 -67 90 -82q26 -6 49 -6q53 0 93 32q58 46 100 173q13 35 92 317.5t96 335.5q17 49 91 67q28 7 51 7q36 0 62 -16 q24 -16 24 -41q0 -8 -2 -17q-27 -139 -103.5 -406t-120.5 -401q-29 -92 -91 -154.5t-133 -86.5q-55 -19 -111 -19q-17 0 -33 2q-43 -129 -70 -209q-18 -53 -78 -75q-29 -11 -56 -11q-28 0 -54 12q-44 19 -44 65q0 6 1 13q9 56 73 256q-54 19 -102.5 73.5t-73.5 139.5 q-12 45 -12 90q0 41 10 82z" />
<glyph unicode="Z" horiz-adv-x="976" d="M0 198q4 46 14 54q289 333 795 911q-77 4 -158 4q-189 0 -397 -20q-21 -4 -25 40q-1 13 -1 26q0 56 24 114q24 57 61 70q172 31 347 32h23q159 0 252 -13q100 -14 171 -34q32 -14 37 -62q1 -12 1 -24q0 -36 -11 -74q-15 -50 -37 -77q-94 -111 -354 -401t-441 -488 q323 -18 451 -23q50 -3 83 -67q23 -43 23 -82q0 -18 -5 -35q-13 -47 -62 -49q-148 6 -401.5 22t-348.5 25q-25 9 -35 57q-6 33 -7 64q0 15 1 30z" />
<glyph unicode="[" horiz-adv-x="1044" d="M109 -2q53 163 178 601.5t188 672.5q5 21 22 36t42 15h366q33 0 34 -60t-28 -119t-67 -57q-93 -5 -172 0q-41 -176 -129.5 -465t-167.5 -516q135 0 203 -6q26 -12 25 -56t-31.5 -93t-67.5 -49h-365q-54 0 -30 96z" />
<glyph unicode="\" horiz-adv-x="790" d="M100 1239q-3 58 54 72.5t117.5 -15t68.5 -79.5q14 -105 149 -586.5t199 -675.5q-2 -25 -51 -41t-103 -9t-67 40q-60 142 -205 641.5t-162 652.5z" />
<glyph unicode="]" horiz-adv-x="1040" d="M100 -33q1 73 37 129q27 42 58 41q93 5 172 0q41 176 129.5 465t167.5 516q-136 0 -203 6q-26 12 -25 56t31.5 93.5t67.5 49.5h364q55 0 31 -96q-53 -164 -179.5 -606.5t-187.5 -667.5q-5 -21 -21.5 -36t-41.5 -15h-367q-35 0 -33 65z" />
<glyph unicode="`" horiz-adv-x="825" d="M307 1000q24 28 56 24q24 -2 34 -27q19 -35 55 -60.5t60 -31.5q11 -3 17 -11t0.5 -16t-21.5 -10q-117 -13 -197 62q-33 35 -4 70z" />
<glyph unicode="a" d="M-29 326q20 118 74 305q27 83 75 135q46 54 98 68q36 10 71 10q16 0 31 -2q50 -6 88 -34.5t53 -66.5q11 45 22 82q6 16 31 20.5t53.5 0.5t55.5 -13q42 -14 72.5 -40.5t29.5 -61.5q-110 -304 -137 -391q-18 -59 -18 -92q0 -26 11 -36q6 -5 13 -5q22 0 59 48q24 33 49 81 q58 119 64 133q17 23 43 24t47 -19.5t14 -45.5q-63 -171 -137 -274q-65 -86 -133 -126q-43 -25 -91 -26q-27 0 -56 8q-41 10 -70.5 48.5t-36.5 78.5q-54 -84 -113 -115q-40 -21 -87 -21q-23 0 -48 5q-82 16 -119 98q-21 46 -21 110q0 51 13 114zM209 338q-14 -44 -14 -74 q0 -33 17 -49q10 -10 23 -10q18 0 41 20q34 30 58 92q10 25 35 104.5t30 100.5q5 19 5 35q0 29 -15 49q-16 22 -38 23q-9 -1 -21 -5q-36 -14 -58 -75q-35 -128 -63 -211z" />
<glyph unicode="b" horiz-adv-x="792" d="M-42 260q-2 17 -2 36q0 57 15 128q21 86 141 489t148 486q5 16 29.5 20.5t52.5 0.5t55 -13q41 -12 72.5 -39.5t30.5 -62.5q-24 -61 -150 -453q26 6 54 6q10 0 21 -1q39 -3 77 -11t74 -31t64.5 -54.5t48 -81.5t26.5 -112q61 10 108.5 46.5t69.5 99.5q12 21 30.5 26.5 t26 -7.5t-1.5 -42q-32 -108 -95 -176t-144 -94q-17 -73 -31 -117q-30 -87 -80.5 -150t-107 -95t-120.5 -46q-52 -12 -99 -12q-9 0 -19 1q-56 3 -105 19q-42 13 -79.5 41.5t-70.5 78.5t-39 120zM204 300q12 -78 75 -101q27 -9 51 -10q47 0 87 35q60 52 77 167h-11 q-61 1 -133 21q-78 22 -121 61q-29 -71 -28 -133q0 -21 3 -40zM295 623q29 -42 110 -69q47 -15 97 -17q-17 69 -71 103q-46 29 -102 29q-10 0 -20 -1q-38 -11 -14 -45z" />
<glyph unicode="c" horiz-adv-x="583" d="M-40 287q-3 23 -4 47q0 50 13 108q19 84 63.5 177t96.5 155q51 49 143 63q41 6 80 6q48 1 90 -9q77 -18 97 -50q15 -22 15 -65q0 -37 -12 -91q-26 -114 -79 -169q-27 -18 -61 -18q-16 1 -34 5q-54 14 -61 50q39 54 57 120q8 29 8 48q0 23 -12 28h-6q-36 0 -78 -64 q-46 -70 -81 -200q-11 -41 -11 -79.5t9.5 -67.5t26.5 -53.5t40.5 -37t49.5 -18t55.5 3t57.5 27t56 53t51 80.5q55 113 62 131q18 23 44 24t47 -19.5t15 -45.5q-64 -164 -133 -270q-32 -52 -80.5 -88.5t-101.5 -52t-110.5 -15.5t-109 20.5t-96 55.5t-71 89t-36.5 122z" />
<glyph unicode="d" d="M-31 330q22 140 72 303q20 75 64 127t96 70q47 17 94 16h11q52 -2 94.5 -31t60.5 -76q121 411 135 455q5 17 30 22t53 1t54 -13q42 -14 73 -40.5t30 -61.5q-22 -61 -123 -368t-127 -392q-19 -60 -19 -94q0 -26 11 -38q6 -6 14 -6q21 0 55 44q25 32 51 82q38 77 66 141 q14 25 42 25.5t48.5 -20t13.5 -46.5q-52 -156 -137 -272q-64 -88 -129 -127q-46 -28 -101 -28q-22 0 -46 5q-80 14 -111 133q-54 -84 -112 -115q-39 -21 -88 -21q-23 0 -48 5q-82 16 -119 97q-21 45 -21 110q0 51 13 113zM207 342q-14 -44 -14 -73q0 -33 17 -49q10 -9 23 -9 q19 0 42 21q34 30 57 90q46 124 59 170v2q12 36 12 65q0 35 -18 58q-15 20 -35 20q-12 0 -25 -7q-34 -18 -55 -77q-35 -128 -63 -211z" />
<glyph unicode="e" horiz-adv-x="587" d="M-33 444q23 109 53 182.5t80 133.5q46 49 118 71q59 18 113 19q11 0 23 -2q64 -4 116 -22t67 -42q14 -23 14 -66q1 -15 -1 -32q-6 -67 -34 -133q-16 -39 -35 -75t-49.5 -75t-65.5 -65q-34 -28 -81 -42q-32 -10 -66 -9q-16 0 -33 2q0 -5 -1 -10q0 -60 57 -90 q32 -17 69 -17t78 17q92 39 146 147q48 98 61 131q18 23 43 24t44.5 -19.5t12.5 -45.5q-67 -169 -133 -270q-43 -70 -112 -110t-142 -46q-14 -1 -28 -1q-59 0 -117 22q-72 27 -123 80t-73 143q-11 46 -12 96q0 50 11 104zM205 473q20 -9 38 -8q58 0 99 86q26 51 30 92 t-14 49q-3 1 -7 1q-32 1 -69 -51q-41 -56 -77 -169z" />
<glyph unicode="f" horiz-adv-x="452" d="M-526 -291q6 42 22 85.5t53 89.5t85 87t117 79t151 65q30 82 57 174t53 212t41 195t43.5 229t38.5 208q17 80 47.5 141.5t67.5 97t78 51.5q31 12 61 12q10 0 21 -1q39 -6 74.5 -31.5t61.5 -68t38 -106.5q9 -46 9 -98q0 -21 -1 -43q-6 -96 -26 -175t-49 -134t-69 -97.5 t-81.5 -68.5t-90.5 -45q-46 -212 -114 -395q68 12 121 40.5t87.5 70t55.5 79.5t39 87q16 46 57 47q35 2 50 -27q10 -19 1 -43q-31 -84 -69.5 -147t-79.5 -103.5t-94.5 -68.5t-105 -42.5t-120.5 -25.5q-93 -202 -208 -322.5t-244 -140.5q-6 0 -17 -1t-16 -1q-9 -1 -18 -1 q-40 0 -71 12q-38 14 -48 48q-10 24 -10 52q0 11 2 24zM-342 -268q85 65 156 188q-79 -63 -131 -125q-34 -43 -34 -59q0 -8 9 -4zM309 692q139 103 152 338q2 41 -10.5 56t-28.5 0t-25 -52q-47 -203 -88 -342z" />
<glyph unicode="g" horiz-adv-x="770" d="M-121 -377q-10 30 -10 62q0 64 42 133q63 104 220 182q-13 0 -37 4q-81 16 -118 98q-21 44 -21 107q0 52 14 117q20 118 74 305q26 83 73.5 135.5t99.5 67.5q35 10 70 10q16 0 31 -2q50 -7 88 -35t52 -66q1 1 2 4.5t2 4.5q3 32 6 43q1 50 68 52h3q65 0 125 -38 q50 -32 50 -67v-5q-58 -364 -146 -557q66 25 122 92.5t93 157.5q25 59 68 59h1q33 0 46 -31q8 -21 0 -44q-104 -293 -371 -375q-6 -2 -22 -6q0 -1 -1 -3t-1 -3q-93 -199 -208.5 -318t-244.5 -139q-18 -3 -37 -3q-31 0 -65 7q-56 13 -68 51zM55 -279q87 69 156 189 q-79 -60 -131 -125q-34 -43 -34 -60q0 -8 9 -4zM199 332q-7 -35 -7 -63q0 -48 21 -72q12 -14 28 -14q19 0 42 22q35 34 65 112q58 169 66 205q6 30 0 57t-25.5 40t-41 15.5t-45.5 -17t-40 -56.5q-31 -71 -63 -229z" />
<glyph unicode="h" horiz-adv-x="641" d="M62 738q152 604 171 661q5 16 29.5 20.5t53 0.5t55.5 -13q41 -12 72 -39.5t30 -62.5q-14 -37 -157 -470.5t-150 -457.5q16 31 95 209t97 213q26 47 117 47q59 0 106 -24q44 -23 44 -56v-4q-5 -19 -74 -201.5t-80 -220.5q-17 -56 -17 -89q0 -29 13 -40q5 -5 13 -5 q22 0 59 47q25 34 51 83q47 96 61 133q18 23 43 24t45 -19.5t13 -45.5q-76 -196 -134 -274q-25 -34 -47 -59.5t-50 -49t-54 -34.5t-57 -10.5t-62 15.5q-64 30 -80 126q-5 30 -4 63q0 72 23 157v-4q-156 -326 -170 -340q-33 -17 -73 -17h-12q-47 3 -86 31q-38 27 -38 64 q-1 25 154 642z" />
<glyph unicode="i" horiz-adv-x="374" d="M-31 328q12 81 67.5 271.5t72.5 223.5q11 25 54 25h3q41 0 76 -14q42 -14 72.5 -41t29.5 -62q-110 -304 -137 -391q-18 -58 -18 -92q0 -26 11 -36q6 -5 13 -6q22 0 58 47q25 33 51 83q27 47 63 133q17 23 41.5 24t44 -19.5t12.5 -45.5q-72 -193 -131 -274 q-66 -90 -134 -130q-40 -24 -85 -25q-30 0 -61 11q-74 25 -101 109q-14 44 -14 98q0 51 12 111zM171 927q-10 26 -10 51q0 27 11 54q23 59 78 82q23 9 48 9q37 0 79 -19q13 -29 -4 -49q33 -13 51 -51q10 -21 10 -45q0 -20 -6 -41q-18 -56 -74 -76q-23 -8 -47 -8 q-32 0 -63 16q-53 24 -73 77zM264 966.5q6 -15.5 23 -22.5q17 -8 33 -4.5t22 18.5q7 16 -8 33t-31 21q-9 9 2 20q-28 -4 -41 -35q-6 -15 0 -30.5z" />
<glyph unicode="j" horiz-adv-x="366" d="M-540 -299q5 42 21 85.5t53 89.5t85.5 87.5t118 79.5t151.5 66q108 277 168 686q1 52 68 53h3q65 0 125 -38q50 -33 50 -69q0 -236 -141 -551q0 -2 -6 -14q72 29 129 96.5t94 155.5q24 59 65 59h3q31 0 43 -31q7 -21 -1 -44q-30 -85 -74.5 -152.5t-96 -111t-101 -71 t-102.5 -44.5q-4 -1 -11.5 -3t-11.5 -3l-2 -2q-93 -199 -208 -318t-242 -137q-18 -3 -36 -3q-32 0 -66 9q-54 12 -68 49q-11 25 -11 55q0 10 1 21zM-364 -272q0 -8 10 -4q86 69 155 188q-76 -58 -131 -123q-32 -40 -34 -61zM103 937q-10 26 -10 51q0 27 11 54q23 59 78 82 q23 10 50 10q35 0 77 -18q12 -28 -4 -51q34 -13 51 -50q10 -21 10 -45q0 -19 -6 -40q-18 -57 -74 -76q-24 -9 -48 -9q-31 0 -62 15q-53 24 -73 77zM196 978q6 -17 23 -24q15 -8 32 -4t23 19q7 16 -8.5 33t-32.5 20q-5 10 5 20q-30 -4 -41 -32q-7 -15 -1 -32z" />
<glyph unicode="k" horiz-adv-x="651" d="M-92 100q3 34 154.5 637.5t170.5 663.5q5 16 29.5 20.5t53 0.5t55.5 -13q41 -11 72 -39q30 -27 30 -61l-32 -111q-28 -98 -77 -270.5t-88 -306.5q25 18 50 39.5t50.5 48t41.5 44t42 47t32 36.5q17 20 36 20q24 0 51 -30q40 -45 51 -107q4 -26 -1 -41 q-24 -71 -103.5 -133.5t-173.5 -87.5q17 -92 39 -149t46.5 -77.5t52 -13.5t54 38t52.5 83q27 47 63 133q17 23 41.5 24t44.5 -19.5t13 -45.5q-72 -193 -131 -274q-69 -92 -137 -132q-38 -23 -78 -22q-32 0 -66 14q-45 18 -91 91t-77 186q-76 -242 -100 -275 q-11 -18 -39.5 -19t-57.5 11t-51.5 37t-21.5 53z" />
<glyph unicode="l" horiz-adv-x="378" d="M-31 328q44 176 152.5 599t128.5 484q6 16 30.5 20.5t52.5 0.5t54 -13q41 -12 73 -39q29 -25 29 -55v-6q-20 -57 -136.5 -459t-145.5 -508q-17 -58 -17 -92q0 -30 13 -43q6 -6 13 -6q22 0 59 48q23 30 47 77q27 47 63 133q17 23 41.5 24t44 -19.5t12.5 -45.5 q-72 -193 -131 -274q-66 -90 -134 -130q-40 -24 -85 -25q-30 0 -61 11q-74 25 -101 109q-14 44 -14 98q0 51 12 111z" />
<glyph unicode="m" horiz-adv-x="997" d="M-30 322q42 172 84 330.5t44 170.5q21 10 53 10h11q40 -2 81 -26t48 -59q-8 -38 -109 -371q16 31 97 209t98 213q15 29 60 40q28 7 56 7q17 0 35 -3q46 -7 81.5 -29t33.5 -52q-8 -35 -62 -200t-59 -185q16 31 97 209t98 213q15 29 60 40q28 7 55 7q18 0 36 -3 q46 -7 81 -29t34 -52q-7 -22 -76.5 -204t-81.5 -218q-17 -56 -16 -89q0 -29 12 -40q5 -5 13 -5q22 0 59 47q25 34 51 83q58 119 64 133q17 23 41.5 24t44 -19.5t12.5 -45.5q-80 -205 -131 -274q-26 -34 -48.5 -59.5t-50.5 -49t-54.5 -34.5t-57.5 -10.5t-62 15.5 q-67 32 -80 136q-3 25 -3 53q0 83 30 182q-37 -88 -102.5 -224t-75.5 -145q-33 -18 -73 -18h-10q-46 2 -86 32q-38 28 -38 64v2q6 71 49 279q-42 -93 -106.5 -221.5t-73.5 -137.5q-33 -17 -73 -17h-12q-47 3 -86 31q-38 27 -38 64q0 38 46 226z" />
<glyph unicode="n" horiz-adv-x="659" d="M-30 322q42 172 84 330.5t44 170.5q21 10 53 10h11q40 -2 81 -26t48 -59q-8 -38 -109 -371q16 30 98.5 207t100.5 213q24 47 104 47h13q59 0 105.5 -23.5t45.5 -58.5q-5 -17 -78 -200t-84 -222q-17 -56 -17 -89q0 -29 13 -40q5 -5 13 -5q22 0 59 47q25 34 51 83 q51 106 62 133q18 23 43 24t44.5 -19.5t12.5 -45.5q-78 -199 -133 -274q-25 -34 -47 -59.5t-50 -49t-54 -34.5t-57 -10.5t-62 15.5q-65 32 -81 127q-5 30 -4 62q0 71 23 157v-4q-156 -326 -170 -340q-33 -17 -73 -17h-12q-47 3 -86 31q-38 27 -38 64q0 38 46 226z" />
<glyph unicode="o" horiz-adv-x="745" d="M-28 476q39 171 152 274q104 95 238 95q30 0 62 -5q104 -14 166 -84t80 -174q37 11 88.5 48.5t75.5 82.5q11 21 28.5 26.5t26.5 -8.5t0 -43q-42 -134 -215 -237q-8 -92 -45 -178.5t-97 -153.5t-149 -99q-57 -20 -119 -20q-35 0 -71 6q-142 26 -202 166q-34 80 -34 174 q0 62 15 130zM172 392q-3 -19 -3 -37q0 -41 16 -77q24 -51 81 -67q70 4 120.5 54t72.5 122h-15q-76 1 -136 29q-66 32 -89 94q-37 -56 -47 -118zM354 618q-4 -14 -4 -26q0 -28 22 -44q30 -24 89 -24q1 8 1 16q0 49 -34 76q-20 16 -39 16q-18 0 -35 -14z" />
<glyph unicode="p" horiz-adv-x="657" d="M-163 -419q-11 15 -11 37q0 26 14 63q52 136 99.5 374.5t85 483.5t49.5 301q4 22 57 30q30 5 53 5q18 0 31 -3q56 -12 92 -45q-3 -21 -59 -315q91 208 137 285q28 47 117 47q59 0 105.5 -24t45.5 -60q-5 -17 -77.5 -199t-83.5 -221q-17 -57 -17 -90q0 -29 13 -40 q6 -5 13 -5q23 0 61 50q24 32 48 79q49 100 62 133q15 25 42 25.5t46 -20t12 -46.5q-76 -195 -133 -272q-67 -94 -132 -135q-35 -22 -71 -22q-33 0 -67 17q-65 33 -81 122q-5 30 -5 62q0 68 22 150q3 16 -6 13q-23 -9 -64 -84q-45 -81 -73 -181q-22 -63 -56.5 -165t-55 -157 t-42.5 -100q-36 -73 -96 -100q-23 -10 -40 -10q-22 0 -35 17z" />
<glyph unicode="q" horiz-adv-x="751" d="M-31 328q20 118 74 305q28 88 79.5 141t106.5 65q28 6 55 6q26 0 52 -5q51 -12 86 -45l4.5 22.5t5.5 24.5q4 23 56 30q28 5 51 5q19 0 34 -3q115 -24 117 -83q0 -1 -14.5 -61.5t-31 -130.5t-35.5 -156t-29 -140q-7 -32 -7 -53q0 -32 16 -38q3 -1 7 -1q28 0 73 72 q16 23 31 53q58 119 64 133q17 23 41.5 24t44 -19.5t12.5 -45.5q-72 -193 -131 -274q-55 -72 -108.5 -111.5t-114.5 -40.5q-42 -180 -166 -338q-54 -71 -124 -94q-22 -8 -38 -8q-27 0 -36 21q-4 9 -4 20q0 26 22 67q40 70 87 186t66 240q-74 -94 -175 -94q-21 0 -44 4 q-82 16 -119 98q-21 45 -21 110q0 51 13 114zM207 340q-14 -44 -14 -74q0 -33 17 -49q10 -10 23 -10q18 0 41 20q34 30 58 92q10 26 35 105t30 100q5 18 5 34q0 29 -15 49q-16 23 -39 23q-10 0 -20 -4q-37 -14 -58 -75q-38 -139 -63 -211z" />
<glyph unicode="r" horiz-adv-x="708" d="M-25 393q37 102 62 247t26 280q11 12 63 13h3q51 0 111 -39q62 -40 65 -103q-7 -10 -29.5 -32.5t-31.5 -33.5q15 -18 50 -18q18 0 42 5q68 14 110 56q81 78 168 78h6q59 -2 77 -36q8 -17 1 -36q-8 -20 -78 -214t-79 -220q-18 -58 -18 -91q0 -27 12 -38q6 -5 13 -5 q23 0 59 50q25 31 50 80q51 106 62 133q18 23 43 24t44.5 -19.5t12.5 -45.5q-75 -193 -133 -274q-64 -91 -132 -131q-41 -24 -85 -24q-30 0 -63 11q-74 25 -100 109q-14 45 -14 102q0 49 11 107q12 70 45 184q-44 -20 -93 -20q-15 0 -29 2q-66 7 -79 38q-7 -18 -29 -78 t-36 -94q-9 -21 -39 -23.5t-53 14t-15 42.5z" />
<glyph unicode="s" horiz-adv-x="593" d="M-70 291q50 90 93.5 269.5t44.5 361.5q11 12 64 14h4q51 0 112 -38q63 -40 67 -103q-8 -11 -77 -88q15 -19 62 -64t90.5 -88.5t91.5 -102.5t73 -110q41 85 61 129q17 23 41.5 24t44.5 -19.5t13 -45.5q-75 -191 -131 -274q-54 -74 -136 -118q-68 -37 -137 -38q-14 0 -28 2 q-103 1 -191 60t-125 141q-23 6 -34.5 36t-2.5 52zM84 342q15 -72 68 -125q31 -33 73 -39q13 -2 25 -3q28 0 50 11q32 15 48 48q8 17 7 35q0 17 -7 36q-11 34 -42.5 73t-87.5 93.5t-64 63.5q-8 -19 -31 -86.5t-39 -106.5z" />
<glyph unicode="t" horiz-adv-x="378" d="M-27 328q102 429 177 692q-38 3 -54 6q-31 6 -60 60q-22 41 -22 68q0 13 5 23q9 13 26 15q6 0 26.5 1t59.5 3t70 4q18 58 37.5 125t21.5 74q6 16 30.5 20.5t52.5 0.5t54 -13q41 -12 73 -39q30 -25 30 -55v-6q-2 -8 -29 -90q46 1 154 8h6q38 0 38 -31q0 -48 -66 -123 q-60 -68 -99 -70q-36 0 -101 3q-164 -513 -192 -664q-11 -54 -11 -87q0 -43 19 -47q2 -1 4 -1q26 0 73 77q14 24 30 54q27 47 63 133q14 24 42 25t48 -18t13 -44q-67 -184 -136 -278q-66 -90 -134 -130q-40 -24 -85 -25q-30 0 -61 11q-74 25 -101 109q-14 44 -14 98 q0 51 12 111z" />
<glyph unicode="u" d="M-31 328q14 80 69 270t71 225q11 25 55 25h3q42 0 75 -14q42 -14 74 -41q29 -25 28 -56v-6q-6 -17 -61 -171t-76 -220q-14 -44 -14 -74q0 -33 17 -49q10 -10 22 -10q18 0 41 21q34 30 59 91q16 39 80 265t71 239q11 25 57 25h3q44 0 78 -14q42 -14 72.5 -41t29.5 -62 q-110 -304 -137 -391q-18 -59 -18 -92q0 -26 11 -36q6 -5 13 -5q22 0 59 48q24 33 49 81q58 119 64 133q17 23 43 24t47 -19.5t14 -45.5q-66 -177 -137 -274q-67 -90 -135 -130q-40 -24 -84 -25q-30 0 -61 11q-85 28 -107 127q-54 -84 -113 -115q-40 -21 -87 -21 q-23 0 -48 5q-82 16 -119 98q-21 46 -21 110q0 51 13 114z" />
<glyph unicode="v" horiz-adv-x="770" d="M-39 156q-5 33 -5 71q0 112 40 263q54 201 145 321q32 34 115 34h18q90 -4 127 -37q24 -22 7 -48q-4 -8 -40 -66.5t-62 -108.5t-56 -118q-31 -67 -43 -131q-7 -35 -7 -65q0 -25 5 -48h6q26 0 58 24q36 27 59 58q61 86 106.5 203t75.5 236l31 118q6 15 31.5 21t58 0.5 t64 -17.5t53 -34.5t20.5 -49.5q-4 -24 -14 -59t-22 -74t-15 -51q-4 -15 12 -19t27 1q99 34 135 137q12 21 30.5 26t26 -8t-1.5 -43q-33 -107 -96 -175.5t-143 -92.5q-12 -3 -23.5 -4.5t-22 -2t-14.5 -1.5q-71 -147 -149 -244q-34 -39 -62.5 -64.5t-71 -53t-97 -41 t-120.5 -13.5q-43 0 -75.5 10t-51.5 24t-31.5 36.5t-18 41t-9.5 44.5z" />
<glyph unicode="w" horiz-adv-x="1169" d="M-39 156q-5 33 -5 71q0 112 40 263q54 201 145 321q32 34 115 34h18q90 -4 127 -37q24 -22 7 -48q-4 -8 -40 -66.5t-62 -108.5t-56 -118q-31 -67 -43 -131q-7 -35 -7 -65q0 -25 5 -48q15 -1 50 11t75 44.5t51 75.5q39 186 125 340q30 52 98 52q14 0 30 -2q71 -10 114 -52 q23 -23 23 -43q0 -9 -5 -18q-40 -56 -63 -91.5t-52 -91.5q-29 -58 -39 -114q-6 -35 -6 -71q0 -22 2 -44h5q25 0 57 25q36 28 59 59q62 86 108 206t74.5 230t32.5 119q5 16 30.5 22t58 0.5t64.5 -18t53.5 -35t20.5 -49.5q-6 -28 -26 -96t-25 -88q-5 -13 11 -17t26 1 q99 34 137 135q10 25 27.5 31.5t27.5 -9.5t1 -45q-64 -212 -240 -268q-31 -8 -59 -8q-71 -150 -152 -244q-34 -39 -62 -64t-70 -52t-96 -40.5t-120 -13.5q-127 0 -168 84q-67 -44 -130 -63t-103 -19q-53 0 -90.5 13t-56.5 38t-28 48t-14 55z" />
<glyph unicode="x" horiz-adv-x="1007" d="M-20 418q8 19 26.5 65t32.5 78.5t36.5 79t46.5 78.5t53.5 63t66 47.5t77.5 18.5h11q133 0 213 -92q3 3 8 10t8 10q51 49 143 63q41 6 80 6q48 1 90 -9q77 -18 97 -50q15 -22 15 -65q0 -37 -12 -91q-26 -114 -79 -169q-28 -19 -62 -19q-16 0 -34 4q-55 14 -60 52 q39 57 56 120q7 27 7 45q0 23 -12 31h-6q-34 0 -76 -64q-46 -70 -81 -202q-11 -41 -11 -79t10 -67t26.5 -53.5t40 -37t50 -18t56 3t57.5 26.5t56 52.5t51 80.5q31 64 61 131q15 25 41.5 25.5t45 -19.5t11.5 -45q-59 -159 -131 -270q-53 -86 -141 -126q-69 -32 -141 -32 q-19 0 -37 2q-92 10 -162 66q-9 6 -19 16q-4 -8 -12 -16q-52 -52 -137 -64q-28 -4 -54 -5q-56 0 -104 18q-72 26 -94 75q-24 53 -24 117q0 25 4 53q13 96 67 152q29 18 63 18h3q31 0 59 -16t33 -41q-49 -55 -57 -125q-1 -12 -1 -23q0 -51 33 -71q5 -2 9 -2q29 0 70 66 q48 76 79 196q11 44 11 83q-1 49 -17 91q-30 76 -88 92v-2q-29 7 -55.5 -1t-50.5 -35t-40.5 -48t-38 -67.5t-28.5 -63t-25 -62.5q-5 -14 -8 -20q-9 -22 -39.5 -23.5t-53 16.5t-13.5 42z" />
<glyph unicode="y" horiz-adv-x="759" d="M-119 -375q-10 28 -10 58q0 69 53 147q74 111 232 176q-4 0 -12 1t-11 1q-88 17 -142 100q-36 55 -36 134q0 41 10 88q13 81 67.5 271.5t71.5 223.5q12 24 56 25h3q42 0 75 -14q42 -14 72.5 -41t29.5 -62q-6 -17 -61 -171t-76 -220q-11 -34 -11 -60q0 -40 25 -60 q17 -14 37 -14t43 14q48 30 72 100q63 181 100 473q1 50 68 52h3q65 0 125 -38q50 -32 50 -67v-5q-58 -368 -146 -555q0 -4 -2 -6q117 44 203 252q26 60 68 60h1q31 0 43 -31q8 -21 -1 -45q-29 -85 -72.5 -152.5t-94.5 -111t-100 -71t-102 -44.5q-4 0 -6 -2t-2 -6 q-92 -196 -208 -314t-245 -141q-23 -4 -47 -4q-30 0 -59 7q-52 13 -64 52zM57 -276q88 70 156 188q-71 -55 -131 -125q-34 -43 -34 -59q0 -8 9 -4z" />
<glyph unicode="z" horiz-adv-x="897" d="M-50 -301q6 42 22.5 85.5t53.5 89t85 87t118 79.5t152 66q24 60 43 123q4 11 -12.5 28.5t-39 36t-41.5 53.5q-18 33 -18 71q0 125 207 223q-23 27 -93 37q-27 4 -52 3q-39 0 -72 -9q-28 -10 -47 -21.5t-48 -40.5t-57 -86t-55 -141q-9 -23 -38 -25t-52 15.5t-16 42.5 q29 119 72.5 206.5t92.5 134t96 68t95 21.5h404q26 0 53.5 -25t44 -61t20.5 -78v-10q0 -35 -20 -64q-11 -15 -72.5 -37t-129.5 -57t-95 -82q-7 -14 4.5 -32t33 -36.5t42.5 -38.5t32.5 -43t4.5 -44q-4 -12 -8 -22.5t-9.5 -22.5t-9.5 -21q70 8 147 81.5t119 176.5q26 59 68 59 h1q32 0 44 -31q8 -21 0 -44q-29 -81 -70 -145t-83 -103.5t-94 -68.5t-95 -43t-94 -25q-94 -203 -209.5 -323.5t-245.5 -137.5q-23 -3 -44 -3q-33 -1 -63 7q-48 12 -63 51q-10 24 -10 53q-1 11 1 23zM127 -271q-3 -13 10 -8q89 71 154 189q-79 -60 -131 -125q-29 -33 -33 -56 z" />
<glyph unicode="{" horiz-adv-x="905" d="M100 59q-6 37 4.5 81.5t26 76t40.5 78.5q6 11 9 16q1 1 17 33t20 41.5t17.5 39t16.5 45t8.5 40t3.5 44t-9 36.5q-16 21 -8 57.5t33 48.5t40.5 35t22 48t7 61t-1.5 62t-6 63t-5 53q-7 81 2.5 139t50.5 105q36 42 97 61t116 0q77 -28 120.5 -85t72.5 -142q16 -43 -18.5 -84 t-76.5 -43.5t-65 35.5q-29 65 -55 91t-43 14.5t-26 -51t-7 -100.5q4 -229 -86 -335q42 -142 -76 -357q-65 -122 -42 -168q17 -34 67 -3q31 20 65 61q31 37 76.5 18t60 -62.5t-13.5 -82.5q-64 -64 -150.5 -102.5t-166.5 -12.5q-120 41 -138 145z" />
<glyph unicode="}" horiz-adv-x="901" d="M104 139q-16 43 18.5 84t76.5 43.5t65 -35.5q29 -65 55 -91.5t43 -15t26 51t7 100.5q-4 230 86 336q-42 142 76 357q65 122 42 168q-17 34 -67 3q-31 -20 -65 -61q-31 -37 -76.5 -18t-60 62.5t13.5 82.5q63 63 150.5 102t167.5 13q119 -40 137 -145q6 -37 -4.5 -81.5 t-26 -76t-40.5 -78.5q-3 -5 -5 -8.5t-4 -7.5q-1 -1 -17 -33t-20 -41.5t-17.5 -39t-16.5 -45t-8.5 -40t-3.5 -44t9 -36.5q16 -21 8.5 -57.5t-32.5 -48.5t-40.5 -35t-22 -48t-7.5 -61t1 -62t6 -63t5 -53q7 -81 -2.5 -139t-50.5 -105q-36 -42 -97 -61t-116 0q-77 28 -120.5 85 t-72.5 142z" />
<glyph unicode="&#xa1;" horiz-adv-x="739" d="M100 -350q13 154 114.5 551t156.5 540q13 33 65.5 41t100.5 -7t51 -40q-55 -187 -149 -569t-105 -488q-8 -52 -73 -83.5t-116 -12.5q-47 16 -45 68zM379 817q30 98 45 137q13 33 65.5 41t100.5 -7t51 -40q-21 -68 -43 -155q-100 37 -219 24z" />
<glyph unicode="&#xa2;" horiz-adv-x="694" d="M106 674q12 58 44 124t69 111q41 40 120.5 47.5t127.5 -12.5q4 4 4 8q12 26 30 12q22 -17 17 -53l-2 -8q11 -40 -7 -112t-52 -107q-17 -10 -33 -10q-42 -103 -78 -195q35 0 71.5 29.5t65.5 87.5q4 8 19.5 41.5t23.5 52.5q9 18 29 18.5t34 -13.5t9 -33q-51 -126 -94 -193 q-35 -58 -91 -86t-116 -25q0 -1 -1 -3t-1 -3q-11 -25 -32 -16.5t-23 35.5q-79 27 -119.5 106t-14.5 197zM266 662q-29 -101 23 -156q11 26 35 87t38 93q-16 10 -16 25q28 40 40 86t-3 55q-27 5 -59.5 -45t-57.5 -145z" />
<glyph unicode="&#xa8;" horiz-adv-x="882" d="M342 973q7 22 25.5 31.5t38.5 3.5q22 -8 31 -25.5t-1 -42.5q-5 -11 -8 -16t-10.5 -11.5t-16.5 -4.5t-26 5q-49 17 -33 60zM463 932q7 24 25.5 32.5t39.5 2.5q21 -8 31 -26.5t0 -41.5q-5 -10 -7 -13.5t-7.5 -9.5t-11 -7.5t-15 -1t-22.5 4.5q-46 16 -33 60z" />
<glyph unicode="&#xa9;" horiz-adv-x="1638" d="M291 1102q-8 40 3 81.5t44 67.5q32 23 74 45q2 1 13.5 6.5t15.5 8t13 9t13 12.5t8.5 15.5t5.5 20.5l-2 18q13 -10 24 -28.5t5 -34.5q-6 -13 -43 -39q-6 -4 -37 -24t-43 -30t-25 -30t-10 -41q5 -51 84 -35q42 9 72 37t58.5 69t47.5 58q57 45 86 53q62 14 124.5 -8 t92.5 -86q7 -14 8 -29.5t-2.5 -29t-11.5 -29.5t-17 -29.5t-22 -31.5q-1 -1 -8 -9t-7.5 -8.5t-5.5 -8.5t-2.5 -10.5t1.5 -12.5q3 -11 14.5 -19t22.5 -10q44 -7 98 18q8 5 30.5 18.5t35 20t30 12t31.5 3.5q35 -5 76.5 -36.5t48.5 -68.5q5 -30 -4.5 -79.5t-9.5 -65.5 q0 -11 17 -35.5t17 -38.5q0 -5 -11.5 -18.5t-10.5 -20.5q1 -5 7 -14.5t7 -14.5q2 -9 -9 -26.5t-9 -20.5q3 -5 9.5 -13t8.5 -11.5t4 -11.5t-4 -13q-8 -11 -12 -37q45 26 64 38t36.5 30.5t22.5 40.5q5 20 -6 24q-11 11 -19 -8l-3 -9t-4 -9.5t-5 -3.5q-6 3 -4.5 16t4.5 19 q9 18 25.5 18.5t23.5 -12.5q10 -21 3.5 -42t-19.5 -36q-9 -12 -47 -41q-45 -27 -72 -41q0 -8 2 -10q13 9 31 7.5t30 -13.5q32 -34 6 -76t-67 -25q-7 -38 -48.5 -65t-92.5 -37q-61 -14 -146 -10q-91 3 -133 71q-18 -30 -49 -35q-38 -7 -54 25.5t-1.5 67t49.5 32.5 q-6 27 -8 35q-54 15 -103 43q-21 16 -18 39q2 20 18 27.5t32 -2t19 -31.5q-2 -9 -10.5 -1.5t-18.5 16.5t-20 -3q-7 -10 -1.5 -20.5t18.5 -18.5q38 -20 75 -30q-4 8 -4 10q13 4 13 15.5t-11 19.5q-4 4 -17 9.5t-15 12.5q-5 11 11 29t9 31q-6 11 -30.5 25t-30.5 30 q-3 3 -1.5 9.5t1.5 9t3.5 8.5t5 8.5t5.5 8.5l6 9q14 14 6 28t-20 21.5t-29.5 17.5t-23.5 17q-28 28 -31.5 68.5t14.5 68.5q4 7 16.5 20t21 22.5t13.5 24t-6 23.5q-8 12 -22 9q-16 -4 -31 -13t-33.5 -22.5t-29.5 -20.5q-66 -42 -152 -16q-33 9 -60 29.5t-32 52.5zM299 1157 q-4 -77 41 -108q38 -26 89.5 -28t94.5 23q9 5 24.5 16t29 19.5t28.5 16t27.5 7t21.5 -10.5q11 -11 12.5 -21.5t-4 -20.5t-13 -18.5t-17.5 -19t-15 -17.5q-17 -24 -15.5 -64.5t28.5 -66.5q6 -7 27.5 -17.5t36.5 -24t14 -31.5q0 -12 -17 -32.5t-14 -33.5q7 -21 45 -37 q0 35 25 68t63 51q23 10 45 10q92 -15 141 -55q-12 99 -65 139q-11 8 -22.5 12.5t-25.5 4.5t-23 -1t-27 -4t-25 -4q-46 -4 -74 2q-25 4 -39 28.5t-12 51.5q2 34 53.5 89.5t59.5 72.5q10 21 8 42.5t-7.5 35.5t-11.5 22q-46 46 -90 35q-33 -7 -81 -42t-72 -64 q-24 -27 -58 -47.5t-65 -24.5q-37 -5 -53 4q-11 6 -20 20.5t-11 26.5q-1 34 22 59t66.5 51t58.5 40q15 15 17 24t-13 33q3 -28 -21 -48.5t-65.5 -42.5t-60.5 -40q-37 -33 -41 -80zM565 1212q25 21 36.5 30t36 25t41 21t38.5 5t41 -11q55 -28 53 -96q-1 -26 -19.5 -52 t-48 -55.5t-41.5 -48.5q-10 -21 -14 -39q0 -13 6 -32.5t13 -26.5q17 -17 36 -17q25 -6 99 7q47 5 61 0q83 -22 103 -168q18 70 92 182q13 18 28 32.5t32 24t34.5 6t30.5 -23.5q-4 34 -17 47q-12 15 -37 31t-45 22q-38 14 -82 -12q-99 -61 -153 -55q-17 2 -34 13.5t-21 31.5 q-5 20 28 53q55 63 49 113q-4 36 -32.5 64t-63.5 39.5t-67 10.5q-50 0 -89 -24q-67 -48 -94 -97zM720.5 615q-1.5 -4 2 -7.5t8.5 -6t12 -6.5t11 -7q19 -19 10 -41q-4 -4 -8 -4q1 -2 2 -5.5t2 -5.5q7 -2 20 -5t19 -5q3 98 49 162q-28 28 -30.5 63t16.5 60q-36 -7 -66.5 -38 t-38.5 -64q-1 -4 -1 -7.5v-5.5t1.5 -5t2.5 -4.5t3.5 -5t3.5 -5.5q15 -22 -10 -47q-7 -6 -8.5 -10zM725 443q-11 -30 4 -52q9 -13 26.5 -15.5t30.5 5.5q24 24 29 31q2 4 11 -14l1 -1q44 -53 121 -59q164 -11 248 53q33 24 31 55q0 5 -10 35q-5 15 -5 19q-4 13 -8 35 q-70 -38 -108 -54q-11 -5 -13.5 0t7.5 11q17 10 54 27.5t58 29.5q0 6 -1 20t-1 21q-2 10 -2 33q-1 4 -2 15.5t-2 16.5q0 5 -6 35q-3 7 -8 13.5t-9 9.5t-11 8.5t-9 7.5q7 4 11 9.5t5 13t1 12.5t-3.5 15t-4.5 14t-6.5 16t-6.5 14q-41 -22 -92 -61q-5 -4 -17 -13.5t-16 -11.5 q-8 -6 -18 4q-34 44 -119 62q-25 6 -33.5 3t-15.5 -20q-21 -41 22 -102q-41 -55 -49 -164l18 -6q29 -7 98 -17t83 -12q15 -2 14 -8q0 -4 -8 -4q-121 11 -205 31v-15q0 -44 -6 -47q-3 -3 -16.5 3.5t-16.5 11.5q-3 3 -6 16q-28 0 -39 -30zM739 412q-7 17 5.5 27t28.5 7t20 -18 q-2 -1 -8 -3t-8.5 -3.5t-6 -5t-5 -8.5t-1.5 -13q-13 18 12 37q-8 12 -22.5 3.5t-14.5 -23.5zM766 514q2 -8 5 -24.5t5 -24.5q7 -10 21 -10v51q-5 1 -15.5 4t-15.5 4zM780 270q0 13 6 19q5 8 17 8q2 0 5 -1t5 -1l6 -6v18l2 6q2 2 4 2q4 0 6 -2v-4v-59v-6q-1 0 -3 -1t-3 -1 q-2 2 -4 2q0 1 -1 3t-1 3v2q-1 -1 -2 -3t-2 -3q-1 0 -3 -1t-3 -1q-2 -2 -6 -2q-2 0 -5 1t-5 1q-1 1 -3.5 3t-3.5 3q-4 4 -4 8q-2 4 -2 12zM795 260l6 -6q1 0 3 -1t3 -1t3 1t3 1q4 4 4 6q2 2 2 10q0 7 -2 9q0 2 -4 6q-2 2 -6 2q-6 0 -6 -2l-6 -6v-9v-10zM844 268q0 11 2 15 q3 7 10 10q8 4 14 4q7 0 9 -2q4 0 8 -4l4 -4q2 -2 2 -6q0 -3 -2 -5q-1 0 -2 -1t-2 -1l-2 2q-1 0 -2 1.5t-2 1.5q0 2 -4 6q-1 0 -3.5 1t-3.5 1q-6 0 -10 -4q-4 -8 -4 -15q0 -4 2 -6q0 -4 2 -6q1 0 2 -1t2 -1q2 -2 6 -2q5 0 7 2l6 6q0 2 2 4h4q2 0 2 -2q2 0 2 -4v-4l-6 -6 q-1 -1 -3 -2t-3 -2q-2 0 -6 -1t-5 -1q-12 0 -20 8q-6 6 -6 18zM862 629q6 14 31 22t49 6q21 0 31 -10q3 -3 2.5 -11.5t-4.5 -12.5q12 -14 10 -36.5t-16 -37.5q-14 -16 -38 -26t-44 -7q33 7 47 19q-27 -5 -46 13t-12 46q6 24 39 39q-9 0 -26 -2t-23 -2zM887 598 q-10 -25 1.5 -40t33.5 -15q34 -3 48 30.5t-12 47.5q-2 0 -10 4h-12q-15 0 -29.5 -8t-19.5 -19zM901 270q0 1 1 5t1 6q2 4 6 8q3 3 9 6q2 0 5 1t5 1t6 -1t6 -1q1 -1 4 -3t4 -3q4 -4 4 -8q2 -4 2 -11q0 -8 -2 -12q0 -4 -4 -8q-1 -1 -4 -3t-4 -3q-2 0 -6 -1t-6 -1t-5 1t-5 1 q-6 3 -9 6q-1 1 -3 4t-3 4q0 2 -1 6t-1 6zM915 270q0 -7 3 -10q0 -2 4 -6q2 -2 6 -2q6 0 10 4q4 8 4 14q0 5 -4 13q-4 4 -10 4q-4 0 -6 -2q-4 -4 -4 -6q-3 -3 -3 -9zM930 582q3 10 12 10q10 0 10 -12q0 -3 -4 -6.5t-8 -2.5q-10 0 -10 11zM944 584q0 -2 2 -2q4 0 4 2 q0 4 -4 4q-2 0 -2 -4zM958 248q0 1 1.5 3t1.5 3l12 16l-10 15q-2 2 -2 6q0 2 2 4t4 2q2 -2 4 -2q2 -2 2 -4l8 -12l10 12l2 4q1 0 2 1t2 1l4 -2q3 -3 3 -4v-2q0 -1 -1.5 -2t-1.5 -2l-10 -15l10 -16l5 -6q0 -2 -2 -4q-1 0 -2.5 -1t-2.5 -1l-4 2l-4 4l-10 14l-8 -14l-4 -4 q-1 0 -2 -1t-2 -1t-2 1t-2 1q-3 3 -3 4zM981 508.5q-1 7.5 1 13.5t3 6q0 -20 6 -24q5 -1 14 3.5t17 4.5q5 -19 20.5 -15t22.5 19q11 -11 20 -2q7 4 0 18q13 -9 5 -22q-4 -6 -12.5 -6.5t-12.5 4.5q-11 -16 -23 -16q-8 -1 -14 2.5t-9 7.5l-3 4q-2 0 -11.5 -5t-17.5 -3 q-5 3 -6 10.5zM1010 229v2q2 2 4 2h2h2h4l2 3q2 2 4 6v2l-16 41q0 1 -1 3t-1 3l2 2q0 2 2 2q0 2 4 2q2 -2 4 -2q0 -1 1 -3t1 -3l10 -33l13 31q0 4 2 6q0 2 2 2l2 2q2 0 4 -2q2 0 2 -2v-2v-2q0 -4 -2 -4l-17 -45q-4 -8 -4 -11q-4 -4 -6 -4q-2 -2 -10 -2h-8q-2 2 -2 6z M1016 743q8 8 48 55.5t67 70.5t45 20q21 -4 36 -21q1 6 7 29t6.5 33.5t-2.5 32.5q-6 18 -23 26t-33 2q-14 -4 -32.5 -19t-24.5 -26q-29 -44 -45 -70t-31.5 -64t-17.5 -69zM1028 668q0 16 2 18q2 -16 2 -53q3 -46 15 -84q-4 7 -7.5 16t-5 17t-3 21t-2 20.5t-1 23.5t-0.5 21z M1036 457q0 8 19 16q21 4 24 -8q1 -3 -2 -3.5t-8 0t-10 -0.5t-11 -3.5t-7.5 -2.5t-4.5 2zM1036 758q34 29 80 61q4 2 11.5 7t12 7.5t12 6t11 3t8.5 -2.5q-12 -7 -12 -13q31 -57 6 -98q16 -12 25 -29.5t11 -29.5t4 -35t3 -31t2 -24.5t2 -24.5q2 1 6.5 3t6.5 3q0 11 4 31 q1 3 5.5 11.5t4.5 12.5q2 6 -0.5 11t-8 10t-7.5 8q-3 4 -4 7.5t1 8.5t3 7t6 8.5t6 7.5q6 11 -3.5 26t-10.5 21q0 7 11.5 21t10.5 20q-1 10 -15 29.5t-16 29.5q-2 3 -0.5 13.5t0.5 13.5q-3 11 -19 19t-28 6q-30 -5 -129 -125zM1042 446q-1 1 0.5 2t4.5 2.5t6.5 3t7.5 3.5 q22 4 22 0q0 -2 -2.5 -2.5t-8 -1t-9.5 -2.5q-5 -1 -11 -2.5t-7.5 -2.5t-2.5 0zM1061 250l2 4q2 2 6 2t4 -2q2 0 2 -4t-2 -6t-4 -2q-1 0 -3 1t-3 1q0 1 -1 3t-1 3zM1072 592.5q0 18.5 11 34.5q-5 4 -6.5 15t6.5 13q81 13 99 -26q-2 1 -6.5 2t-6.5 2l2 -4q11 -17 9.5 -38 t-17.5 -32q15 0 27 12q-2 -11 -21 -20q-53 -21 -84 10q-13 13 -13 31.5zM1083 601.5q-4 -16.5 7 -32.5q26 -31 58 -12q28 16 25 44q-2 21 -24 34q-23 0 -47 -6q-15 -11 -19 -27.5zM1090 268q0 11 2 15q3 7 10 10q8 4 14 4t8 -2q5 0 9 -4l4 -4q2 -2 2 -6q0 -3 -2 -5 q-1 0 -2 -1t-2 -1t-2.5 1t-2.5 1q0 3 -2 3q0 2 -4 6q-1 0 -3 1t-3 1q-6 0 -10 -4q-4 -8 -4 -15q0 -4 2 -6q0 -4 2 -6t4 -2q2 -2 6 -2t6 2q4 4 4 6l4 4h3q4 0 4 -2q2 0 2 -4q0 -2 -2 -4q0 -2 -4 -6q-1 -1 -4 -2t-5 -2q-1 0 -4.5 -1t-5.5 -1q-10 0 -18 8q-6 6 -6 18zM1122 592 q0 10 11 10q10 0 10 -12q0 -10 -13 -10q-11 4 -8 12zM1133 596q0 -4 4 -4q2 0 2 4t-2 4q-4 0 -4 -4zM1147 270q0 1 1 5t1 6q2 4 6 8t8 6q1 0 5 1t6 1t5.5 -1t4.5 -1q2 -1 5 -3t5 -3q4 -4 4 -8q2 -4 2 -11q0 -8 -2 -12q0 -4 -4 -8q-2 -1 -5 -3t-5 -3q-1 0 -4.5 -1t-5.5 -1 t-6 1t-5 1q-4 2 -8 6q-1 1 -3 4t-3 4q0 2 -1 6t-1 6zM1161 270q0 -8 2 -10q0 -2 4 -6q2 -2 7 -2q6 0 10 4q4 8 4 14q0 5 -4 13q-4 4 -10 4q-5 0 -7 -2q-4 -4 -4 -6q-2 -2 -2 -9zM1210 250v39q0 4 2 6q3 2 5 2l4 -2q2 -2 2 -6q4 4 8 6q1 0 3.5 1t4.5 1t4.5 -1t3.5 -1l6 -6 q3 3 9 6q1 0 3.5 1t4.5 1q1 0 4 -1t4 -1q6 -3 6 -6q2 -4 2 -13v-26q0 -4 -2 -6q-1 0 -2 -1t-2 -1t-3 1t-3 1q0 1 -1 3t-1 3v22v9q0 2 -2 4t-4 2q-1 0 -3 -1t-3 -1q0 -1 -1.5 -2t-1.5 -2q-2 -2 -2 -13v-18q0 -4 -2 -6q-1 0 -3 -1t-3 -1t-2 1t-2 1q-2 2 -2 6v22v9q0 2 -2 4 t-4 2q-8 0 -8 -6q-2 -2 -2 -13v-18q0 -1 -1 -3t-1 -3q-1 0 -3 -1t-3 -1l-5 2q-2 2 -2 6zM1214 539l7 -31q2 2 7 5t7 5q-9 22 -10 27q-1 -1 -11 -6zM1221 498q1 -7 7.5 -22.5t6.5 -24.5q25 -12 46 3t22 37.5t-17 38.5q-24 12 -47 0q5 -16 4 -18q-1 -3 -4.5 -5t-9 -4.5 t-8.5 -4.5zM1241 471q1 20 19.5 29t31.5 -2q-8 2 -17.5 -0.5t-12.5 -8.5q10 3 18 -12q-21 9 -39 -6z" />
<glyph unicode="&#xab;" horiz-adv-x="817" d="M100 399q-2 24 14.5 43.5t49.5 26.5q51 8 87.5 42t45.5 67q8 30 32 31t31 -38q5 -37 -7 -84t-44 -88q32 -39 44 -86t7 -84q-7 -39 -31 -37.5t-32 31.5q-9 32 -45.5 65.5t-87.5 43.5q-34 7 -50 25.5t-14 41.5zM354 399q-2 24 14.5 43.5t49.5 26.5q51 8 87.5 42t45.5 67 q8 30 33 31t30 -38q5 -37 -7 -84t-44 -88q32 -39 44 -86t7 -84q-5 -39 -30 -37.5t-33 31.5q-9 32 -45.5 65.5t-87.5 43.5q-34 7 -50 25.5t-14 41.5z" />
<glyph unicode="&#xad;" horiz-adv-x="776" d="M96 220q-5 52 16 104t54 53q119 6 387 0q27 -10 27.5 -56t-28.5 -98.5t-65 -54.5q-29 -2 -172 -0.5t-184 0.5q-30 0 -35 52z" />
<glyph unicode="&#xb4;" horiz-adv-x="768" d="M265.5 878q-5.5 8 0.5 16t17 11q23 6 59 31.5t55 60.5q14 36 54 25q34 -9 45 -38q11 -28 -13 -54q-80 -75 -196 -62q-16 2 -21.5 10z" />
<glyph unicode="&#xbb;" horiz-adv-x="839" d="M209 229q-5 37 7 84t44 86q-32 41 -44 88t-7 84q5 39 30 38t33 -31q9 -32 46 -66.5t88 -42.5q33 -7 49 -26.5t14 -43.5q2 -23 -14 -41.5t-49 -25.5q-51 -10 -88 -43.5t-46 -65.5q-8 -30 -33 -31.5t-30 37.5zM463 229q-5 37 7 84t44 86q-32 41 -44 88t-7 84q7 39 31 38 t32 -31q9 -33 45.5 -67t87.5 -42q33 -7 49.5 -26.5t14.5 -43.5q2 -23 -14 -41.5t-50 -25.5q-51 -10 -87.5 -43.5t-45.5 -65.5q-8 -30 -32 -31.5t-31 37.5z" />
<glyph unicode="&#xbf;" horiz-adv-x="978" d="M96.5 -121q-3.5 84 24 172.5t93.5 173t159 146.5q66 44 111.5 123t62 150t14.5 128q-1 23 45 26.5t93 -15t49 -50.5q-35 -335 -324 -549q-72 -56 -110.5 -127.5t-29 -140t73.5 -106.5q43 -26 90 -28t85.5 16.5t72 49.5t52.5 72t25.5 82.5t-9 83.5t-51.5 72 q-26 22 -34.5 52.5t0 56.5t25.5 48t43 26.5t52 -7.5q149 -82 168 -245q17 -145 -70 -289q-82 -136 -212 -196q-163 -75 -327 9q-79 41 -123.5 111.5t-48 154.5zM559 811q22 97 37 137q13 33 62.5 40t94 -9t46.5 -41q-14 -46 -37 -158q-29 16 -63.5 26.5t-73 14t-66.5 -9.5z " />
<glyph unicode="&#xc0;" horiz-adv-x="997" d="M1 1169q-5 49 7.5 101.5t38.5 77.5q326 108 776 90q37 -2 67.5 -7t66 -18t58 -33.5t35 -56t5.5 -82.5q-51 -240 -316 -1208q-12 -23 -46 -29t-69 2t-62.5 25t-26.5 35q33 148 120 505q-70 -2 -217 -2q-130 -488 -143 -538q-15 -29 -66.5 -30t-95.5 19.5t-43 45.5 q15 67 123 503h-61q-33 7 -48 56.5t-7.5 98t30.5 54.5q70 6 141 8q53 208 99 388q-95 -13 -342 -72q-19 18 -24 67zM498 793q97 0 215 4q18 72 46 177.5t38 147.5q5 23 -4 38.5t-29.5 22.5t-42.5 10.5t-50 1.5t-43.5 -3.5t-31.5 -3.5q-20 -89 -98 -395zM594 1606 q24 28 56 25q24 -2 34 -27q19 -35 55.5 -61t59.5 -32q11 -3 17 -11t0.5 -15.5t-21.5 -9.5q-118 -14 -197 61q-33 35 -4 70z" />
<glyph unicode="&#xc1;" horiz-adv-x="997" d="M1 1169q-5 49 7.5 101.5t38.5 77.5q326 108 776 90q37 -2 67.5 -7t66 -18t58 -33.5t35 -56t5.5 -82.5q-51 -240 -316 -1208q-12 -23 -46 -29t-69 2t-62.5 25t-26.5 35q33 148 120 505q-70 -2 -217 -2q-130 -488 -143 -538q-15 -29 -66.5 -30t-95.5 19.5t-43 45.5 q15 67 123 503h-61q-33 7 -48 56.5t-7.5 98t30.5 54.5q70 6 141 8q53 208 99 388q-95 -13 -342 -72q-19 18 -24 67zM498 793q97 0 215 4q18 72 46 177.5t38 147.5q5 23 -4 38.5t-29.5 22.5t-42.5 10.5t-50 1.5t-43.5 -3.5t-31.5 -3.5q-20 -89 -98 -395zM553.5 1484.5 q-5.5 7.5 0.5 15.5t17 11q23 6 59.5 32t55.5 61q14 35 52 26q34 -9 47 -39q12 -29 -13 -55q-79 -75 -197 -61q-16 2 -21.5 9.5z" />
<glyph unicode="&#xc2;" horiz-adv-x="997" d="M1 1169q-5 49 7.5 101.5t38.5 77.5q326 108 776 90q37 -2 67.5 -7t66 -18t58 -33.5t35 -56t5.5 -82.5q-51 -240 -316 -1208q-12 -23 -46 -29t-69 2t-62.5 25t-26.5 35q33 148 120 505q-70 -2 -217 -2q-130 -488 -143 -538q-15 -29 -66.5 -30t-95.5 19.5t-43 45.5 q15 67 123 503h-61q-33 7 -48 56.5t-7.5 98t30.5 54.5q70 6 141 8q53 208 99 388q-95 -13 -342 -72q-19 18 -24 67zM498 793q97 0 215 4q18 72 46 177.5t38 147.5q5 23 -4 38.5t-29.5 22.5t-42.5 10.5t-50 1.5t-43.5 -3.5t-31.5 -3.5q-20 -89 -98 -395zM636 1550q4 15 23 15 q22 0 48 16.5t38 46.5q20 39 52 27q30 -4 30 -49q-3 -31 12 -57.5t33 -37.5q10 -6 13 -15.5t-4 -16t-23 -4.5q-54 4 -94 55q-57 -25 -109 -4q-23 9 -19 24z" />
<glyph unicode="&#xc3;" horiz-adv-x="997" d="M1 1169q-5 49 7.5 101.5t38.5 77.5q326 108 776 90q37 -2 67.5 -7t66 -18t58 -33.5t35 -56t5.5 -82.5q-51 -240 -316 -1208q-12 -23 -46 -29t-69 2t-62.5 25t-26.5 35q33 148 120 505q-70 -2 -217 -2q-130 -488 -143 -538q-15 -29 -66.5 -30t-95.5 19.5t-43 45.5 q15 67 123 503h-61q-33 7 -48 56.5t-7.5 98t30.5 54.5q70 6 141 8q53 208 99 388q-95 -13 -342 -72q-19 18 -24 67zM498 793q97 0 215 4q18 72 46 177.5t38 147.5q5 23 -4 38.5t-29.5 22.5t-42.5 10.5t-50 1.5t-43.5 -3.5t-31.5 -3.5q-20 -89 -98 -395zM574 1561 q-5 33 23 57q23 19 56 14q18 -2 30.5 -11.5t18.5 -19.5t20.5 -17t37.5 -5q37 2 44 -33t-19 -60q-17 -16 -42 -16q-33 1 -53 17t-37 31t-43 14q-32 -2 -36 29z" />
<glyph unicode="&#xc4;" horiz-adv-x="997" d="M1 1169q-5 49 7.5 101.5t38.5 77.5q326 108 776 90q37 -2 67.5 -7t66 -18t58 -33.5t35 -56t5.5 -82.5q-51 -240 -316 -1208q-12 -23 -46 -29t-69 2t-62.5 25t-26.5 35q33 148 120 505q-70 -2 -217 -2q-130 -488 -143 -538q-15 -29 -66.5 -30t-95.5 19.5t-43 45.5 q15 67 123 503h-61q-33 7 -48 56.5t-7.5 98t30.5 54.5q70 6 141 8q53 208 99 388q-95 -13 -342 -72q-19 18 -24 67zM498 793q97 0 215 4q18 72 46 177.5t38 147.5q5 23 -4 38.5t-29.5 22.5t-42.5 10.5t-50 1.5t-43.5 -3.5t-31.5 -3.5q-20 -89 -98 -395zM651 1575 q7 22 25.5 31.5t38.5 3.5q22 -8 31 -25.5t-1 -42.5q-5 -11 -8 -16t-10 -10.5t-17 -5t-26 5.5q-49 17 -33 59zM772 1534q7 24 26 32.5t40 2.5q21 -8 30.5 -26.5t-0.5 -41.5q-6 -11 -9 -16t-10.5 -10.5t-17.5 -5t-26 5.5q-46 16 -33 59z" />
<glyph unicode="&#xc5;" horiz-adv-x="997" d="M1 1169q-5 49 7.5 101.5t38.5 77.5q326 108 776 90q37 -2 67.5 -7t66 -18t58 -33.5t35 -56t5.5 -82.5q-51 -240 -316 -1208q-12 -23 -46 -29t-69 2t-62.5 25t-26.5 35q33 148 120 505q-70 -2 -217 -2q-130 -488 -143 -538q-15 -29 -66.5 -30t-95.5 19.5t-43 45.5 q15 67 123 503h-61q-33 7 -48 56.5t-7.5 98t30.5 54.5q70 6 141 8q53 208 99 388q-95 -13 -342 -72q-19 18 -24 67zM498 793q97 0 215 4q18 72 46 177.5t38 147.5q5 23 -4 38.5t-29.5 22.5t-42.5 10.5t-50 1.5t-43.5 -3.5t-31.5 -3.5q-20 -89 -98 -395zM649 1604q9 20 16 30 t20 19.5t33 8.5t48 -11q85 -34 59 -113q-35 -87 -123 -59q-101 34 -53 125zM704.5 1552.5q5.5 -11.5 18.5 -16.5q29 -11 41 20q10 26 -21 37q-9 4 -15 4.5t-10.5 -4t-6 -6.5t-6.5 -10q-6 -13 -0.5 -24.5z" />
<glyph unicode="&#xc6;" horiz-adv-x="1347" d="M1 1172q-5 49 7.5 101.5t38.5 76.5q326 108 776 90q71 -4 121 -19q55 9 108 15t101.5 7t84.5 1.5t79.5 -3t62.5 -5t57 -6.5t42 -5q18 -16 21 -53.5t-5 -74.5t-23 -68t-30 -35q-12 -1 -139.5 -0.5t-247.5 -11.5q-103 -377 -109 -398q152 22 219 27q55 2 55 -57 q0 -60 -48 -125q-44 -58 -89 -66q-28 -3 -97 -11.5t-109 -12.5q-6 -22 -23 -79t-25 -87q-24 -90 -34 -129q324 25 333 26q53 3 96 -58q41 -58 32 -112q-9 -45 -56 -53q-396 -36 -688 -47q-34 6 -52 56t-13 100.5t28 58.5q13 1 41 4t43 4l88 348l4 2q-70 -2 -213 -2 q-135 -506 -143 -536q-12 -23 -46.5 -29t-69.5 2t-62.5 25t-26.5 35q18 83 123 505q-18 0 -35.5 -1t-25.5 -1q-33 7 -48 57t-7.5 98.5t30.5 55.5q20 1 64.5 3t76.5 3q20 79 41 161.5t37.5 147t20.5 79.5q-33 -4 -93 -16t-141 -30l-108 -24q-19 17 -24 66zM498 795 q36 1 108 2t103 2q11 42 43 165t47 179v2q-6 75 -203 45q-26 -114 -98 -395z" />
<glyph unicode="&#xc7;" horiz-adv-x="1015" d="M-2 541q31 444 248 686q64 72 135 119t133 65t122 20t103 -8.5t76 -29.5q40 -23 85.5 -110t45.5 -138q-10 -96 -64 -197t-134 -180q-45 -32 -97 -15t-86.5 64t-9.5 74q181 200 127 252q-19 19 -46.5 22.5t-58.5 -8.5t-65 -37t-68.5 -64t-66.5 -87.5t-61 -110t-50 -129.5 q-32 -104 -41 -190.5t3.5 -143t40.5 -92.5t67.5 -45.5t87 6t95.5 54t97 106t89 154.5q14 30 44 36.5t61.5 -7t60 -34.5t43 -46.5t6.5 -43.5q-103 -212 -250.5 -346t-302.5 -135q0 -4 -1 -10.5t-1 -9.5q46 -26 47 -90q2 -68 -47 -109q-63 -52 -166 -14q-14 10 -15 40 t19.5 54.5t48.5 9.5q33 -18 48 12q15 29 -4 58q-12 19 -34 24q-5 14 6 47q-3 1 -8 3t-8 3q-120 41 -193 193.5t-61 327.5z" />
<glyph unicode="&#xc8;" horiz-adv-x="958" d="M1 156.5q5 50.5 28 58.5q13 1 41 4t43 4q38 151 75 291q-6 -1 -18.5 -2t-19.5 -2q-24 3 -29.5 53t11.5 104.5t50 67.5q52 6 66 8q23 86 61.5 235t42.5 165q-121 -29 -190 -49q-18 -6 -29 29q-19 58 -2 134q16 70 55 89q66 21 130.5 37.5t117.5 27.5t111 18t98 11 t90.5 4.5t78 0t71 -3.5t58 -4.5t51.5 -6.5t40 -5q19 -16 22 -53.5t-5 -74.5t-23.5 -68t-30.5 -35q-12 -1 -139.5 -0.5t-247.5 -11.5q-7 -27 -45.5 -169.5t-62.5 -228.5q150 21 219 27q55 2 55 -57q0 -60 -48 -125q-43 -59 -89 -66q-26 -3 -96 -11t-111 -13 q-82 -287 -84 -295q319 24 336 26q53 3 96 -58q41 -58 32 -112q-9 -45 -56 -53q-396 -36 -688 -47q-34 6 -52 56t-13 100.5zM584 1606q24 28 56 25q24 -2 34 -27q19 -35 55 -61t59 -32q11 -3 17 -11t0.5 -15.5t-21.5 -9.5q-117 -13 -196 61q-33 35 -4 70z" />
<glyph unicode="&#xc9;" horiz-adv-x="958" d="M1 156.5q5 50.5 28 58.5q13 1 41 4t43 4q38 151 75 291q-6 -1 -18.5 -2t-19.5 -2q-24 3 -29.5 53t11.5 104.5t50 67.5q52 6 66 8q23 86 61.5 235t42.5 165q-121 -29 -190 -49q-18 -6 -29 29q-19 58 -2 134q16 70 55 89q66 21 130.5 37.5t117.5 27.5t111 18t98 11 t90.5 4.5t78 0t71 -3.5t58 -4.5t51.5 -6.5t40 -5q19 -16 22 -53.5t-5 -74.5t-23.5 -68t-30.5 -35q-12 -1 -139.5 -0.5t-247.5 -11.5q-7 -27 -45.5 -169.5t-62.5 -228.5q150 21 219 27q55 2 55 -57q0 -60 -48 -125q-43 -59 -89 -66q-26 -3 -96 -11t-111 -13 q-82 -287 -84 -295q319 24 336 26q53 3 96 -58q41 -58 32 -112q-9 -45 -56 -53q-396 -36 -688 -47q-34 6 -52 56t-13 100.5zM543.5 1480q-5.5 8 0.5 16t17 11q24 6 60 31.5t55 60.5q14 36 54 25q34 -9 45 -38q11 -28 -13 -54q-80 -75 -197 -62q-16 2 -21.5 10z" />
<glyph unicode="&#xca;" horiz-adv-x="958" d="M1 156.5q5 50.5 28 58.5q13 1 41 4t43 4q38 151 75 291q-6 -1 -18.5 -2t-19.5 -2q-24 3 -29.5 53t11.5 104.5t50 67.5q52 6 66 8q23 86 61.5 235t42.5 165q-121 -29 -190 -49q-18 -6 -29 29q-19 58 -2 134q16 70 55 89q66 21 130.5 37.5t117.5 27.5t111 18t98 11 t90.5 4.5t78 0t71 -3.5t58 -4.5t51.5 -6.5t40 -5q19 -16 22 -53.5t-5 -74.5t-23.5 -68t-30.5 -35q-12 -1 -139.5 -0.5t-247.5 -11.5q-7 -27 -45.5 -169.5t-62.5 -228.5q150 21 219 27q55 2 55 -57q0 -60 -48 -125q-43 -59 -89 -66q-26 -3 -96 -11t-111 -13 q-82 -287 -84 -295q319 24 336 26q53 3 96 -58q41 -58 32 -112q-9 -45 -56 -53q-396 -36 -688 -47q-34 6 -52 56t-13 100.5zM552 1552q4 15 23 15q22 0 48.5 16.5t38.5 46.5q20 39 51 27q30 -4 30 -49q-3 -31 12 -57.5t33 -37.5q10 -6 13 -15.5t-4 -16t-23 -4.5 q-54 4 -94 55q-57 -25 -109 -4q-23 9 -19 24z" />
<glyph unicode="&#xcb;" horiz-adv-x="958" d="M1 156.5q5 50.5 28 58.5q13 1 41 4t43 4q38 151 75 291q-6 -1 -18.5 -2t-19.5 -2q-24 3 -29.5 53t11.5 104.5t50 67.5q52 6 66 8q23 86 61.5 235t42.5 165q-121 -29 -190 -49q-18 -6 -29 29q-19 58 -2 134q16 70 55 89q66 21 130.5 37.5t117.5 27.5t111 18t98 11 t90.5 4.5t78 0t71 -3.5t58 -4.5t51.5 -6.5t40 -5q19 -16 22 -53.5t-5 -74.5t-23.5 -68t-30.5 -35q-12 -1 -139.5 -0.5t-247.5 -11.5q-7 -27 -45.5 -169.5t-62.5 -228.5q150 21 219 27q55 2 55 -57q0 -60 -48 -125q-43 -59 -89 -66q-26 -3 -96 -11t-111 -13 q-82 -287 -84 -295q319 24 336 26q53 3 96 -58q41 -58 32 -112q-9 -45 -56 -53q-396 -36 -688 -47q-34 6 -52 56t-13 100.5zM567 1579q7 22 25.5 31.5t38.5 3.5q22 -8 31.5 -25.5t-0.5 -42.5q-9 -21 -18.5 -27t-43.5 1q-49 17 -33 59zM688 1538q7 24 26 32.5t40 2.5 q21 -8 30.5 -26.5t-0.5 -41.5q-6 -11 -9 -16t-10.5 -10.5t-17.5 -5t-26 5.5q-46 16 -33 59z" />
<glyph unicode="&#xcc;" horiz-adv-x="974" d="M0.5 155q5.5 50 28.5 58q13 1 111.5 12.5t113.5 12.5q9 36 61.5 236t111 421.5t67.5 255.5q-8 -2 -147 -29.5t-183 -36.5q-26 -4 -36 52.5t6 120.5t54 77q377 132 822 86q29 -2 32 -52t-14 -102t-37 -59q-19 -3 -126.5 -11.5t-139.5 -12.5q-194 -708 -262 -932 q205 12 274 18q62 4 107 -57q41 -56 30 -108q-10 -47 -63 -54q-98 -10 -385 -30.5t-363 -20.5q-34 6 -51 55.5t-11.5 99.5zM545 1610q24 28 56 25q24 -2 34 -27q19 -35 55 -60.5t60 -31.5q11 -3 16.5 -11t0 -16t-21.5 -10q-117 -13 -196 61q-33 35 -4 70z" />
<glyph unicode="&#xcd;" horiz-adv-x="974" d="M0.5 155q5.5 50 28.5 58q13 1 111.5 12.5t113.5 12.5q9 36 61.5 236t111 421.5t67.5 255.5q-8 -2 -147 -29.5t-183 -36.5q-26 -4 -36 52.5t6 120.5t54 77q377 132 822 86q29 -2 32 -52t-14 -102t-37 -59q-19 -3 -126.5 -11.5t-139.5 -12.5q-194 -708 -262 -932 q205 12 274 18q62 4 107 -57q41 -56 30 -108q-10 -47 -63 -54q-98 -10 -385 -30.5t-363 -20.5q-34 6 -51 55.5t-11.5 99.5zM529.5 1489q-5.5 8 0.5 16t17 11q24 6 60 31.5t55 60.5q14 35 52 26q34 -9 47 -39q12 -29 -13 -55q-79 -75 -197 -61q-16 2 -21.5 10z" />
<glyph unicode="&#xce;" horiz-adv-x="974" d="M0.5 155q5.5 50 28.5 58q13 1 111.5 12.5t113.5 12.5q9 36 61.5 236t111 421.5t67.5 255.5q-8 -2 -147 -29.5t-183 -36.5q-26 -4 -36 52.5t6 120.5t54 77q377 132 822 86q29 -2 32 -52t-14 -102t-37 -59q-19 -3 -126.5 -11.5t-139.5 -12.5q-194 -708 -262 -932 q205 12 274 18q62 4 107 -57q41 -56 30 -108q-10 -47 -63 -54q-98 -10 -385 -30.5t-363 -20.5q-34 6 -51 55.5t-11.5 99.5zM559 1546q4 15 23 15q22 0 48 16.5t38 46.5q20 39 51 27q31 -4 31 -49q-3 -31 12 -57.5t33 -37.5q17 -9 13.5 -24.5t-28.5 -12.5q-53 4 -94 56 q-56 -25 -108 -4q-23 9 -19 24z" />
<glyph unicode="&#xcf;" horiz-adv-x="974" d="M0.5 155q5.5 50 28.5 58q13 1 111.5 12.5t113.5 12.5q9 36 61.5 236t111 421.5t67.5 255.5q-8 -2 -147 -29.5t-183 -36.5q-26 -4 -36 52.5t6 120.5t54 77q377 132 822 86q29 -2 32 -52t-14 -102t-37 -59q-19 -3 -126.5 -11.5t-139.5 -12.5q-194 -708 -262 -932 q205 12 274 18q62 4 107 -57q41 -56 30 -108q-10 -47 -63 -54q-98 -10 -385 -30.5t-363 -20.5q-34 6 -51 55.5t-11.5 99.5zM573 1577q7 22 25.5 31.5t38.5 3.5q22 -8 31.5 -25.5t-0.5 -42.5q-9 -21 -18.5 -27t-43.5 1q-49 17 -33 59zM694 1536q7 24 26 32.5t40 2.5 q21 -8 31 -26.5t0 -41.5q-6 -11 -9.5 -16t-10.5 -10.5t-17.5 -5t-26.5 5.5q-46 16 -33 59z" />
<glyph unicode="&#xd0;" horiz-adv-x="1081" d="M2.5 103.5q-6.5 38.5 6 78t40.5 67t60 19.5q8 32 27.5 108t29.5 118h-55q-30 0 -35 51.5t15.5 103.5t53.5 53q12 0 38 1.5t40 1.5q43 164 123 458q-55 -6 -213 -39q-30 28 -21.5 120.5t48.5 131.5q276 77 508 58q88 -7 160 -43.5t125.5 -109t78 -174t12.5 -249 t-67 -323.5q-24 -79 -50 -142.5t-67.5 -131.5t-91 -115.5t-121.5 -85.5t-157.5 -52t-200.5 -3.5t-250 50.5q-30 10 -36.5 48.5zM322 227q158 -28 279.5 55.5t186.5 292.5q73 234 63 377.5t-81 201.5t-195 36q-23 -107 -122 -485q44 -3 79 -3q27 -10 28 -55.5t-28 -98 t-65 -54.5q-18 -2 -72 -2q-17 -59 -43.5 -157t-29.5 -108z" />
<glyph unicode="&#xd1;" horiz-adv-x="1003" d="M0 68q31 133 332 1282q11 40 60.5 66.5t100.5 24.5t66 -34q2 -9 19.5 -150t43 -347.5t42.5 -331.5q32 123 78.5 304.5t76 295t39.5 149.5q14 48 82 76q69 28 117 7q41 -17 33 -64q-32 -144 -180.5 -697t-170.5 -618q-13 -24 -56.5 -29.5t-88 10t-59.5 45.5q-1 5 -4.5 16 t-6 22t-4.5 22q-43 183 -106 669q-160 -606 -209 -751q-19 -32 -70 -33t-93.5 20.5t-41.5 45.5zM638 1561q-5 33 23 57q23 19 56 14q22 -2 35 -17t27.5 -27t43.5 -9q37 2 44.5 -33t-18.5 -60q-17 -16 -42 -16q-33 1 -53 17t-37 31t-43 14q-32 -2 -36 29z" />
<glyph unicode="&#xd2;" horiz-adv-x="913" d="M0.5 385.5q-3.5 125.5 18.5 261t71.5 272.5t116.5 246.5t162 183t200 83.5q60 6 162 -31t121 -78q34 -77 45 -196t0 -255t-52 -278t-104 -262t-163.5 -209.5t-223.5 -118.5q-47 -12 -116 11t-127.5 68t-75.5 91q-31 86 -34.5 211.5zM214.5 322q10.5 -96 47.5 -148 q78 12 151.5 77.5t128 158.5t93.5 207t53.5 222t1.5 204t-57 151q-76 -5 -148 -68t-124 -158t-90 -212t-52.5 -227.5t-4 -206.5zM655 1608q24 28 56 25q24 -2 34 -27q19 -35 55.5 -61t59.5 -32q11 -3 17 -11t0.5 -15.5t-21.5 -9.5q-118 -14 -197 61q-33 35 -4 70z" />
<glyph unicode="&#xd3;" horiz-adv-x="913" d="M0.5 385.5q-3.5 125.5 18.5 261t71.5 272.5t116.5 246.5t162 183t200 83.5q60 6 162 -31t121 -78q34 -77 45 -196t0 -255t-52 -278t-104 -262t-163.5 -209.5t-223.5 -118.5q-47 -12 -116 11t-127.5 68t-75.5 91q-31 86 -34.5 211.5zM214.5 322q10.5 -96 47.5 -148 q78 12 151.5 77.5t128 158.5t93.5 207t53.5 222t1.5 204t-57 151q-76 -5 -148 -68t-124 -158t-90 -212t-52.5 -227.5t-4 -206.5zM650.5 1486.5q-5.5 7.5 0.5 15.5t17 11q23 6 59 32t55 61q14 35 52 26q34 -9 47 -39q12 -29 -13 -55q-79 -74 -196 -61q-16 2 -21.5 9.5z" />
<glyph unicode="&#xd4;" horiz-adv-x="913" d="M0.5 385.5q-3.5 125.5 18.5 261t71.5 272.5t116.5 246.5t162 183t200 83.5q60 6 162 -31t121 -78q34 -77 45 -196t0 -255t-52 -278t-104 -262t-163.5 -209.5t-223.5 -118.5q-47 -12 -116 11t-127.5 68t-75.5 91q-31 86 -34.5 211.5zM214.5 322q10.5 -96 47.5 -148 q78 12 151.5 77.5t128 158.5t93.5 207t53.5 222t1.5 204t-57 151q-76 -5 -148 -68t-124 -158t-90 -212t-52.5 -227.5t-4 -206.5zM657 1505q4 15 23 15q22 0 48 16.5t38 46.5q20 39 51 27q31 -4 31 -49q-3 -31 12 -57.5t33 -37.5q10 -6 13 -15.5t-4 -16t-23 -4.5 q-55 4 -95 55q-56 -25 -108 -4q-23 9 -19 24z" />
<glyph unicode="&#xd5;" horiz-adv-x="913" d="M0.5 385.5q-3.5 125.5 18.5 261t71.5 272.5t116.5 246.5t162 183t200 83.5q60 6 162 -31t121 -78q34 -77 45 -196t0 -255t-52 -278t-104 -262t-163.5 -209.5t-223.5 -118.5q-47 -12 -116 11t-127.5 68t-75.5 91q-31 86 -34.5 211.5zM214.5 322q10.5 -96 47.5 -148 q78 12 151.5 77.5t128 158.5t93.5 207t53.5 222t1.5 204t-57 151q-76 -5 -148 -68t-124 -158t-90 -212t-52.5 -227.5t-4 -206.5zM671 1561q-5 33 23 57q23 19 56 14q22 -2 35 -17t27.5 -27t43.5 -9q37 2 44.5 -33t-18.5 -60q-17 -16 -42 -16q-33 1 -53 17t-37 31t-43 14 q-32 -2 -36 29z" />
<glyph unicode="&#xd6;" horiz-adv-x="913" d="M0.5 385.5q-3.5 125.5 18.5 261t71.5 272.5t116.5 246.5t162 183t200 83.5q60 6 162 -31t121 -78q34 -77 45 -196t0 -255t-52 -278t-104 -262t-163.5 -209.5t-223.5 -118.5q-47 -12 -116 11t-127.5 68t-75.5 91q-31 86 -34.5 211.5zM214.5 322q10.5 -96 47.5 -148 q78 12 151.5 77.5t128 158.5t93.5 207t53.5 222t1.5 204t-57 151q-76 -5 -148 -68t-124 -158t-90 -212t-52.5 -227.5t-4 -206.5zM676 1575q7 23 25.5 32t37.5 3q22 -8 31.5 -25.5t-0.5 -42.5q-5 -11 -8 -16t-10 -10.5t-17 -5t-26 5.5q-49 17 -33 59zM797 1534 q7 24 25.5 32.5t39.5 2.5q21 -8 31 -26.5t0 -41.5q-6 -11 -9.5 -16t-10.5 -10.5t-17.5 -5t-26.5 5.5q-45 15 -32 59z" />
<glyph unicode="&#xd7;" horiz-adv-x="657" d="M104.5 141q0.5 28 16.5 43q16 16 53 45q-13 12 -33.5 33t-29.5 29q-21 21 12 61t84.5 62.5t75.5 1.5q9 -9 28.5 -28t28.5 -28q15 11 30.5 23.5t30.5 25l21 17.5q41 32 84.5 -5t49.5 -91.5t-30 -89.5q-11 -7 -37 -29q15 -15 37.5 -38.5t30.5 -31.5q20 -25 -15 -73t-85 -63 t-97 34l-17 17t-19 20q-19 -14 -86 -68q-21 -13 -44.5 -5.5t-43.5 31.5t-33 51.5t-12.5 55.5z" />
<glyph unicode="&#xd8;" horiz-adv-x="913" d="M0.5 385.5q-3.5 125.5 18.5 261t71.5 272.5t116.5 246.5t162 183t200 83.5q27 0 43 -2q41 22 84.5 12.5t53.5 -49.5q85 -35 102 -70q34 -77 45 -196t0 -255t-52 -278t-104 -262t-163.5 -209.5t-223.5 -118.5q-33 -8 -88 2q-5 -8 -8 -16q-15 -34 -62 -35t-87 22t-39 50 q2 6 11 29t15 38q-48 41 -61 80q-31 86 -34.5 211.5zM209 393q128 344 256 715q-113 -110 -184.5 -319.5t-71.5 -395.5zM348 205q59 32 113.5 94.5t96.5 140t74 167.5t48 177.5t15.5 171.5t-19.5 148q-134 -408 -328 -899z" />
<glyph unicode="&#xd9;" horiz-adv-x="999" d="M0.5 1271q-4.5 52 12 102.5t48.5 58.5q198 23 316 -40.5t100 -168.5q-4 -19 -227 -740q-48 -156 7 -244q41 -65 118 -56q93 11 174 126q52 74 88 180q31 112 83.5 308.5t92.5 344t55 199.5q17 62 84 89q60 24 101 2q37 -20 26 -68q1 -1 -57.5 -245.5t-140 -564 t-129.5 -474.5q-18 -59 -71.5 -75.5t-97.5 11t-38 76.5q-26 -33 -68 -55.5t-90.5 -30.5t-101 -3.5t-100 25t-88 56t-65 90t-30.5 126t16 163.5q37 157 112.5 397.5t78.5 251.5q12 56 -3 79t-60.5 23.5t-120.5 -8.5q-20 13 -24.5 65zM576 1606q24 28 56 25q24 -2 34 -27 q19 -35 55 -61t59 -32q11 -3 17 -11t0.5 -15.5t-21.5 -9.5q-117 -13 -196 61q-33 35 -4 70z" />
<glyph unicode="&#xda;" horiz-adv-x="999" d="M0.5 1271q-4.5 52 12 102.5t48.5 58.5q198 23 316 -40.5t100 -168.5q-4 -19 -227 -740q-48 -156 7 -244q41 -65 118 -56q93 11 174 126q52 74 88 180q31 112 83.5 308.5t92.5 344t55 199.5q17 62 84 89q60 24 101 2q37 -20 26 -68q1 -1 -57.5 -245.5t-140 -564 t-129.5 -474.5q-18 -59 -71.5 -75.5t-97.5 11t-38 76.5q-26 -33 -68 -55.5t-90.5 -30.5t-101 -3.5t-100 25t-88 56t-65 90t-30.5 126t16 163.5q37 157 112.5 397.5t78.5 251.5q12 56 -3 79t-60.5 23.5t-120.5 -8.5q-20 13 -24.5 65zM553.5 1484.5q-5.5 7.5 0.5 15.5t17 11 q23 6 59.5 32t55.5 61q14 35 52 26q34 -9 47 -39q12 -29 -13 -55q-79 -75 -197 -61q-16 2 -21.5 9.5z" />
<glyph unicode="&#xdb;" horiz-adv-x="999" d="M0.5 1271q-4.5 52 12 102.5t48.5 58.5q198 23 316 -40.5t100 -168.5q-4 -19 -227 -740q-48 -156 7 -244q41 -65 118 -56q93 11 174 126q52 74 88 180q31 112 83.5 308.5t92.5 344t55 199.5q17 62 84 89q60 24 101 2q37 -20 26 -68q1 -1 -57.5 -245.5t-140 -564 t-129.5 -474.5q-18 -59 -71.5 -75.5t-97.5 11t-38 76.5q-26 -33 -68 -55.5t-90.5 -30.5t-101 -3.5t-100 25t-88 56t-65 90t-30.5 126t16 163.5q37 157 112.5 397.5t78.5 251.5q12 56 -3 79t-60.5 23.5t-120.5 -8.5q-20 13 -24.5 65zM546 1546q4 15 23 15q22 0 48 16.5 t38 46.5q20 39 52 27q30 -4 30 -49q-3 -31 12 -57.5t33 -37.5q10 -6 13 -15.5t-4 -16.5t-23 -5q-53 4 -94 56q-57 -25 -109 -4q-23 9 -19 24z" />
<glyph unicode="&#xdc;" horiz-adv-x="999" d="M0.5 1271q-4.5 52 12 102.5t48.5 58.5q198 23 316 -40.5t100 -168.5q-4 -19 -227 -740q-48 -156 7 -244q41 -65 118 -56q93 11 174 126q52 74 88 180q31 112 83.5 308.5t92.5 344t55 199.5q17 62 84 89q60 24 101 2q37 -20 26 -68q1 -1 -57.5 -245.5t-140 -564 t-129.5 -474.5q-18 -59 -71.5 -75.5t-97.5 11t-38 76.5q-26 -33 -68 -55.5t-90.5 -30.5t-101 -3.5t-100 25t-88 56t-65 90t-30.5 126t16 163.5q37 157 112.5 397.5t78.5 251.5q12 56 -3 79t-60.5 23.5t-120.5 -8.5q-20 13 -24.5 65zM557 1575q7 22 25.5 31.5t38.5 3.5 q22 -8 31 -25.5t-1 -42.5q-5 -11 -8 -16t-10 -10.5t-17 -5t-26 5.5q-49 17 -33 59zM678 1534q7 24 25.5 32.5t39.5 2.5q21 -8 31 -26.5t0 -41.5q-6 -11 -9 -16t-10.5 -10.5t-17.5 -5t-26 5.5q-46 16 -33 59z" />
<glyph unicode="&#xdd;" horiz-adv-x="907" d="M10 729q110 432 185 621q19 48 95 69t124 -5q39 -21 28 -66q-83 -292 -180 -586q-29 -106 -0.5 -173.5t90.5 -82.5q85 -20 142.5 26t99.5 173q13 35 92 317.5t96 335.5q17 49 91 67q70 17 113 -9q32 -21 22 -58q-27 -139 -103.5 -406t-120.5 -401q-29 -92 -91 -154.5 t-133 -86.5t-144 -17q-43 -129 -70 -209q-18 -53 -77.5 -75t-110 0.5t-43.5 78.5q9 56 73 256q-54 19 -102.5 73.5t-73 139.5t-2.5 172zM510.5 1480q-5.5 8 0.5 16t17 11q24 6 60 31.5t55 60.5q14 36 54 25q34 -9 45 -38q11 -28 -13 -54q-80 -75 -197 -62q-16 2 -21.5 10z " />
<glyph unicode="&#xe0;" d="M-29 326q20 118 74 305q27 83 74.5 135.5t99 67t101.5 8t88 -34.5t53 -66q11 45 22 82q6 16 31 20.5t53.5 0.5t55.5 -13q42 -14 72.5 -40.5t29.5 -61.5q-110 -304 -137 -391q-33 -105 -7 -128q23 -21 72 43q24 33 49 81q58 119 64 133q17 23 43 24t47 -19.5t14 -45.5 q-63 -171 -137 -274q-65 -87 -132.5 -126.5t-147.5 -17.5q-41 10 -70.5 48.5t-36.5 78.5q-54 -84 -113 -115t-135 -16q-82 16 -119 97.5t-8 224.5zM209 338q-29 -92 3 -123q25 -24 64 10q34 30 58 92q10 25 35 104.5t30 100.5q13 52 -10 84.5t-59.5 18t-57.5 -75.5 q-35 -128 -63 -211zM289 1000q24 28 56 24q24 -2 34 -27q19 -35 55 -60.5t60 -31.5q11 -3 16.5 -11t0 -16t-21.5 -10q-116 -13 -196 62q-33 35 -4 70z" />
<glyph unicode="&#xe1;" d="M-29 326q20 118 74 305q27 83 74.5 135.5t99 67t101.5 8t88 -34.5t53 -66q11 45 22 82q6 16 31 20.5t53.5 0.5t55.5 -13q42 -14 72.5 -40.5t29.5 -61.5q-110 -304 -137 -391q-33 -105 -7 -128q23 -21 72 43q24 33 49 81q58 119 64 133q17 23 43 24t47 -19.5t14 -45.5 q-63 -171 -137 -274q-65 -87 -132.5 -126.5t-147.5 -17.5q-41 10 -70.5 48.5t-36.5 78.5q-54 -84 -113 -115t-135 -16q-82 16 -119 97.5t-8 224.5zM209 338q-29 -92 3 -123q25 -24 64 10q34 30 58 92q10 25 35 104.5t30 100.5q13 52 -10 84.5t-59.5 18t-57.5 -75.5 q-35 -128 -63 -211zM246.5 878q-5.5 8 0.5 16t17 11q24 6 60 31.5t55 60.5q14 36 54 25q34 -9 45 -38q11 -28 -13 -54q-80 -75 -197 -62q-16 2 -21.5 10z" />
<glyph unicode="&#xe2;" d="M-29 326q20 118 74 305q27 83 74.5 135.5t99 67t101.5 8t88 -34.5t53 -66q11 45 22 82q6 16 31 20.5t53.5 0.5t55.5 -13q42 -14 72.5 -40.5t29.5 -61.5q-110 -304 -137 -391q-33 -105 -7 -128q23 -21 72 43q24 33 49 81q58 119 64 133q17 23 43 24t47 -19.5t14 -45.5 q-63 -171 -137 -274q-65 -87 -132.5 -126.5t-147.5 -17.5q-41 10 -70.5 48.5t-36.5 78.5q-54 -84 -113 -115t-135 -16q-82 16 -119 97.5t-8 224.5zM209 338q-29 -92 3 -123q25 -24 64 10q34 30 58 92q10 25 35 104.5t30 100.5q13 52 -10 84.5t-59.5 18t-57.5 -75.5 q-35 -128 -63 -211zM257.5 943.5q4.5 14.5 23.5 14.5q22 0 48 17t38 47q20 39 51 27q13 -2 22 -15t9 -35q-3 -31 12 -57t33 -37q17 -9 13.5 -24.5t-28.5 -12.5q-53 4 -94 56q-57 -25 -109 -4q-23 9 -18.5 23.5z" />
<glyph unicode="&#xe3;" d="M-29 326q20 118 74 305q27 83 74.5 135.5t99 67t101.5 8t88 -34.5t53 -66q11 45 22 82q6 16 31 20.5t53.5 0.5t55.5 -13q42 -14 72.5 -40.5t29.5 -61.5q-110 -304 -137 -391q-33 -105 -7 -128q23 -21 72 43q24 33 49 81q58 119 64 133q17 23 43 24t47 -19.5t14 -45.5 q-63 -171 -137 -274q-65 -87 -132.5 -126.5t-147.5 -17.5q-41 10 -70.5 48.5t-36.5 78.5q-54 -84 -113 -115t-135 -16q-82 16 -119 97.5t-8 224.5zM209 338q-29 -92 3 -123q25 -24 64 10q34 30 58 92q10 25 35 104.5t30 100.5q13 52 -10 84.5t-59.5 18t-57.5 -75.5 q-35 -128 -63 -211zM265 959q-5 33 23 57q23 19 56 14q18 -2 30.5 -11.5t18.5 -19.5t20.5 -17t37.5 -5q37 2 44 -33t-19 -60q-17 -16 -42 -16q-33 1 -53 17t-37 31t-43 14q-32 -2 -36 29z" />
<glyph unicode="&#xe4;" d="M-29 326q20 118 74 305q27 83 74.5 135.5t99 67t101.5 8t88 -34.5t53 -66q11 45 22 82q6 16 31 20.5t53.5 0.5t55.5 -13q42 -14 72.5 -40.5t29.5 -61.5q-110 -304 -137 -391q-33 -105 -7 -128q23 -21 72 43q24 33 49 81q58 119 64 133q17 23 43 24t47 -19.5t14 -45.5 q-63 -171 -137 -274q-65 -87 -132.5 -126.5t-147.5 -17.5q-41 10 -70.5 48.5t-36.5 78.5q-54 -84 -113 -115t-135 -16q-82 16 -119 97.5t-8 224.5zM209 338q-29 -92 3 -123q25 -24 64 10q34 30 58 92q10 25 35 104.5t30 100.5q13 52 -10 84.5t-59.5 18t-57.5 -75.5 q-35 -128 -63 -211zM268 973q7 22 25.5 31.5t38.5 3.5q22 -8 31 -25.5t-1 -42.5q-5 -11 -8 -16t-10.5 -11.5t-16.5 -4.5t-26 5q-49 17 -33 60zM389 932q7 24 26 32.5t40 2.5q21 -8 30.5 -26.5t-0.5 -41.5q-5 -10 -7 -13.5t-7.5 -9.5t-11 -7.5t-15 -1t-22.5 4.5 q-46 16 -33 60z" />
<glyph unicode="&#xe5;" d="M-29 326q20 118 74 305q27 83 74.5 135.5t99 67t101.5 8t88 -34.5t53 -66q11 45 22 82q6 16 31 20.5t53.5 0.5t55.5 -13q42 -14 72.5 -40.5t29.5 -61.5q-110 -304 -137 -391q-33 -105 -7 -128q23 -21 72 43q24 33 49 81q58 119 64 133q17 23 43 24t47 -19.5t14 -45.5 q-63 -171 -137 -274q-65 -87 -132.5 -126.5t-147.5 -17.5q-41 10 -70.5 48.5t-36.5 78.5q-54 -84 -113 -115t-135 -16q-82 16 -119 97.5t-8 224.5zM209 338q-29 -92 3 -123q25 -24 64 10q34 30 58 92q10 25 35 104.5t30 100.5q13 52 -10 84.5t-59.5 18t-57.5 -75.5 q-35 -128 -63 -211zM297 1001q9 20 16 30.5t20 20t33 8.5t48 -11q85 -34 59 -113q-35 -87 -123 -59q-100 34 -53 124zM352 950.5q6 -11.5 19 -16.5q29 -11 41 20q10 26 -21 37q-11 7 -19.5 3.5t-11.5 -7t-8 -12.5q-6 -13 0 -24.5z" />
<glyph unicode="&#xe6;" horiz-adv-x="1005" d="M-31 326q20 118 74 305q27 83 74.5 135.5t99 67t101.5 8t88 -34.5t53 -66q14 56 24 82q5 16 29.5 20.5t53 0.5t55.5 -13q2 0 10 -4q102 32 201.5 14.5t125.5 -57.5q19 -30 12.5 -98t-32.5 -133q-17 -40 -36 -75t-50 -74.5t-65.5 -66t-81.5 -41t-99 -7.5q-5 -68 56 -100 q65 -34 147 0q93 39 147 147q53 109 62 131q18 23 42.5 24t44 -19.5t13.5 -45.5q-67 -169 -133 -270q-48 -77 -126.5 -118t-162.5 -39t-157 42q-9 -35 -55 -40.5t-90.5 31t-49.5 105.5q-54 -84 -112.5 -115t-135.5 -16q-82 16 -119 96.5t-8 223.5zM207 338q-29 -92 3 -123 q25 -24 64 10q34 30 58 92q10 25 35 104.5t30 100.5q13 52 -10 84.5t-59.5 18t-57.5 -75.5q-35 -128 -63 -211zM627 473q83 -36 137 78q26 52 29.5 92.5t-15.5 48.5q-34 6 -75 -51t-76 -168z" />
<glyph unicode="&#xe7;" horiz-adv-x="583" d="M-37.5 274.5q-10.5 74.5 8.5 169.5q19 84 63.5 177t96.5 155q51 51 143.5 64.5t169.5 -4.5t97 -50q29 -42 3.5 -155.5t-79.5 -169.5q-41 -27 -96 -13.5t-60 50.5q39 57 56 120.5t-5 75.5q-37 6 -82.5 -63.5t-80.5 -200.5q-11 -41 -11.5 -79.5t9.5 -67.5t26.5 -53.5 t40 -37t49.5 -18t55.5 3t58 27t56.5 53t51 80.5q42 87 62 131q18 23 42.5 24t43.5 -19.5t12 -45.5q-59 -159 -131 -270q-46 -74 -119 -114t-155 -42q0 -1 -1 -4t-1 -4q35 -26 28.5 -78t-49.5 -77t-121 5q-10 9 -8 32t20 40t38 4q26 -17 38 9q13 26 -5 48q-7 9 -19 13 q0 12 2 20q-62 13 -112.5 46.5t-87 88.5t-47 129.5z" />
<glyph unicode="&#xe8;" horiz-adv-x="587" d="M-33 444q23 109 53 182.5t80 133.5q46 49 117.5 71t136 17.5t116.5 -22.5t67 -42q19 -31 12.5 -98t-33.5 -133q-16 -39 -35 -75t-49.5 -75t-65 -65.5t-81.5 -41t-99 -7.5q-5 -68 56 -100q65 -34 147 0q92 39 146 147q48 98 61 131q18 23 43 24t44.5 -19.5t12.5 -45.5 q-67 -169 -133 -270q-43 -70 -112 -109.5t-142 -46t-144.5 20.5t-123 80t-74 143t-0.5 200zM205 473q83 -36 137 78q26 51 30 92t-14 49q-35 6 -76 -50.5t-77 -168.5zM236 1000q24 28 56 24q24 -2 34 -27q19 -35 55 -60.5t59 -31.5q11 -3 17 -11t0.5 -16t-21.5 -10 q-116 -13 -196 62q-33 35 -4 70z" />
<glyph unicode="&#xe9;" horiz-adv-x="587" d="M-33 444q23 109 53 182.5t80 133.5q46 49 117.5 71t136 17.5t116.5 -22.5t67 -42q19 -31 12.5 -98t-33.5 -133q-16 -39 -35 -75t-49.5 -75t-65 -65.5t-81.5 -41t-99 -7.5q-5 -68 56 -100q65 -34 147 0q92 39 146 147q48 98 61 131q18 23 43 24t44.5 -19.5t12.5 -45.5 q-67 -169 -133 -270q-43 -70 -112 -109.5t-142 -46t-144.5 20.5t-123 80t-74 143t-0.5 200zM205 473q83 -36 137 78q26 51 30 92t-14 49q-35 6 -76 -50.5t-77 -168.5zM220.5 878q-5.5 8 0.5 16t17 11q23 6 59 31.5t55 60.5q14 36 54 25q34 -9 45 -38q11 -28 -13 -54 q-80 -75 -196 -62q-16 2 -21.5 10z" />
<glyph unicode="&#xea;" horiz-adv-x="587" d="M-33 444q23 109 53 182.5t80 133.5q46 49 117.5 71t136 17.5t116.5 -22.5t67 -42q19 -31 12.5 -98t-33.5 -133q-16 -39 -35 -75t-49.5 -75t-65 -65.5t-81.5 -41t-99 -7.5q-5 -68 56 -100q65 -34 147 0q92 39 146 147q48 98 61 131q18 23 43 24t44.5 -19.5t12.5 -45.5 q-67 -169 -133 -270q-43 -70 -112 -109.5t-142 -46t-144.5 20.5t-123 80t-74 143t-0.5 200zM205 473q83 -36 137 78q26 51 30 92t-14 49q-35 6 -76 -50.5t-77 -168.5zM247 943.5q4 14.5 23 14.5q22 0 48 17t38 47q20 39 52 27q30 -4 30 -50q-3 -31 12 -57t33 -37 q10 -6 13 -15.5t-4 -16.5t-23 -5q-53 4 -94 56q-57 -25 -109 -4q-23 9 -19 23.5z" />
<glyph unicode="&#xeb;" horiz-adv-x="587" d="M-33 444q23 109 53 182.5t80 133.5q46 49 117.5 71t136 17.5t116.5 -22.5t67 -42q19 -31 12.5 -98t-33.5 -133q-16 -39 -35 -75t-49.5 -75t-65 -65.5t-81.5 -41t-99 -7.5q-5 -68 56 -100q65 -34 147 0q92 39 146 147q48 98 61 131q18 23 43 24t44.5 -19.5t12.5 -45.5 q-67 -169 -133 -270q-43 -70 -112 -109.5t-142 -46t-144.5 20.5t-123 80t-74 143t-0.5 200zM205 473q83 -36 137 78q26 51 30 92t-14 49q-35 6 -76 -50.5t-77 -168.5zM299 973q7 23 25.5 32t37.5 3q22 -8 31.5 -25.5t-0.5 -42.5q-5 -11 -8 -16t-10.5 -11.5t-16.5 -4.5t-26 5 q-49 17 -33 60zM420 932q7 24 25.5 32.5t39.5 2.5q21 -8 31 -26.5t0 -41.5q-5 -10 -7 -13.5t-7.5 -9.5t-11 -7.5t-15 -1t-22.5 4.5q-46 16 -33 60z" />
<glyph unicode="&#xec;" horiz-adv-x="374" d="M-31 328q12 81 67.5 271.5t72.5 223.5q11 24 54 24.5t79 -13.5q42 -14 72.5 -41t29.5 -62q-110 -304 -137 -391q-32 -104 -7 -128q23 -21 71 41q25 33 51 83q27 47 63 133q17 23 41.5 24t44 -19.5t12.5 -45.5q-72 -193 -131 -274q-67 -90 -134.5 -130.5t-145.5 -13.5 q-74 25 -101 109t-2 209zM158 1002q24 28 56 24q24 -2 34 -27q19 -35 55 -60.5t59 -31.5q11 -3 17 -11t0.5 -16t-21.5 -10q-116 -13 -196 62q-33 35 -4 70z" />
<glyph unicode="&#xed;" horiz-adv-x="374" d="M-31 328q12 81 67.5 271.5t72.5 223.5q11 24 54 24.5t79 -13.5q42 -14 72.5 -41t29.5 -62q-110 -304 -137 -391q-32 -104 -7 -128q23 -21 71 41q25 33 51 83q27 47 63 133q17 23 41.5 24t44 -19.5t12.5 -45.5q-72 -193 -131 -274q-67 -90 -134.5 -130.5t-145.5 -13.5 q-74 25 -101 109t-2 209zM136.5 882q-5.5 8 0.5 16t17 11q23 6 59 31.5t55 60.5q14 36 54 25q34 -9 45 -38q11 -28 -13 -54q-80 -75 -196 -62q-16 2 -21.5 10z" />
<glyph unicode="&#xee;" horiz-adv-x="374" d="M-31 328q12 81 67.5 271.5t72.5 223.5q11 24 54 24.5t79 -13.5q42 -14 72.5 -41t29.5 -62q-110 -304 -137 -391q-32 -104 -7 -128q23 -21 71 41q25 33 51 83q27 47 63 133q17 23 41.5 24t44 -19.5t12.5 -45.5q-72 -193 -131 -274q-67 -90 -134.5 -130.5t-145.5 -13.5 q-74 25 -101 109t-2 209zM131 943.5q4 14.5 23 14.5q22 0 48 17t38 47q20 39 51 27q13 -2 22 -15t9 -35q-3 -31 12 -57t33 -37q17 -9 13.5 -24.5t-28.5 -12.5q-53 4 -94 56q-56 -25 -108 -4q-23 9 -19 23.5z" />
<glyph unicode="&#xef;" horiz-adv-x="374" d="M-31 328q12 81 67.5 271.5t72.5 223.5q11 24 54 24.5t79 -13.5q42 -14 72.5 -41t29.5 -62q-110 -304 -137 -391q-32 -104 -7 -128q23 -21 71 41q25 33 51 83q27 47 63 133q17 23 41.5 24t44 -19.5t12.5 -45.5q-72 -193 -131 -274q-67 -90 -134.5 -130.5t-145.5 -13.5 q-74 25 -101 109t-2 209zM174 973q7 22 25.5 31.5t38.5 3.5q22 -8 31 -25.5t-1 -42.5q-5 -11 -8 -16t-10.5 -11.5t-16.5 -4.5t-26 5q-49 17 -33 60zM295 932q7 24 25.5 32.5t39.5 2.5q21 -8 31 -26.5t0 -41.5q-5 -10 -7 -13.5t-7.5 -9.5t-11 -7.5t-15 -1t-22.5 4.5 q-46 16 -33 60z" />
<glyph unicode="&#xf1;" horiz-adv-x="659" d="M-76 98q4 53 46 224.5t84 330t44 170.5q24 12 64 10t81 -26t48 -59q-8 -38 -109 -371q16 30 98.5 207t100.5 213q26 51 117 47q59 0 105.5 -23.5t45.5 -58.5q-5 -17 -78 -200t-84 -222q-31 -105 -4 -129q24 -21 72 42q25 34 51 83q51 106 62 133q18 23 43 24t44.5 -19.5 t12.5 -45.5q-78 -199 -133 -274q-25 -34 -47 -59.5t-50 -49t-54 -34.5t-57 -10.5t-62 15.5q-65 32 -80.5 127t18.5 219v-4q-156 -326 -170 -340q-38 -20 -85 -17t-86 31t-38 66zM218 959q-5 33 23 57q23 19 56 14q22 -2 35 -17t27.5 -27t43.5 -9q37 2 44.5 -33t-18.5 -60 q-17 -16 -42 -16q-33 1 -53 17t-37 31t-43 14q-32 -2 -36 29z" />
<glyph unicode="&#xf2;" horiz-adv-x="745" d="M-28 476q39 171 152 274q127 116 300 90q104 -14 166 -84t80 -174q37 11 88.5 48.5t75.5 82.5q11 21 28.5 26.5t26.5 -8.5t0 -43q-42 -134 -215 -237q-8 -92 -45 -178.5t-97 -153.5t-149 -99t-190 -14q-142 26 -202 166q-57 134 -19 304zM171.5 391.5 q-10.5 -62.5 13.5 -113.5t81 -67q70 4 120.5 54t72.5 122q-86 -3 -151.5 28.5t-88.5 94.5q-37 -56 -47.5 -118.5zM354 618q-13 -47 17.5 -70.5t89.5 -23.5q6 61 -33 92t-74 2zM422 1000q24 28 56 24q24 -2 34 -27q19 -35 55 -60.5t60 -31.5q11 -3 17 -11t0.5 -16t-21.5 -10 q-117 -13 -197 62q-33 35 -4 70z" />
<glyph unicode="&#xf3;" horiz-adv-x="745" d="M-28 476q39 171 152 274q127 116 300 90q104 -14 166 -84t80 -174q37 11 88.5 48.5t75.5 82.5q11 21 28.5 26.5t26.5 -8.5t0 -43q-42 -134 -215 -237q-8 -92 -45 -178.5t-97 -153.5t-149 -99t-190 -14q-142 26 -202 166q-57 134 -19 304zM171.5 391.5 q-10.5 -62.5 13.5 -113.5t81 -67q70 4 120.5 54t72.5 122q-86 -3 -151.5 28.5t-88.5 94.5q-37 -56 -47.5 -118.5zM354 618q-13 -47 17.5 -70.5t89.5 -23.5q6 61 -33 92t-74 2zM392.5 878q-5.5 8 0.5 16t17 11q23 6 59 31.5t55 60.5q14 36 54 25q34 -9 45 -38q11 -28 -13 -54 q-80 -75 -196 -62q-16 2 -21.5 10z" />
<glyph unicode="&#xf4;" horiz-adv-x="745" d="M-28 476q39 171 152 274q127 116 300 90q104 -14 166 -84t80 -174q37 11 88.5 48.5t75.5 82.5q11 21 28.5 26.5t26.5 -8.5t0 -43q-42 -134 -215 -237q-8 -92 -45 -178.5t-97 -153.5t-149 -99t-190 -14q-142 26 -202 166q-57 134 -19 304zM171.5 391.5 q-10.5 -62.5 13.5 -113.5t81 -67q70 4 120.5 54t72.5 122q-86 -3 -151.5 28.5t-88.5 94.5q-37 -56 -47.5 -118.5zM354 618q-13 -47 17.5 -70.5t89.5 -23.5q6 61 -33 92t-74 2zM391 943.5q4 14.5 23 14.5q22 0 48 17t38 47q20 39 51 27q13 -2 22 -15t9 -35q-3 -31 12 -57 t33 -37q17 -9 13.5 -24.5t-28.5 -12.5q-53 4 -94 56q-56 -25 -108 -4q-23 9 -19 23.5z" />
<glyph unicode="&#xf5;" horiz-adv-x="745" d="M-28 476q39 171 152 274q127 116 300 90q104 -14 166 -84t80 -174q37 11 88.5 48.5t75.5 82.5q11 21 28.5 26.5t26.5 -8.5t0 -43q-42 -134 -215 -237q-8 -92 -45 -178.5t-97 -153.5t-149 -99t-190 -14q-142 26 -202 166q-57 134 -19 304zM171.5 391.5 q-10.5 -62.5 13.5 -113.5t81 -67q70 4 120.5 54t72.5 122q-86 -3 -151.5 28.5t-88.5 94.5q-37 -56 -47.5 -118.5zM354 618q-13 -47 17.5 -70.5t89.5 -23.5q6 61 -33 92t-74 2zM433 959q-5 33 23 57q23 19 56 14q22 -2 35 -17t27.5 -27t43.5 -9q37 2 44.5 -33t-18.5 -60 q-17 -16 -42 -16q-33 1 -53 17t-37 31t-43 14q-32 -2 -36 29z" />
<glyph unicode="&#xf6;" horiz-adv-x="745" d="M-28 476q39 171 152 274q127 116 300 90q104 -14 166 -84t80 -174q37 11 88.5 48.5t75.5 82.5q11 21 28.5 26.5t26.5 -8.5t0 -43q-42 -134 -215 -237q-8 -92 -45 -178.5t-97 -153.5t-149 -99t-190 -14q-142 26 -202 166q-57 134 -19 304zM171.5 391.5 q-10.5 -62.5 13.5 -113.5t81 -67q70 4 120.5 54t72.5 122q-86 -3 -151.5 28.5t-88.5 94.5q-37 -56 -47.5 -118.5zM354 618q-13 -47 17.5 -70.5t89.5 -23.5q6 61 -33 92t-74 2zM442 973q7 22 25.5 31.5t38.5 3.5q22 -8 31.5 -25.5t-0.5 -42.5q-6 -14 -11 -20t-18 -11t-33 4 q-49 17 -33 60zM563 932q7 24 26 32.5t40 2.5q21 -8 30.5 -26.5t-0.5 -41.5q-5 -10 -7 -13.5t-7.5 -9.5t-11 -7.5t-15 -1t-22.5 4.5q-46 16 -33 60z" />
<glyph unicode="&#xf7;" horiz-adv-x="434" d="M161.5 85.5q-2.5 15.5 2.5 33.5q16 99 106 86q49 -9 72.5 -42t15.5 -75q-7 -45 -39 -71t-81 -13q-13 4 -20 6.5t-18.5 7t-16 9.5t-12 14t-7.5 19t-2.5 25.5zM202 334q2 16 3 39q16 97 106 84q49 -7 72.5 -40.5t15.5 -76.5q-7 -45 -39 -70.5t-81 -11.5q-15 4 -23.5 6.5 t-20.5 8.5t-16.5 13t-11.5 19.5t-5 28.5z" />
<glyph unicode="&#xf8;" horiz-adv-x="745" d="M-40 400q8 88 44 173.5t92.5 150t142.5 98t185 18.5q5 -1 16.5 -3t16.5 -3q19 25 60 30.5t70.5 -13t18.5 -54.5q-10 -25 -18 -41q63 -66 82 -174q37 11 88.5 48.5t75.5 82.5q11 21 28.5 26.5t26.5 -8.5t0 -43q-42 -134 -215 -237q-8 -92 -45 -178.5t-97 -153.5t-149 -99 t-190 -14q-22 4 -33 8q-4 -4 -4 -6q-18 -18 -50.5 -14.5t-62.5 22.5t-27 35q15 25 25 39q-49 56 -69 139t-12 171zM172 315q16 26 45 78t35 62q-25 25 -33 55q-30 -45 -42.5 -97.5t-4.5 -97.5zM285 213q63 10 108.5 58.5t65.5 115.5q-24 -2 -70 2q-35 -61 -104 -176z" />
<glyph unicode="&#xf9;" d="M-31 328q14 80 69 270t71 225q12 24 55.5 24.5t77.5 -13.5q42 -14 73.5 -41t28.5 -62q-6 -17 -61 -171t-76 -220q-29 -92 3 -123q24 -24 63 11q34 30 59 91q16 39 80 265t71 239q11 24 56.5 24.5t81.5 -13.5q42 -14 72.5 -41t29.5 -62q-110 -304 -137 -391 q-33 -105 -7 -128q23 -21 72 43q24 33 49 81q58 119 64 133q17 23 43 24t47 -19.5t14 -45.5q-66 -177 -137 -274q-67 -90 -134.5 -130.5t-145.5 -13.5q-85 28 -107 127q-54 -84 -113 -115t-135 -16q-82 16 -119 97.5t-8 224.5zM289 1000q24 28 56 24q24 -2 34 -27 q19 -35 55 -60.5t60 -31.5q11 -3 16.5 -11t0 -16t-21.5 -10q-116 -13 -196 62q-33 35 -4 70z" />
<glyph unicode="&#xfa;" d="M-31 328q14 80 69 270t71 225q12 24 55.5 24.5t77.5 -13.5q42 -14 73.5 -41t28.5 -62q-6 -17 -61 -171t-76 -220q-29 -92 3 -123q24 -24 63 11q34 30 59 91q16 39 80 265t71 239q11 24 56.5 24.5t81.5 -13.5q42 -14 72.5 -41t29.5 -62q-110 -304 -137 -391 q-33 -105 -7 -128q23 -21 72 43q24 33 49 81q58 119 64 133q17 23 43 24t47 -19.5t14 -45.5q-66 -177 -137 -274q-67 -90 -134.5 -130.5t-145.5 -13.5q-85 28 -107 127q-54 -84 -113 -115t-135 -16q-82 16 -119 97.5t-8 224.5zM300.5 878q-5.5 8 0 16t16.5 11q24 6 60 31.5 t55 60.5q14 36 54 25q34 -9 45 -38q11 -28 -13 -54q-80 -75 -196 -62q-16 2 -21.5 10z" />
<glyph unicode="&#xfb;" d="M-31 328q14 80 69 270t71 225q12 24 55.5 24.5t77.5 -13.5q42 -14 73.5 -41t28.5 -62q-6 -17 -61 -171t-76 -220q-29 -92 3 -123q24 -24 63 11q34 30 59 91q16 39 80 265t71 239q11 24 56.5 24.5t81.5 -13.5q42 -14 72.5 -41t29.5 -62q-110 -304 -137 -391 q-33 -105 -7 -128q23 -21 72 43q24 33 49 81q58 119 64 133q17 23 43 24t47 -19.5t14 -45.5q-66 -177 -137 -274q-67 -90 -134.5 -130.5t-145.5 -13.5q-85 28 -107 127q-54 -84 -113 -115t-135 -16q-82 16 -119 97.5t-8 224.5zM296 943.5q4 14.5 23 14.5q22 0 48.5 17 t38.5 47q20 39 51 27q30 -4 30 -50q-3 -31 12 -57t33 -37q10 -6 13 -15.5t-4 -16.5t-23 -5q-53 4 -94 56q-57 -25 -109 -4q-23 9 -19 23.5z" />
<glyph unicode="&#xfc;" d="M-31 328q14 80 69 270t71 225q12 24 55.5 24.5t77.5 -13.5q42 -14 73.5 -41t28.5 -62q-6 -17 -61 -171t-76 -220q-29 -92 3 -123q24 -24 63 11q34 30 59 91q16 39 80 265t71 239q11 24 56.5 24.5t81.5 -13.5q42 -14 72.5 -41t29.5 -62q-110 -304 -137 -391 q-33 -105 -7 -128q23 -21 72 43q24 33 49 81q58 119 64 133q17 23 43 24t47 -19.5t14 -45.5q-66 -177 -137 -274q-67 -90 -134.5 -130.5t-145.5 -13.5q-85 28 -107 127q-54 -84 -113 -115t-135 -16q-82 16 -119 97.5t-8 224.5zM311 975q7 22 25.5 31.5t38.5 3.5 q22 -8 31.5 -25.5t-0.5 -42.5q-6 -14 -11 -20t-18 -11t-33 4q-49 17 -33 60zM432 934q7 24 26 32.5t40 2.5q21 -8 30.5 -26.5t-0.5 -41.5q-5 -10 -7 -13.5t-7.5 -9.5t-11 -7.5t-15 -1t-22.5 4.5q-46 16 -33 60z" />
<glyph unicode="&#xfd;" horiz-adv-x="759" d="M-119 -375q-32 94 42.5 205t232.5 176q-4 0 -12 1t-11 1q-88 17 -142 100t-26 222q13 81 67.5 271.5t71.5 223.5q12 24 56 24.5t78 -13.5q42 -14 72.5 -41t29.5 -62q-6 -17 -61 -171t-76 -220q-27 -86 14 -120q33 -28 80 0q48 30 72 100q63 181 100 473q1 50 68 52 q66 1 128 -38q54 -34 50 -72q-58 -368 -146 -555q0 -4 -2 -6q117 44 203 252q26 61 69 60q31 0 43 -31q8 -21 -1 -45q-29 -85 -72.5 -152.5t-94.5 -111t-100 -71t-102 -44.5q-4 0 -6 -2t-2 -6q-92 -196 -208 -314t-245 -141q-54 -10 -106 3t-64 52zM48 -274q0 -6 9 -2 q88 70 156 188q-71 -55 -131 -125q-36 -45 -34 -61zM283.5 878q-5.5 8 0.5 16t17 11q24 6 60 31.5t55 60.5q14 36 54 25q34 -9 45 -38q11 -28 -13 -54q-80 -75 -197 -62q-16 2 -21.5 10z" />
<glyph unicode="&#xff;" horiz-adv-x="759" d="M-119 -375q-32 94 42.5 205t232.5 176q-4 0 -12 1t-11 1q-88 17 -142 100t-26 222q13 81 67.5 271.5t71.5 223.5q12 24 56 24.5t78 -13.5q42 -14 72.5 -41t29.5 -62q-6 -17 -61 -171t-76 -220q-27 -86 14 -120q33 -28 80 0q48 30 72 100q63 181 100 473q1 50 68 52 q66 1 128 -38q54 -34 50 -72q-58 -368 -146 -555q0 -4 -2 -6q117 44 203 252q26 61 69 60q31 0 43 -31q8 -21 -1 -45q-29 -85 -72.5 -152.5t-94.5 -111t-100 -71t-102 -44.5q-4 0 -6 -2t-2 -6q-92 -196 -208 -314t-245 -141q-54 -10 -106 3t-64 52zM48 -274q0 -6 9 -2 q88 70 156 188q-71 -55 -131 -125q-36 -45 -34 -61zM301 973q7 22 25.5 31.5t38.5 3.5q22 -8 31 -25.5t-1 -42.5q-5 -11 -8 -16t-10.5 -11.5t-16.5 -4.5t-26 5q-49 17 -33 60zM422 932q7 24 25.5 32.5t39.5 2.5q21 -8 31 -26.5t0 -41.5q-5 -10 -7 -13.5t-7.5 -9.5t-11 -7.5 t-15 -1t-22.5 4.5q-46 16 -33 60z" />
<glyph unicode="&#x152;" horiz-adv-x="1298" d="M1.5 357.5q-6.5 103.5 7.5 218t44.5 233t81.5 227t114 195.5t146 142.5t174 64.5q34 3 89 -9t102 -34q56 13 109.5 22.5t103.5 14.5t90.5 9t85.5 3.5t72.5 -0.5t67.5 -3.5t54 -5t49.5 -6t37.5 -4.5q18 -16 21 -53.5t-5 -74.5t-23 -68t-30 -35q-12 -1 -139.5 -0.5 t-247.5 -11.5q-103 -377 -109 -398q152 22 219 27q55 2 55 -57q0 -60 -48 -125q-44 -58 -89 -66q-26 -3 -96.5 -11t-110.5 -13v-2q-74 -260 -84 -293q319 24 336 26q53 3 96 -58q41 -58 32 -112q-9 -45 -56 -53q-396 -36 -688 -47q-21 3 -39 31q-32 -14 -70 -23 q-47 -11 -116 12t-127.5 68t-75.5 92q-27 74 -33.5 177.5zM214.5 328q10.5 -96 47.5 -148q78 12 151.5 77t128 158.5t93.5 207t53.5 221t1.5 203.5t-57 151q-76 -5 -148 -68t-124 -157.5t-90 -211t-52.5 -227t-4 -206.5z" />
<glyph unicode="&#x153;" horiz-adv-x="1095" d="M-28 476q39 172 152 275q127 117 300 91q109 -17 176 -97l10 15q46 49 118 71t137 17.5t117 -22.5t67 -42q18 -30 12 -98t-33 -133q-17 -40 -36 -75t-50 -74.5t-65.5 -66t-81.5 -41t-99 -7.5q-5 -68 55 -100q65 -34 148 0q94 38 148 147q9 21 30 65t31 66q17 23 41.5 24 t44 -19.5t12.5 -45.5q-62 -164 -131 -270q-60 -97 -164.5 -135t-208.5 -9.5t-167 113.5q-144 -154 -342 -119q-143 26 -202 167q-57 133 -19 303zM171.5 392q-10.5 -63 13.5 -114t81 -67q70 4 120.5 54.5t72.5 121.5q-87 -3 -152.5 29t-87.5 96q-37 -57 -47.5 -120zM354 618 q-13 -47 17.5 -70.5t89.5 -23.5q6 61 -33 92t-74 2zM717 473q80 -36 137 78q24 52 28 92.5t-14 48.5q-35 6 -76 -50.5t-75 -168.5z" />
<glyph unicode="&#x178;" horiz-adv-x="907" d="M10 729q110 432 185 621q19 48 95 69t124 -5q39 -21 28 -66q-83 -292 -180 -586q-29 -106 -0.5 -173.5t90.5 -82.5q85 -20 142.5 26t99.5 173q13 35 92 317.5t96 335.5q17 49 91 67q70 17 113 -9q32 -21 22 -58q-27 -139 -103.5 -406t-120.5 -401q-29 -92 -91 -154.5 t-133 -86.5t-144 -17q-43 -129 -70 -209q-18 -53 -77.5 -75t-110 0.5t-43.5 78.5q9 56 73 256q-54 19 -102.5 73.5t-73 139.5t-2.5 172zM502 1575q7 23 25.5 32t37.5 3q22 -8 31.5 -25.5t-0.5 -42.5q-5 -11 -8 -16t-10 -10.5t-17 -5t-26 5.5q-49 17 -33 59zM623 1534 q7 24 25.5 32.5t39.5 2.5q21 -8 31 -26.5t0 -41.5q-6 -11 -9.5 -16t-10.5 -10.5t-17.5 -5t-26.5 5.5q-45 15 -32 59z" />
<glyph unicode="&#x2c6;" horiz-adv-x="835" d="M298.5 943.5q4.5 14.5 23.5 14.5q22 0 48 17t38 47q20 39 51 27q30 -4 30 -50q-3 -31 12.5 -57t33.5 -37q17 -9 13.5 -24.5t-28.5 -12.5q-53 4 -94 56q-57 -25 -109 -4q-23 9 -18.5 23.5z" />
<glyph unicode="&#x2dc;" horiz-adv-x="935" d="M359 959q-5 33 23 57q23 19 56 14q18 -2 30.5 -11.5t18.5 -19.5t20.5 -17t37.5 -5q37 2 44 -33t-19 -60q-17 -16 -42 -16q-33 1 -53 17t-37 31t-43 14q-32 -2 -36 29z" />
<glyph unicode="&#x2000;" horiz-adv-x="831" />
<glyph unicode="&#x2001;" horiz-adv-x="1662" />
<glyph unicode="&#x2002;" horiz-adv-x="831" />
<glyph unicode="&#x2003;" horiz-adv-x="1662" />
<glyph unicode="&#x2004;" horiz-adv-x="554" />
<glyph unicode="&#x2005;" horiz-adv-x="415" />
<glyph unicode="&#x2006;" horiz-adv-x="277" />
<glyph unicode="&#x2007;" horiz-adv-x="277" />
<glyph unicode="&#x2008;" horiz-adv-x="207" />
<glyph unicode="&#x2009;" horiz-adv-x="332" />
<glyph unicode="&#x200a;" horiz-adv-x="92" />
<glyph unicode="&#x2010;" horiz-adv-x="776" d="M96 220q-5 52 16 104t54 53q119 6 387 0q27 -10 27.5 -56t-28.5 -98.5t-65 -54.5q-29 -2 -172 -0.5t-184 0.5q-30 0 -35 52z" />
<glyph unicode="&#x2011;" horiz-adv-x="776" d="M96 220q-5 52 16 104t54 53q119 6 387 0q27 -10 27.5 -56t-28.5 -98.5t-65 -54.5q-29 -2 -172 -0.5t-184 0.5q-30 0 -35 52z" />
<glyph unicode="&#x2012;" horiz-adv-x="776" d="M96 220q-5 52 16 104t54 53q119 6 387 0q27 -10 27.5 -56t-28.5 -98.5t-65 -54.5q-29 -2 -172 -0.5t-184 0.5q-30 0 -35 52z" />
<glyph unicode="&#x2013;" horiz-adv-x="1314" d="M97 220q-11 52 33.5 104t114.5 53q251 6 816 0q57 -10 58 -56t-60 -98.5t-137 -54.5q-61 -2 -363 -0.5t-388 0.5q-63 0 -74 52z" />
<glyph unicode="&#x2014;" horiz-adv-x="2337" d="M99 220q-21 52 67.5 104t227.5 53q502 6 1633 0q114 -10 116 -56t-120.5 -98.5t-273.5 -54.5q-123 -2 -726 -0.5t-776 0.5q-127 0 -148 52z" />
<glyph unicode="&#x2019;" horiz-adv-x="565" d="M209 1128q-9 12 0.5 24.5t28.5 16.5q18 5 32 12.5t31 24.5t30 49t19 76q7 81 56 98q38 14 69 -21q41 -45 16 -121q-3 -10 -8 -21q-25 -49 -58.5 -82t-67.5 -47t-60 -19t-51 -4q-28 2 -37 14z" />
<glyph unicode="&#x202f;" horiz-adv-x="332" />
<glyph unicode="&#x205f;" horiz-adv-x="415" />
<glyph unicode="&#x20ac;" horiz-adv-x="1058" d="M101 380.5q-4 40.5 13 81.5t44 42q38 0 61 2q0 9 4 33h-55q-25 0 -29 40t14 80.5t46 42.5h63q51 151 141 254q61 69 130.5 108t129 46t106 0t79.5 -25q32 -18 67 -85.5t35 -106.5q-7 -75 -49.5 -154.5t-105.5 -140.5q-34 -25 -74.5 -11.5t-67.5 50t-8 57.5 q140 157 98 197q-44 42 -123.5 -13t-142.5 -176h45q22 -9 22.5 -44t-23.5 -76t-54 -43q-16 -2 -55 -2q-6 -15 -9 -33h74q22 -9 22.5 -44.5t-23.5 -76.5t-54 -43h-35q9 -112 79 -137q70 -26 156 47q81 69 140 199q11 24 34.5 29.5t48.5 -5t47 -26.5t33.5 -36t4.5 -34 q-62 -128 -144 -220.5t-181.5 -134t-194.5 -8.5q-78 27 -133 118.5t-66 207.5h-82q-24 0 -28 40.5z" />
<glyph unicode="&#x2122;" horiz-adv-x="843" d="M104 969q16 64 84 293q-10 2 -24 2q-16 5 -29 36q-11 32 8 33q3 1 11.5 1.5t25.5 1t29 1.5q15 55 27 84q5 20 57 4q17 -5 30.5 -17t12.5 -26l-12 -36q37 0 65 4q31 1 9 -39q-20 -37 -48 -54q-7 -4 -12 -4q-4 0 -18.5 1t-24.5 1q-70 -218 -90 -280q-12 -42 7 -43 q20 0 44 41l14 31q8 34 19.5 77t18 69l7.5 30q13 10 45 -0.5t35 -32.5q-3 -16 -23 -83.5t-22 -74.5q6 14 41 89t41 89q9 17 37 20t52.5 -7t23.5 -27q-3 -15 -26 -85t-25 -79q7 15 41.5 91t39.5 87q9 17 37 20t52.5 -7t23.5 -27q-1 -3 -30.5 -82t-34.5 -96q-17 -52 0 -56 q16 -4 42 42l7 12q5 9 26 55q9 17 28.5 9.5t14.5 -25.5q-30 -82 -57 -115q-63 -86 -115 -59q-56 29 -22 157q-63 -148 -74 -155q-22 -15 -55.5 -3.5t-32.5 35.5q3 28 21 117q-65 -138 -76 -149q-20 -14 -52 -5t-36 31q-46 -46 -92 -30q-65 21 -46 133z" />
<glyph unicode="&#x25fc;" horiz-adv-x="849" d="M0 0v850h850v-850h-850z" />
</font>
</defs>
</svg>
