<?xml version="1.0" standalone="no"?>
<!DOCTYPE svg PUBLIC "-//W3C//DTD SVG 1.1//EN" "http://www.w3.org/Graphics/SVG/1.1/DTD/svg11.dtd" >
<svg xmlns="http://www.w3.org/2000/svg" xmlns:xlink="http://www.w3.org/1999/xlink" version="1.1">
<metadata></metadata>
<defs>
<font id="okuba_cloud__gregular" horiz-adv-x="1024" >
<font-face units-per-em="2048" ascent="1760" descent="-288" />
<missing-glyph horiz-adv-x="536" />
<glyph horiz-adv-x="0" />
<glyph horiz-adv-x="682" />
<glyph unicode=" "  horiz-adv-x="536" />
<glyph unicode="&#x09;" horiz-adv-x="536" />
<glyph unicode="&#xa0;" horiz-adv-x="536" />
<glyph unicode="!" />
<glyph unicode="&#x22;" />
<glyph unicode="#" />
<glyph unicode="$" />
<glyph unicode="%" />
<glyph unicode="&#x26;" />
<glyph unicode="'" />
<glyph unicode="(" />
<glyph unicode=")" />
<glyph unicode="*" />
<glyph unicode="+" />
<glyph unicode="," />
<glyph unicode="-" />
<glyph unicode="." />
<glyph unicode="/" />
<glyph unicode="0" horiz-adv-x="1472" d="M60 1272q2 122 86 233t202 107h776q118 4 202 -107t86 -233l-36 -1152q-32 -126 -196 -120h-888q-164 -6 -196 120zM628 952l20 -672q14 -48 56 -60h52q42 12 56 60l20 672q6 134 -48 155t-108 0t-48 -155z" />
<glyph unicode="1" horiz-adv-x="1128" d="M140 1164v396q6 52 48 52h512q118 4 202 -107t86 -233l-40 -1228q0 -42 -56 -44h-448q-56 2 -56 44l-34 1060h-174q-40 2 -40 60z" />
<glyph unicode="2" horiz-adv-x="1472" d="M60 1272q2 122 86 233t202 107h776q118 4 202 -107t86 -233l-8 -304q-16 -260 -78 -312q-36 -38 -364 -84t-318 -108l4 -184q14 -48 56 -60h52q42 12 56 60l4 124q0 42 52 44h456q56 -2 56 -44l-8 -284q-32 -126 -196 -120h-884q-164 -6 -196 120l-6 296q2 102 83 159 t231 97t258 64t144 47t38 169q6 134 -48 155t-108 0t-48 -155l4 -80q0 -42 -52 -44h-472q-46 0 -48 44z" />
<glyph unicode="3" horiz-adv-x="1472" d="M60 1272q2 122 86 233t202 107h776q118 4 202 -107t86 -233l-8 -284q-14 -186 -84 -272q-112 -70 -236 -88q208 -60 261 -200t31 -308q-32 -126 -196 -120h-884q-164 -6 -196 120l-8 284q0 42 56 44h456q52 -2 52 -44l4 -124q14 -48 56 -60h52q42 12 56 60l6 232h-362 q-40 2 -40 60v120q6 52 48 52h362l6 208q6 134 -48 155t-108 0t-48 -155l4 -80q0 -42 -52 -44h-472q-46 0 -48 44z" />
<glyph unicode="4" horiz-adv-x="1474" d="M92 492q-32 56 2 375t132 519t276 226h864q56 -2 56 -44l-48 -1524q0 -42 -52 -44h-452q-56 2 -56 44l12 372h-552q-128 2 -182 76zM638 646h196l12 462q-74 6 -124 -47t-69 -199t-15 -216z" />
<glyph unicode="5" horiz-adv-x="1472" d="M60 1272q2 122 86 233t202 107h448h328h240q42 0 48 -52v-384q0 -58 -40 -60h-552q-94 4 -144 -8q-54 -22 -48 -156q2 -146 38 -169t144 -47t258 -64t231 -97t83 -159l-6 -296q-32 -126 -196 -120h-884q-164 -6 -196 120l-8 284q0 42 56 44h456q52 -2 52 -44l4 -124 q14 -48 56 -60h52q42 12 56 60l4 184q10 62 -318 108t-364 84q-62 52 -78 312z" />
<glyph unicode="6" horiz-adv-x="1472" d="M60 1272q2 122 86 233t202 107h776q118 4 202 -107t86 -233l-12 -400q-2 -44 -48 -44h-472q-52 2 -52 44l4 80q6 134 -48 155t-108 0t-48 -155l6 -208h410q142 -8 243 -120t85 -504q-32 -126 -196 -120h-884q-164 -6 -196 120zM642 512l6 -232q14 -48 56 -60h52 q42 12 56 60l8 232h-178z" />
<glyph unicode="7" horiz-adv-x="1472" d="M60 1272q2 122 86 233t202 107h776q118 4 202 -107t86 -233l-148 -1228q0 -42 -52 -44h-452q-56 2 -56 44l140 908q6 134 -48 155t-108 0t-48 -155l4 -80q0 -42 -52 -44h-472q-46 0 -48 44z" />
<glyph unicode="8" horiz-adv-x="1476" d="M60 1272q2 122 86 233t202 107h780q118 4 202 -107t86 -233l-8 -284q-14 -186 -84 -274q-112 -68 -236 -86q208 -60 261 -200t31 -308q-32 -126 -196 -120h-892q-164 -6 -196 120q-22 168 31 308t261 200q-124 18 -236 86q-70 88 -84 274zM628 384q-6 -134 48 -155t108 0 t48 155l-20 68q-14 48 -56 60h-52q-42 -12 -56 -60zM628 952l20 -148q14 -48 56 -60h52q42 12 56 60l20 148q6 134 -48 155t-108 0t-48 -155z" />
<glyph unicode="9" horiz-adv-x="1476" d="M60 1272q2 122 86 233t202 107h972q104 -26 96 -152l-40 -1416q0 -42 -52 -44h-452q-56 2 -56 44l12 376q-134 -2 -354 46t-322 144q-70 88 -84 378zM640 952q2 -218 52 -272q60 -34 144 -32l12 472q-120 2 -165 -21t-43 -147z" />
<glyph unicode=":" />
<glyph unicode=";" />
<glyph unicode="&#x3c;" />
<glyph unicode="=" />
<glyph unicode="&#x3e;" />
<glyph unicode="?" />
<glyph unicode="@" />
<glyph unicode="A" horiz-adv-x="1468" d="M60 1272q2 122 86 233q81 107 194 107h8h772h8q113 0 194 -107q84 -111 86 -233l-44 -1228q0 -42 -52 -44h-452q-56 2 -56 44l12 468h-164l12 -468q0 -42 -56 -44h-452q-52 2 -52 44zM628 952l12 -208h180l12 208q1 13 1 26q0 110 -49 129q-27 11 -54 11l-54 -11 q-49 -19 -49 -129q0 -13 1 -26z" />
<glyph unicode="B" horiz-adv-x="1476" d="M60 1460q-1 9 -1 17q0 110 97 135h972h8q113 0 194 -107q84 -111 86 -233l-8 -284q-14 -186 -84 -274q-112 -68 -236 -86q208 -60 261 -200q37 -99 37 -212q0 -47 -6 -96q-31 -120 -181 -120h-15h-888h-15q-151 0 -181 120zM628 1120l12 -380h9q78 0 135 32q50 54 52 180 v10q0 115 -43 137q-41 21 -146 21h-19zM648 512l8 -292h104q42 12 56 60v28q0 137 -36 172q-35 33 -108 33q-11 0 -24 -1z" />
<glyph unicode="C" horiz-adv-x="1472" d="M60 1272q2 122 86 233q81 107 194 107h8h776h8q113 0 194 -107q84 -111 86 -233l-12 -400q-2 -44 -48 -44h-472q-52 2 -52 44l4 80q1 13 1 26q0 110 -49 129q-27 11 -54 11l-54 -11q-49 -19 -49 -129q0 -12 1 -26l20 -672q14 -48 56 -60h52q42 12 56 60l4 124q0 42 52 44 h456q56 -2 56 -44l-8 -284q-31 -120 -181 -120h-15h-884h-15q-151 0 -181 120z" />
<glyph unicode="D" horiz-adv-x="1478" d="M60 1460q-1 9 -1 17q0 110 97 135h932q156 -10 243 -128q85 -115 85 -296v-8l-20 -516q-36 -474 -118 -571q-79 -93 -158 -93h-6h-818h-15q-151 0 -181 120zM628 1120l28 -900h64q84 36 100 236l16 496q0 112 -44 141q-41 27 -149 27h-15z" />
<glyph unicode="E" horiz-adv-x="1472" d="M60 1272q2 122 86 233q81 107 194 107h8h776h8q113 0 194 -107q84 -111 86 -233l-12 -400q-2 -44 -48 -44h-472q-52 2 -52 44l4 80q1 13 1 26q0 110 -49 129q-27 11 -54 11l-54 -11q-49 -19 -49 -129q0 -12 1 -26l6 -208h362q42 0 48 -52v-120q0 -58 -40 -60h-362l6 -232 q14 -48 56 -60h52q42 12 56 60l4 124q0 42 52 44h456q56 -2 56 -44l-8 -284q-31 -120 -181 -120h-15h-884h-15q-151 0 -181 120z" />
<glyph unicode="F" horiz-adv-x="1472" d="M60 1272q2 122 86 233q81 107 194 107h8h776h8q113 0 194 -107q84 -111 86 -233l-12 -400q-2 -44 -48 -44h-472q-52 2 -52 44l4 80q1 13 1 26q0 110 -49 129q-27 11 -54 11l-54 -11q-49 -19 -49 -129q0 -12 1 -26l6 -208h362q42 0 48 -52v-120q0 -58 -40 -60h-362 l14 -468q0 -42 -56 -44h-452q-52 2 -52 44z" />
<glyph unicode="G" horiz-adv-x="1472" d="M60 1272q2 122 86 233q81 107 194 107h8h776h8q113 0 194 -107q84 -111 86 -233l-12 -400q-2 -44 -48 -44h-472q-52 2 -52 44l4 80q1 13 1 26q0 110 -49 129q-27 11 -54 11l-54 -11q-49 -19 -49 -129q0 -13 1 -26l20 -672q14 -48 56 -60h52q42 12 56 60l8 232h-56 q-40 2 -40 60v120q6 52 48 52h272q142 -8 243 -120q87 -97 87 -402q0 -48 -2 -102q-31 -120 -181 -120h-15h-884h-15q-150 0 -181 120z" />
<glyph unicode="H" horiz-adv-x="1488" d="M52 1568q0 42 56 44h452q52 -2 52 -44l28 -824h208l28 824q0 42 52 44h452q56 -2 56 -44l-48 -1524q0 -42 -52 -44h-452q-56 2 -56 44l12 470h-192l12 -470q0 -42 -56 -44h-452q-52 2 -52 44z" />
<glyph unicode="I" horiz-adv-x="760" d="M52 1568q0 42 56 44h544q56 -2 56 -44l-48 -1524q0 -42 -56 -44h-448q-56 2 -56 44z" />
<glyph unicode="J" horiz-adv-x="1456" d="M60 512q0 42 56 44h456q52 -2 52 -44l8 -232q14 -48 56 -60h52q42 12 56 60l40 1288q0 42 52 44h452q56 -2 56 -44l-48 -1448q-31 -120 -181 -120h-15h-884h-15q-150 0 -181 120z" />
<glyph unicode="K" horiz-adv-x="1488" d="M52 1568q0 42 56 44h452q52 -2 52 -44l24 -824q112 8 159 79t55 111l26 634q0 42 52 44h452q56 -2 56 -44l-20 -656q-20 -118 -100 -204q-116 -58 -236 -76q162 -46 234 -140t78 -312l-4 -136q0 -42 -52 -44h-452q-56 2 -56 44l4 148q-6 228 -49 279q-38 46 -123 46 q-10 0 -20 -1l20 -472q0 -42 -56 -44h-452q-52 2 -52 44z" />
<glyph unicode="L" horiz-adv-x="1372" d="M60 1568q0 42 56 44h452q52 -2 52 -44l40 -1288q14 -48 56 -60h548q42 0 48 -52v-108q0 -58 -40 -60h-968h-15q-151 0 -181 120z" />
<glyph unicode="M" horiz-adv-x="1800" d="M52 1568q0 42 56 44h452q42 0 58 -36q34 -58 282 -1112q248 1054 282 1112q16 36 58 36h452q56 -2 56 -44l-48 -1524q0 -42 -52 -44h-452q-56 2 -56 44l8 288l-128 -284q-40 -48 -120 -48t-120 48l-128 284l8 -288q0 -42 -56 -44h-452q-52 2 -52 44z" />
<glyph unicode="N" horiz-adv-x="1488" d="M52 1568q0 42 56 44h452q34 -6 52 -56l228 -1028l36 1040q0 42 52 44h452q56 -2 56 -44l-48 -1524q0 -42 -52 -44h-470q-62 0 -82 40l-140 384l24 -368q-8 -54 -64 -56h-452q-52 2 -52 44z" />
<glyph unicode="O" horiz-adv-x="1472" d="M60 1272q2 122 86 233q81 107 194 107h8h776h8q113 0 194 -107q84 -111 86 -233l-36 -1152q-31 -120 -181 -120h-15h-888h-15q-151 0 -181 120zM628 952l20 -672q14 -48 56 -60h52q42 12 56 60l20 672q1 13 1 26q0 110 -49 129q-27 11 -54 11l-54 -11q-49 -19 -49 -129 q0 -13 1 -26z" />
<glyph unicode="P" horiz-adv-x="1476" d="M60 1460q-1 9 -1 17q0 110 97 135h972h8q113 0 194 -107q84 -111 86 -233l-8 -284q-14 -290 -84 -378q-102 -96 -322 -144q-211 -46 -343 -46h-11l12 -376q0 -42 -56 -44h-452q-52 2 -52 44zM628 1120l12 -472h9q78 0 135 32q50 54 52 272v10q0 115 -43 137 q-41 21 -146 21h-19z" />
<glyph unicode="Q" horiz-adv-x="1472" d="M60 1272q2 122 86 233q81 107 194 107h8h776h8q113 0 194 -107q84 -111 86 -233l-36 -1152q-31 -120 -181 -120h-15h-164l8 -192q0 -42 -56 -44h-452q-52 2 -52 44l-8 192h-164h-15q-150 0 -181 120zM628 952l20 -672q14 -48 56 -60h52q42 12 56 60l20 672q1 13 1 26 q0 110 -49 129q-27 11 -54 11l-54 -11q-49 -19 -49 -129q0 -13 1 -26z" />
<glyph unicode="R" horiz-adv-x="1476" d="M60 1460q-1 9 -1 17q0 110 97 135h972h8q113 0 194 -107q84 -111 86 -233l-8 -284q-14 -194 -84 -282q-112 -56 -240 -74q158 -40 234 -192q67 -134 67 -234q0 -13 -1 -26l-4 -136q0 -42 -52 -44h-452q-56 2 -56 44l4 148q-2 132 -41 231q-37 93 -128 93h-11l16 -472 q0 -42 -56 -44h-452q-52 2 -52 44zM628 1120l12 -376h9q78 0 135 32q50 54 52 176v10q0 115 -43 137q-41 21 -146 21h-19z" />
<glyph unicode="S" horiz-adv-x="1472" d="M60 1272q2 122 86 233q81 107 194 107h8h776h8q113 0 194 -107q84 -111 86 -233l-12 -400q-2 -44 -48 -44h-472q-52 2 -52 44l4 80q1 13 1 26q0 110 -49 129q-27 11 -54 11l-54 -11q-49 -19 -49 -129q0 -12 1 -26q2 -146 38 -169t144 -47t258 -64t231 -97t83 -159 l-6 -296q-31 -120 -181 -120h-15h-884h-15q-151 0 -181 120l-8 284q0 42 56 44h456q52 -2 52 -44l4 -124q14 -48 56 -60h52q42 12 56 60l4 184q10 62 -318 108t-364 84q-62 52 -78 312z" />
<glyph unicode="T" horiz-adv-x="1472" d="M60 1176v384q6 52 48 52h1256q42 0 48 -52v-384q0 -58 -40 -60h-322l-34 -1072q0 -42 -56 -44h-448q-56 2 -56 44l-34 1072h-322q-40 2 -40 60z" />
<glyph unicode="U" horiz-adv-x="1472" d="M52 1568q0 42 56 44h452q52 -2 52 -44l44 -1288q14 -48 56 -60h52q42 12 56 60l40 1288q0 42 52 44h452q56 -2 56 -44l-48 -1448q-31 -120 -181 -120h-15h-884h-15q-151 0 -181 120z" />
<glyph unicode="V" horiz-adv-x="1472" d="M52 1568q0 42 56 44h452q52 -2 52 -44l124 -1348l124 1348q0 42 52 44h452q56 -2 56 -44l-128 -1448q-31 -120 -181 -120h-15h-724h-15q-151 0 -181 120z" />
<glyph unicode="W" horiz-adv-x="1812" d="M52 1568q0 42 56 44h452q52 -2 52 -44l28 -852l160 644q34 50 106 50t106 -50l160 -644l28 852q0 42 52 44h452q56 -2 56 -44l-48 -1524q0 -42 -52 -44h-476q-88 2 -150 56q-42 38 -128 314q-86 -276 -128 -314q-62 -54 -150 -56h-476q-52 2 -52 44z" />
<glyph unicode="X" horiz-adv-x="1488" d="M52 1568q0 42 56 44h452q52 -2 52 -44l26 -634q4 -44 26 -108t80 -86q58 22 80 86t26 108l26 634q0 42 52 44h452q56 -2 56 -44l-20 -656q-16 -122 -96 -208q-116 -58 -236 -76q210 -66 258 -196t50 -252l-4 -136q0 -42 -52 -44h-452q-56 2 -56 44l4 148q-2 132 -26 221 t-62 103q-38 -14 -62 -103t-26 -221l4 -148q0 -42 -56 -44h-452q-52 2 -52 44l-4 136q2 122 50 252t258 196q-120 18 -236 76q-80 86 -96 208z" />
<glyph unicode="Y" horiz-adv-x="1488" d="M52 1568q0 42 56 44h452q52 -2 52 -44l26 -634q4 -44 26 -108t80 -86q58 22 80 86t26 108l26 634q0 42 52 44h452q56 -2 56 -44l-20 -656q-16 -122 -96 -208q-116 -58 -276 -76l-20 -584q0 -42 -56 -44h-448q-56 2 -56 44l-20 584q-160 18 -276 76q-80 86 -96 208z" />
<glyph unicode="Z" horiz-adv-x="1472" d="M60 1164v396q6 52 48 52h1256q42 0 48 -52v-392q-24 -66 -64 -88l-732 -570l708 -2q40 -2 40 -60v-396q-6 -52 -48 -52h-1164q-42 0 -48 52v392q24 66 64 84l716 576h-784q-40 2 -40 60z" />
<glyph unicode="[" />
<glyph unicode="\" />
<glyph unicode="]" />
<glyph unicode="^" />
<glyph unicode="_" />
<glyph unicode="`" />
<glyph unicode="a" horiz-adv-x="1468" d="M60 1272q2 122 86 233q81 107 194 107h8h772h8q113 0 194 -107q84 -111 86 -233l-44 -1228q0 -42 -52 -44h-452q-56 2 -56 44l12 468h-164l12 -468q0 -42 -56 -44h-452q-52 2 -52 44zM628 952l12 -208h180l12 208q1 13 1 26q0 110 -49 129q-27 11 -54 11l-54 -11 q-49 -19 -49 -129q0 -13 1 -26z" />
<glyph unicode="b" horiz-adv-x="1476" d="M60 1460q-1 9 -1 17q0 110 97 135h972h8q113 0 194 -107q84 -111 86 -233l-8 -284q-14 -186 -84 -274q-112 -68 -236 -86q208 -60 261 -200q37 -99 37 -212q0 -47 -6 -96q-31 -120 -181 -120h-15h-888h-15q-151 0 -181 120zM628 1120l12 -380h9q78 0 135 32q50 54 52 180 v10q0 115 -43 137q-41 21 -146 21h-19zM648 512l8 -292h104q42 12 56 60v28q0 137 -36 172q-35 33 -108 33q-11 0 -24 -1z" />
<glyph unicode="c" horiz-adv-x="1472" d="M60 1272q2 122 86 233q81 107 194 107h8h776h8q113 0 194 -107q84 -111 86 -233l-12 -400q-2 -44 -48 -44h-472q-52 2 -52 44l4 80q1 13 1 26q0 110 -49 129q-27 11 -54 11l-54 -11q-49 -19 -49 -129q0 -12 1 -26l20 -672q14 -48 56 -60h52q42 12 56 60l4 124q0 42 52 44 h456q56 -2 56 -44l-8 -284q-31 -120 -181 -120h-15h-884h-15q-151 0 -181 120z" />
<glyph unicode="d" horiz-adv-x="1478" d="M60 1460q-1 9 -1 17q0 110 97 135h932q156 -10 243 -128q85 -115 85 -296v-8l-20 -516q-36 -474 -118 -571q-79 -93 -158 -93h-6h-818h-15q-151 0 -181 120zM628 1120l28 -900h64q84 36 100 236l16 496q0 112 -44 141q-41 27 -149 27h-15z" />
<glyph unicode="e" horiz-adv-x="1472" d="M60 1272q2 122 86 233q81 107 194 107h8h776h8q113 0 194 -107q84 -111 86 -233l-12 -400q-2 -44 -48 -44h-472q-52 2 -52 44l4 80q1 13 1 26q0 110 -49 129q-27 11 -54 11l-54 -11q-49 -19 -49 -129q0 -12 1 -26l6 -208h362q42 0 48 -52v-120q0 -58 -40 -60h-362l6 -232 q14 -48 56 -60h52q42 12 56 60l4 124q0 42 52 44h456q56 -2 56 -44l-8 -284q-31 -120 -181 -120h-15h-884h-15q-151 0 -181 120z" />
<glyph unicode="f" horiz-adv-x="1472" d="M60 1272q2 122 86 233q81 107 194 107h8h776h8q113 0 194 -107q84 -111 86 -233l-12 -400q-2 -44 -48 -44h-472q-52 2 -52 44l4 80q1 13 1 26q0 110 -49 129q-27 11 -54 11l-54 -11q-49 -19 -49 -129q0 -13 1 -26l6 -208h362q42 0 48 -52v-120q0 -58 -40 -60h-362 l14 -468q0 -42 -56 -44h-452q-52 2 -52 44z" />
<glyph unicode="g" horiz-adv-x="1472" d="M60 1272q2 122 86 233q81 107 194 107h8h776h8q113 0 194 -107q84 -111 86 -233l-12 -400q-2 -44 -48 -44h-472q-52 2 -52 44l4 80q1 13 1 26q0 110 -49 129q-27 11 -54 11l-54 -11q-49 -19 -49 -129q0 -13 1 -26l20 -672q14 -48 56 -60h52q42 12 56 60l8 232h-56 q-40 2 -40 60v120q6 52 48 52h272q142 -8 243 -120q87 -97 87 -402q0 -48 -2 -102q-31 -120 -181 -120h-15h-884h-15q-150 0 -181 120z" />
<glyph unicode="h" horiz-adv-x="1488" d="M52 1568q0 42 56 44h452q52 -2 52 -44l28 -824h208l28 824q0 42 52 44h452q56 -2 56 -44l-48 -1524q0 -42 -52 -44h-452q-56 2 -56 44l12 470h-192l12 -470q0 -42 -56 -44h-452q-52 2 -52 44z" />
<glyph unicode="i" horiz-adv-x="760" d="M52 1568q0 42 56 44h544q56 -2 56 -44l-48 -1524q0 -42 -56 -44h-448q-56 2 -56 44z" />
<glyph unicode="j" horiz-adv-x="1456" d="M60 512q0 42 56 44h456q52 -2 52 -44l8 -232q14 -48 56 -60h52q42 12 56 60l40 1288q0 42 52 44h452q56 -2 56 -44l-48 -1448q-31 -120 -181 -120h-15h-884h-15q-150 0 -181 120z" />
<glyph unicode="k" horiz-adv-x="1488" d="M52 1568q0 42 56 44h452q52 -2 52 -44l24 -824q112 8 159 79t55 111l26 634q0 42 52 44h452q56 -2 56 -44l-20 -656q-20 -118 -100 -204q-116 -58 -236 -76q162 -46 234 -140t78 -312l-4 -136q0 -42 -52 -44h-452q-56 2 -56 44l4 148q-6 228 -49 279q-38 46 -123 46 q-10 0 -20 -1l20 -472q0 -42 -56 -44h-452q-52 2 -52 44z" />
<glyph unicode="l" horiz-adv-x="1372" d="M60 1568q0 42 56 44h452q52 -2 52 -44l40 -1288q14 -48 56 -60h548q42 0 48 -52v-108q0 -58 -40 -60h-968h-15q-151 0 -181 120z" />
<glyph unicode="m" horiz-adv-x="1800" d="M52 1568q0 42 56 44h452q42 0 58 -36q34 -58 282 -1112q248 1054 282 1112q16 36 58 36h452q56 -2 56 -44l-48 -1524q0 -42 -52 -44h-452q-56 2 -56 44l8 288l-128 -284q-40 -48 -120 -48t-120 48l-128 284l8 -288q0 -42 -56 -44h-452q-52 2 -52 44z" />
<glyph unicode="n" horiz-adv-x="1488" d="M52 1568q0 42 56 44h452q34 -6 52 -56l228 -1028l36 1040q0 42 52 44h452q56 -2 56 -44l-48 -1524q0 -42 -52 -44h-470q-62 0 -82 40l-140 384l24 -368q-8 -54 -64 -56h-452q-52 2 -52 44z" />
<glyph unicode="o" horiz-adv-x="1472" d="M60 1272q2 122 86 233q81 107 194 107h8h776h8q113 0 194 -107q84 -111 86 -233l-36 -1152q-31 -120 -181 -120h-15h-888h-15q-151 0 -181 120zM628 952l20 -672q14 -48 56 -60h52q42 12 56 60l20 672q1 13 1 26q0 110 -49 129q-27 11 -54 11l-54 -11q-49 -19 -49 -129 q0 -13 1 -26z" />
<glyph unicode="p" horiz-adv-x="1476" d="M60 1460q-1 9 -1 17q0 111 97 135h972h8q113 0 194 -107q84 -111 86 -233l-8 -284q-14 -290 -84 -378q-102 -96 -322 -144q-211 -46 -343 -46h-11l12 -376q0 -42 -56 -44h-452q-52 2 -52 44zM628 1120l12 -472h9q78 0 135 32q50 54 52 272v10q0 115 -43 137 q-41 21 -146 21h-19z" />
<glyph unicode="q" horiz-adv-x="1472" d="M60 1272q2 122 86 233q81 107 194 107h8h776h8q113 0 194 -107q84 -111 86 -233l-36 -1152q-31 -120 -181 -120h-15h-164l8 -192q0 -42 -56 -44h-452q-52 2 -52 44l-8 192h-164h-15q-150 0 -181 120zM628 952l20 -672q14 -48 56 -60h52q42 12 56 60l20 672q1 13 1 26 q0 110 -49 129q-27 11 -54 11l-54 -11q-49 -19 -49 -129q0 -13 1 -26z" />
<glyph unicode="r" horiz-adv-x="1476" d="M60 1460q-1 9 -1 17q0 110 97 135h972h8q113 0 194 -107q84 -111 86 -233l-8 -284q-14 -194 -84 -282q-112 -56 -240 -74q158 -40 234 -192q67 -134 67 -234q0 -13 -1 -26l-4 -136q0 -42 -52 -44h-452q-56 2 -56 44l4 148q-2 132 -41 231q-37 93 -128 93h-11l16 -472 q0 -42 -56 -44h-452q-52 2 -52 44zM628 1120l12 -376h9q78 0 135 32q50 54 52 176v10q0 115 -43 137q-41 21 -146 21h-19z" />
<glyph unicode="s" horiz-adv-x="1472" d="M60 1272q2 122 86 233q81 107 194 107h8h776h8q113 0 194 -107q84 -111 86 -233l-12 -400q-2 -44 -48 -44h-472q-52 2 -52 44l4 80q1 13 1 26q0 110 -49 129q-27 11 -54 11l-54 -11q-49 -19 -49 -129q0 -12 1 -26q2 -146 38 -169t144 -47t258 -64t231 -97t83 -159 l-6 -296q-31 -120 -181 -120h-15h-884h-15q-151 0 -181 120l-8 284q0 42 56 44h456q52 -2 52 -44l4 -124q14 -48 56 -60h52q42 12 56 60l4 184q10 62 -318 108t-364 84q-62 52 -78 312z" />
<glyph unicode="t" horiz-adv-x="1472" d="M60 1176v384q6 52 48 52h1256q42 0 48 -52v-384q0 -58 -40 -60h-322l-34 -1072q0 -42 -56 -44h-448q-56 2 -56 44l-34 1072h-322q-40 2 -40 60z" />
<glyph unicode="u" horiz-adv-x="1472" d="M52 1568q0 42 56 44h452q52 -2 52 -44l44 -1288q14 -48 56 -60h52q42 12 56 60l40 1288q0 42 52 44h452q56 -2 56 -44l-48 -1448q-31 -120 -181 -120h-15h-884h-15q-151 0 -181 120z" />
<glyph unicode="v" horiz-adv-x="1472" d="M52 1568q0 42 56 44h452q52 -2 52 -44l124 -1348l124 1348q0 42 52 44h452q56 -2 56 -44l-128 -1448q-31 -120 -181 -120h-15h-724h-15q-151 0 -181 120z" />
<glyph unicode="w" horiz-adv-x="1812" d="M52 1568q0 42 56 44h452q52 -2 52 -44l28 -852l160 644q34 50 106 50t106 -50l160 -644l28 852q0 42 52 44h452q56 -2 56 -44l-48 -1524q0 -42 -52 -44h-476q-88 2 -150 56q-42 38 -128 314q-86 -276 -128 -314q-62 -54 -150 -56h-476q-52 2 -52 44z" />
<glyph unicode="x" horiz-adv-x="1488" d="M52 1568q0 42 56 44h452q52 -2 52 -44l26 -634q4 -44 26 -108t80 -86q58 22 80 86t26 108l26 634q0 42 52 44h452q56 -2 56 -44l-20 -656q-16 -122 -96 -208q-116 -58 -236 -76q210 -66 258 -196t50 -252l-4 -136q0 -42 -52 -44h-452q-56 2 -56 44l4 148q-2 132 -26 221 t-62 103q-38 -14 -62 -103t-26 -221l4 -148q0 -42 -56 -44h-452q-52 2 -52 44l-4 136q2 122 50 252t258 196q-120 18 -236 76q-80 86 -96 208z" />
<glyph unicode="y" horiz-adv-x="1488" d="M52 1568q0 42 56 44h452q52 -2 52 -44l26 -634q4 -44 26 -108t80 -86q58 22 80 86t26 108l26 634q0 42 52 44h452q56 -2 56 -44l-20 -656q-16 -122 -96 -208q-116 -58 -276 -76l-20 -584q0 -42 -56 -44h-448q-56 2 -56 44l-20 584q-160 18 -276 76q-80 86 -96 208z" />
<glyph unicode="z" horiz-adv-x="1472" d="M60 1164v396q6 52 48 52h1256q42 0 48 -52v-392q-24 -66 -64 -88l-732 -570l708 -2q40 -2 40 -60v-396q-6 -52 -48 -52h-1164q-42 0 -48 52v392q24 66 64 84l716 576h-784q-40 2 -40 60z" />
<glyph unicode="{" />
<glyph unicode="|" />
<glyph unicode="}" />
<glyph unicode="~" />
<glyph unicode="&#xa0;" />
<glyph unicode="&#xa1;" />
<glyph unicode="&#xa2;" />
<glyph unicode="&#xa3;" />
<glyph unicode="&#xa4;" />
<glyph unicode="&#xa5;" />
<glyph unicode="&#xa6;" />
<glyph unicode="&#xa7;" />
<glyph unicode="&#xa8;" />
<glyph unicode="&#xa9;" />
<glyph unicode="&#xaa;" />
<glyph unicode="&#xab;" />
<glyph unicode="&#xac;" />
<glyph unicode="&#xad;" />
<glyph unicode="&#xae;" />
<glyph unicode="&#xaf;" />
<glyph unicode="&#xb0;" />
<glyph unicode="&#xb1;" />
<glyph unicode="&#xb2;" />
<glyph unicode="&#xb3;" />
<glyph unicode="&#xb4;" />
<glyph unicode="&#xb5;" />
<glyph unicode="&#xb6;" />
<glyph unicode="&#xb7;" />
<glyph unicode="&#xb8;" />
<glyph unicode="&#xb9;" />
<glyph unicode="&#xba;" />
<glyph unicode="&#xbb;" />
<glyph unicode="&#xbc;" />
<glyph unicode="&#xbd;" />
<glyph unicode="&#xbe;" />
<glyph unicode="&#xbf;" />
<glyph unicode="&#xc0;" />
<glyph unicode="&#xc1;" />
<glyph unicode="&#xc2;" />
<glyph unicode="&#xc3;" />
<glyph unicode="&#xc4;" />
<glyph unicode="&#xc5;" />
<glyph unicode="&#xc6;" />
<glyph unicode="&#xc7;" />
<glyph unicode="&#xc8;" />
<glyph unicode="&#xc9;" />
<glyph unicode="&#xca;" />
<glyph unicode="&#xcb;" />
<glyph unicode="&#xcc;" />
<glyph unicode="&#xcd;" />
<glyph unicode="&#xce;" />
<glyph unicode="&#xcf;" />
<glyph unicode="&#xd0;" />
<glyph unicode="&#xd1;" />
<glyph unicode="&#xd2;" />
<glyph unicode="&#xd3;" />
<glyph unicode="&#xd4;" />
<glyph unicode="&#xd5;" />
<glyph unicode="&#xd6;" />
<glyph unicode="&#xd7;" />
<glyph unicode="&#xd8;" />
<glyph unicode="&#xd9;" />
<glyph unicode="&#xda;" />
<glyph unicode="&#xdb;" />
<glyph unicode="&#xdc;" />
<glyph unicode="&#xdd;" />
<glyph unicode="&#xde;" />
<glyph unicode="&#xdf;" />
<glyph unicode="&#xe0;" />
<glyph unicode="&#xe1;" />
<glyph unicode="&#xe2;" />
<glyph unicode="&#xe3;" />
<glyph unicode="&#xe4;" />
<glyph unicode="&#xe5;" />
<glyph unicode="&#xe6;" />
<glyph unicode="&#xe7;" />
<glyph unicode="&#xe8;" />
<glyph unicode="&#xe9;" />
<glyph unicode="&#xea;" />
<glyph unicode="&#xeb;" />
<glyph unicode="&#xec;" />
<glyph unicode="&#xed;" />
<glyph unicode="&#xee;" />
<glyph unicode="&#xef;" />
<glyph unicode="&#xf0;" />
<glyph unicode="&#xf1;" />
<glyph unicode="&#xf2;" />
<glyph unicode="&#xf3;" />
<glyph unicode="&#xf4;" />
<glyph unicode="&#xf5;" />
<glyph unicode="&#xf6;" />
<glyph unicode="&#xf7;" />
<glyph unicode="&#xf8;" />
<glyph unicode="&#xf9;" />
<glyph unicode="&#xfa;" />
<glyph unicode="&#xfb;" />
<glyph unicode="&#xfc;" />
<glyph unicode="&#xfd;" />
<glyph unicode="&#xfe;" />
<glyph unicode="&#xff;" />
<glyph unicode="&#x152;" />
<glyph unicode="&#x153;" />
<glyph unicode="&#x178;" />
<glyph unicode="&#x2c6;" />
<glyph unicode="&#x2dc;" />
<glyph unicode="&#x2000;" horiz-adv-x="806" />
<glyph unicode="&#x2001;" horiz-adv-x="1612" />
<glyph unicode="&#x2002;" horiz-adv-x="806" />
<glyph unicode="&#x2003;" horiz-adv-x="1612" />
<glyph unicode="&#x2004;" horiz-adv-x="537" />
<glyph unicode="&#x2005;" horiz-adv-x="403" />
<glyph unicode="&#x2006;" horiz-adv-x="268" />
<glyph unicode="&#x2007;" horiz-adv-x="268" />
<glyph unicode="&#x2008;" horiz-adv-x="201" />
<glyph unicode="&#x2009;" horiz-adv-x="322" />
<glyph unicode="&#x200a;" horiz-adv-x="89" />
<glyph unicode="&#x2010;" />
<glyph unicode="&#x2011;" />
<glyph unicode="&#x2012;" />
<glyph unicode="&#x2013;" />
<glyph unicode="&#x2014;" />
<glyph unicode="&#x2018;" />
<glyph unicode="&#x2019;" />
<glyph unicode="&#x201a;" />
<glyph unicode="&#x201c;" />
<glyph unicode="&#x201d;" />
<glyph unicode="&#x201e;" />
<glyph unicode="&#x2022;" />
<glyph unicode="&#x2026;" />
<glyph unicode="&#x202f;" horiz-adv-x="322" />
<glyph unicode="&#x2039;" />
<glyph unicode="&#x203a;" />
<glyph unicode="&#x205f;" horiz-adv-x="403" />
<glyph unicode="&#x20ac;" />
<glyph unicode="&#x2122;" />
<glyph unicode="&#x25fc;" horiz-adv-x="1610" d="M0 0v1610h1610v-1610h-1610z" />
</font>
</defs>
</svg>
