<?xml version="1.0" encoding="utf-8"?>
<!-- Generator: Adobe Illustrator 16.0.0, SVG Export Plug-In . SVG Version: 6.00 Build 0)  -->
<!DOCTYPE svg PUBLIC "-//W3C//DTD SVG 1.1//EN" "http://www.w3.org/Graphics/SVG/1.1/DTD/svg11.dtd">
<svg version="1.1" id="Layer_1" xmlns="http://www.w3.org/2000/svg" xmlns:xlink="http://www.w3.org/1999/xlink" x="0px" y="0px"
	 width="96.042px" height="49.337px" viewBox="0 0 96.042 49.337" enable-background="new 0 0 96.042 49.337" xml:space="preserve">
<g>
	<g>
		<g>
			<g>
				<path fill="#D22E2E" d="M2.645,21.409c0,0,1.809,0.893,3.873,1.125c2.064,0.235,4.082,0.761,5.061,1.52
					c0.979,0.76,2.533,3.211,2.789,4.104c0.256,0.892,0.582,1.044,0.582,1.044l3.707,0.601l-0.123,6.036l1.781-0.813l-0.27-5.45
					c0,0-0.301-1.85-1.053-4.023c-0.748-2.173-1.021-4.519-2.301-5.576c-1.281-1.057-3.301-2.186-3.301-2.186
					s-5.014-2.111-9.418,0.981C3.973,18.771,1.473,20.618,2.645,21.409z"/>
			</g>
			<g>
				<path fill="#D22E2E" d="M14.916,15.466l-0.371,2.297c0,0,1.053,0.918,1.412,1.176c0.359,0.259,1.512,1.18,1.834,1.865
					s1.697,4.777,1.975,5.959c0.275,1.178,0.691,2.113,0.691,2.113s1.736,3.717,3.563,4.18c1.828,0.462,2.662,0.663,2.662,0.663
					l3.545,0.572l1.529,0.247c0,0,1.414,3.016,2.049,3.418c0.637,0.403,1.545,0.35,2.049,0.33c0.504-0.018,2.189-0.547,2.189-0.547
					l1.441,0.684c0,0,1.105,0.596,1.367,0.83c0.264,0.234,0.799,0.638,1.904,0.308c0.563,0.233,2.068,1.128,2.068,1.128l0.391,0.063
					l-1.307-1.512l0.459-0.979c0,0,0.074,0.463,1.889,1.006s4.438,2.27,7.858,0.619c0.721-0.434,3.283-2.973,3.283-2.973
					s2.693,0.986,3.447,0.657c0.754-0.328,1.066,0.523,1.066,0.523l1.195,1.895l0.475-1.075l0.703-0.637l0.953-1.247
					c0,0,0.121-1.682-0.008-1.804c-0.133-0.121-0.682-1.061-0.682-1.061s-3.34-8.748-5.541-10.004
					c-0.57-0.492-1.383-0.725-1.383-0.725l-11.833-2.361l-6.828-1.723l-2.049-0.331c0,0,2.293,2.541,2.563,3.034
					c0.271,0.494,1.604,3.713,0.904,5.251c-0.699,1.539-2.254,2.489-3.246,2.429c-0.99-0.061-10.592-1.662-10.592-1.662l-1.92-0.51
					c0,0-1.307-1.764-0.648-2.307c0.66-0.545,2.168-1.202,2.48-1.901c0.313-0.7,0.715-4.425,0.607-5.925
					c-0.107-1.502-0.248-3.427-0.248-3.427l-0.225-1.088l0.32-2.6l-0.143-0.976l0.172-2.424c0,0,4.498,4.079,4.834,2.933
					s-1.369-5.977-1.369-5.977s-1.57-2.355-3.105-2.153c-1.535,0.203-1.443,0.567-1.727,0.772c-0.283,0.203-0.576-0.144-0.984-0.109
					c-0.404,0.033-1.371,0.429-1.432,0.818c-0.064,0.391-0.313,1.002-0.018,1.35c0.293,0.348,0.783,0.727,0.783,0.727l0.342,0.356
					c0,0-5.229,7.264-5.42,7.833C17.846,13.756,15.055,14.62,14.916,15.466z"/>
				<path fill="#D22E2E" d="M45.467,40.892l-0.693-0.119c-0.014-0.008-1.451-0.86-2.025-1.107c-0.396,0.115-0.76,0.146-1.08,0.096
					c-0.428-0.07-0.695-0.27-0.881-0.434c-0.252-0.224-1.338-0.811-1.35-0.816l-1.402-0.664c-0.256,0.078-1.703,0.521-2.178,0.539
					l-0.063,0.003c-0.313,0.013-0.74,0.027-1.172-0.041l0,0c-0.344-0.057-0.637-0.159-0.871-0.309
					c-0.615-0.39-1.875-3.011-2.064-3.413l-5.021-0.81c-0.016-0.004-0.863-0.209-2.67-0.667c-1.852-0.466-3.557-4.078-3.627-4.23
					c-0.006-0.014-0.424-0.961-0.701-2.135c-0.273-1.17-1.643-5.252-1.967-5.938c-0.307-0.653-1.432-1.561-1.803-1.826
					c-0.357-0.259-1.375-1.146-1.418-1.183L14.441,17.8l0.377-2.35c0.129-0.79,2.211-1.558,3.953-2.065
					c0.387-0.813,4.816-6.981,5.363-7.742L23.85,5.346c-0.01-0.006-0.49-0.38-0.787-0.73c-0.262-0.311-0.152-0.779-0.064-1.155
					c0.023-0.098,0.047-0.191,0.061-0.273c0.076-0.472,1.119-0.868,1.521-0.903c0.176-0.014,0.367,0.047,0.518,0.102
					c0.174,0.064,0.311,0.104,0.418,0.026c0.053-0.038,0.092-0.085,0.137-0.141c0.18-0.217,0.404-0.487,1.633-0.649
					c0.154-0.02,0.313-0.017,0.475,0.01c1.404,0.228,2.672,2.107,2.727,2.188l0.01,0.022c0.07,0.198,1.713,4.873,1.371,6.038
					c-0.035,0.123-0.15,0.322-0.52,0.262c-1.068-0.172-3.664-2.428-4.324-3.016l-0.156,2.213l0.141,0.99l-0.318,2.584l0.223,1.071
					c0.002,0.013,0.141,1.938,0.248,3.438c0.105,1.483-0.279,5.223-0.615,5.975c-0.219,0.486-0.93,0.923-1.617,1.346
					c-0.344,0.21-0.668,0.408-0.889,0.592c-0.473,0.39,0.287,1.652,0.645,2.144l1.885,0.501c0,0,0,0,0.002,0
					c0.082,0.015,2.438,0.406,4.914,0.807c3.299,0.533,5.254,0.828,5.656,0.853c0.975,0.06,2.473-0.88,3.15-2.371
					c0.645-1.421-0.539-4.503-0.9-5.162c-0.262-0.479-2.527-2.989-2.549-3.016l-0.189-0.208l2.326,0.375l6.838,1.725l11.825,2.361
					c0.045,0.01,0.85,0.244,1.43,0.745c2.191,1.249,5.432,9.686,5.57,10.044c0.201,0.344,0.566,0.942,0.654,1.023
					c0.109,0.102,0.123,0.736,0.039,1.883l-0.002,0.029l-0.971,1.271l-0.699,0.637l-0.541,1.225l-1.303-2.07
					c-0.002-0.004-0.178-0.467-0.557-0.527c-0.115-0.02-0.244,0.002-0.379,0.061c-0.217,0.094-0.572,0.1-1.088,0.018
					c-0.93-0.15-2.1-0.555-2.373-0.651c-0.355,0.35-2.578,2.536-3.258,2.944c-1.344,0.648-2.688,0.85-4.119,0.617
					c-1.014-0.164-1.912-0.514-2.704-0.822c-0.396-0.156-0.773-0.303-1.113-0.404c-1.207-0.361-1.67-0.695-1.85-0.897l-0.354,0.757
					L45.467,40.892z M44.859,40.594l0.104,0.017l-1.172-1.355l0.621-1.324l0.051,0.314l0,0c0.002,0,0.143,0.425,1.82,0.928
					c0.35,0.104,0.729,0.253,1.131,0.409c0.782,0.306,1.668,0.651,2.663,0.812c1.391,0.225,2.697,0.029,3.994-0.596
					c0.693-0.419,3.23-2.93,3.256-2.954l0.045-0.046l0.061,0.023c0.014,0.004,1.359,0.495,2.395,0.662
					c0.586,0.095,0.855,0.051,0.979-0.003c0.17-0.075,0.334-0.101,0.488-0.074c0.463,0.074,0.674,0.562,0.707,0.643l1.09,1.73
					l0.424-0.938l0.703-0.637l0.924-1.211c0.053-0.756,0.07-1.592,0.012-1.705c-0.127-0.114-0.598-0.914-0.689-1.073
					c-0.041-0.103-3.361-8.743-5.504-9.968c-0.563-0.482-1.355-0.713-1.363-0.716l-11.825-2.36l-6.832-1.723l-1.764-0.284
					c0.557,0.622,2.16,2.425,2.389,2.845c0.227,0.415,1.639,3.726,0.906,5.34c-0.711,1.564-2.303,2.549-3.342,2.484
					c-0.414-0.023-2.324-0.312-5.678-0.854c-2.523-0.408-4.924-0.809-4.924-0.809l-1.963-0.521l-0.02-0.027
					c-0.141-0.188-1.342-1.854-0.633-2.441c0.232-0.192,0.563-0.395,0.912-0.608c0.633-0.388,1.348-0.826,1.541-1.257
					c0.295-0.66,0.707-4.344,0.598-5.879c-0.107-1.501-0.246-3.427-0.246-3.427l-0.225-1.105l0.318-2.588L26.67,9.334l0.186-2.627
					l0.15,0.137c0.031,0.028,3.229,2.917,4.373,3.102c0.252,0.041,0.285-0.074,0.301-0.123c0.314-1.076-1.27-5.637-1.365-5.904
					c-0.102-0.148-1.316-1.888-2.588-2.093c-0.141-0.022-0.281-0.024-0.416-0.008c-1.15,0.151-1.348,0.39-1.506,0.579
					c-0.049,0.061-0.102,0.121-0.174,0.176c-0.102,0.072-0.215,0.098-0.346,0.076c-0.084-0.016-0.168-0.045-0.256-0.078
					c-0.139-0.051-0.293-0.101-0.432-0.089c-0.393,0.033-1.293,0.423-1.344,0.737c-0.016,0.086-0.039,0.184-0.063,0.287
					c-0.084,0.35-0.176,0.746,0.021,0.98c0.283,0.336,0.764,0.71,0.77,0.713l0.41,0.425l-0.049,0.067
					c-1.805,2.508-5.26,7.366-5.406,7.807l-0.018,0.049l-0.049,0.014c-2.328,0.676-3.771,1.395-3.855,1.923l-0.363,2.24
					c0.197,0.172,1.053,0.912,1.363,1.135c0.408,0.294,1.539,1.208,1.865,1.903c0.326,0.692,1.703,4.802,1.98,5.978
					c0.27,1.156,0.682,2.087,0.688,2.096c0.016,0.035,1.734,3.679,3.494,4.125c1.807,0.455,2.654,0.66,2.662,0.662l5.117,0.826
					l0.021,0.047c0.391,0.833,1.512,3.059,2.014,3.377c0.211,0.135,0.48,0.229,0.797,0.279l0,0c0.414,0.068,0.83,0.051,1.133,0.039
					l0.063-0.002c0.484-0.018,2.148-0.537,2.164-0.543l0.037-0.012l1.477,0.699c0.051,0.028,1.123,0.607,1.391,0.847
					c0.166,0.147,0.404,0.324,0.781,0.385c0.299,0.05,0.646,0.015,1.027-0.099l0.033-0.01l0.033,0.014
					C43.33,39.691,44.688,40.491,44.859,40.594z"/>
			</g>
			<g>
				<path fill="#D22E2E" d="M53.606,15.98c0,0,1.795,1.091,1.338,2.151c-0.457,1.062-0.568,2.043-1.186,2.212
					c-0.617,0.167-1.52,1.622-1.52,1.622l-12.045-2.681l-4.166-1.073c0,0-1.648-0.533-0.891-2.746
					c0.758-2.214,3.5-1.837,5.723-1.544C43.082,14.213,53.606,15.98,53.606,15.98z"/>
			</g>
			<g>
				<path fill="#D22E2E" d="M63.598,30.542l0.586,0.094l1.842-6.441l5.398,0.873l0.146-0.912l0.586,0.095l2.334-16.105l0.199-1.235
					l-0.518-2.153L57.569,2.074L57.225,4.02l-0.178,1.105l-0.184,1.309l-2.396,14.825l-0.881-0.209l-0.625,0.566l-0.072,0.455
					l1.691,0.273l3.988,0.912c0,0,1.324,0.48,1.686,1.139C60.614,25.054,63.598,30.542,63.598,30.542z"/>
			</g>
			<g>
				<path fill="#D22E2E" d="M21.92,0.076c0,0-1.451,1.057-1.424,2.051c0.027,0.993,0.676,2.832,1.141,2.863s0.885-1.557,0.885-1.557
					s0.713-0.588,0.779-0.604c0.066-0.018,0.229-0.273,0.254-0.398c0.027-0.126,0.479-0.816,0.479-0.816l0.598-0.59
					C24.631,1.025,23.551-0.331,21.92,0.076z"/>
			</g>
			<g>
				<path fill="#D22E2E" d="M15.82,29.794l-0.023-0.154l-0.977-0.157c0,0-0.408-0.366-0.666-1.142
					c-0.258-0.777-1.623-3.58-3.063-4.383c-0.148-0.107-2.275-0.885-2.941-0.992s-6.586-0.447-7.963,5.604
					c0,0-1.428,7.178,6.715,8.826c3.688,0.729,8.232-1.806,8.84-5.979C15.9,30.441,15.82,29.794,15.82,29.794z M7.217,34.624
					c-2.42-0.389-4.063-2.667-3.67-5.084c0.391-2.418,2.668-4.062,5.084-3.671c2.418,0.392,4.061,2.667,3.67,5.085
					S9.633,35.015,7.217,34.624z"/>
				<path fill="#D22E2E" d="M7.105,37.532L7.105,37.532c-0.074-0.012-0.148-0.025-0.223-0.039c-8.145-1.65-6.807-8.871-6.793-8.943
					c1.469-6.449,8.01-5.691,8.076-5.682c0.674,0.109,2.811,0.885,2.984,1.01c1.49,0.83,2.863,3.729,3.098,4.432
					c0.215,0.646,0.535,0.998,0.619,1.08l1.016,0.164l0.035,0.225c0.006,0.031,0.08,0.676-0.078,1.654
					c-0.262,1.795-1.277,3.427-2.861,4.588C11.258,37.284,9.063,37.849,7.105,37.532z M8.133,23.063
					c-0.063-0.01-6.42-0.745-7.85,5.529c-0.004,0.015-0.344,1.796,0.305,3.749c0.855,2.578,3.045,4.292,6.332,4.957
					c0.072,0.015,0.145,0.027,0.217,0.039c1.906,0.309,4.047-0.243,5.725-1.477c1.541-1.129,2.529-2.713,2.783-4.457
					c0.154-0.951,0.08-1.59,0.078-1.597l-0.012-0.08l-0.936-0.151l-0.021-0.019c-0.016-0.017-0.43-0.394-0.693-1.185
					c-0.229-0.689-1.566-3.52-3.016-4.327C10.908,23.95,8.814,23.174,8.133,23.063z M7.201,34.722
					c-2.469-0.398-4.15-2.73-3.752-5.198s2.73-4.151,5.199-3.751c2.467,0.398,4.148,2.73,3.75,5.197
					C12,33.438,9.668,35.12,7.201,34.722z M8.615,25.968c-2.359-0.382-4.59,1.227-4.971,3.588c-0.383,2.359,1.229,4.59,3.588,4.973
					c2.359,0.38,4.59-1.229,4.973-3.59C12.584,28.579,10.975,26.349,8.615,25.968z"/>
			</g>
			<g>
				<path fill="#D22E2E" d="M60.946,37.862c0,0-0.635,0.224-1.57-0.029c-0.635-0.17-1.256-0.35-1.59-0.447
					c0.092,0.49,0.104,1.003,0.018,1.522c-0.389,2.417-2.666,4.062-5.084,3.671c-1.256-0.204-2.301-0.916-2.963-1.893
					c-1.766-0.43-4.17-1.303-4.17-1.303l0.09,0.215c0,0,0.748,5.752,6.342,6.13c5.596,0.38,8.209-3.253,8.666-5.306
					C61.141,38.368,60.946,37.862,60.946,37.862z"/>
			</g>
			<g>
				
					<rect x="76.547" y="14.804" transform="matrix(0.9872 0.1596 -0.1596 0.9872 3.7264 -13.2348)" fill="#D22E2E" width="15.426" height="3.557"/>
			</g>
			<g>
				
					<rect x="75.298" y="22.401" transform="matrix(0.9872 0.1595 -0.1595 0.9872 4.8989 -12.6778)" fill="#D22E2E" width="12.264" height="3.558"/>
			</g>
			<g>
				
					<rect x="77.8" y="7.161" transform="matrix(0.9872 0.1596 -0.1596 0.9872 2.5397 -13.7443)" fill="#D22E2E" width="18.075" height="3.556"/>
			</g>
		</g>
		<ellipse fill="#D22E2E" cx="52.889" cy="48.474" rx="13.026" ry="0.863"/>
	</g>
</g>
</svg>
